<svg width="15" height="15" viewBox="0 0 15 15" fill="none" xmlns="http://www.w3.org/2000/svg">
<path d="M5.39292 11.0127C3.96986 11.0127 2.76472 10.5192 1.7775 9.53208C0.790416 8.54485 0.296875 7.33971 0.296875 5.91666C0.296875 4.4936 0.790416 3.28847 1.7775 2.30124C2.76472 1.31416 3.96986 0.820618 5.39292 0.820618C6.81597 0.820618 8.02111 1.31416 9.00833 2.30124C9.99542 3.28847 10.489 4.4936 10.489 5.91666C10.489 6.5118 10.3891 7.0802 10.1894 7.62187C9.98951 8.16353 9.72292 8.63465 9.38958 9.0352L14.1846 13.8302C14.3 13.9455 14.359 14.0905 14.3617 14.2652C14.3643 14.4399 14.3053 14.5876 14.1846 14.7083C14.0639 14.829 13.9175 14.8894 13.7454 14.8894C13.5735 14.8894 13.4272 14.829 13.3065 14.7083L8.51146 9.91333C8.09479 10.2574 7.61562 10.5266 7.07396 10.721C6.53229 10.9155 5.97194 11.0127 5.39292 11.0127ZM5.39292 9.76291C6.46667 9.76291 7.37611 9.39027 8.12125 8.64499C8.86653 7.89985 9.23917 6.99041 9.23917 5.91666C9.23917 4.84291 8.86653 3.93346 8.12125 3.18833C7.37611 2.44305 6.46667 2.07041 5.39292 2.07041C4.31917 2.07041 3.40972 2.44305 2.66458 3.18833C1.91931 3.93346 1.54667 4.84291 1.54667 5.91666C1.54667 6.99041 1.91931 7.89985 2.66458 8.64499C3.40972 9.39027 4.31917 9.76291 5.39292 9.76291Z" fill="#2A2B3F"/>
</svg>
