<svg width="41" height="40" viewBox="0 0 41 40" fill="none" xmlns="http://www.w3.org/2000/svg">
<g opacity="0.5">
<path d="M18.2723 23.0127C16.8493 23.0127 15.6441 22.5192 14.6569 21.5321C13.6698 20.5449 13.1763 19.3397 13.1763 17.9167C13.1763 16.4936 13.6698 15.2885 14.6569 14.3012C15.6441 13.3142 16.8493 12.8206 18.2723 12.8206C19.6954 12.8206 20.9005 13.3142 21.8877 14.3012C22.8748 15.2885 23.3684 16.4936 23.3684 17.9167C23.3684 18.5118 23.2685 19.0802 23.0688 19.6219C22.8689 20.1635 22.6023 20.6346 22.269 21.0352L27.064 25.8302C27.1794 25.9455 27.2384 26.0905 27.2411 26.2652C27.2437 26.4399 27.1847 26.5876 27.064 26.7083C26.9433 26.829 26.7969 26.8894 26.6248 26.8894C26.4529 26.8894 26.3065 26.829 26.1859 26.7083L21.3909 21.9133C20.9742 22.2574 20.495 22.5266 19.9534 22.721C19.4117 22.9155 18.8513 23.0127 18.2723 23.0127ZM18.2723 21.7629C19.3461 21.7629 20.2555 21.3903 21.0006 20.645C21.7459 19.8999 22.1186 18.9904 22.1186 17.9167C22.1186 16.8429 21.7459 15.9335 21.0006 15.1883C20.2555 14.443 19.3461 14.0704 18.2723 14.0704C17.1986 14.0704 16.2891 14.443 15.544 15.1883C14.7987 15.9335 14.4261 16.8429 14.4261 17.9167C14.4261 18.9904 14.7987 19.8999 15.544 20.645C16.2891 21.3903 17.1986 21.7629 18.2723 21.7629Z" fill="#2A2B3F"/>
</g>
</svg>
