<svg width="49" height="49" viewBox="0 0 49 49" fill="none" xmlns="http://www.w3.org/2000/svg">
<mask id="mask0_2_1022" style="mask-type:luminance" maskUnits="userSpaceOnUse" x="0" y="0" width="49" height="49">
<path d="M48.5 0.40625H0.5V48.4062H48.5V0.40625Z" fill="white"/>
</mask>
<g mask="url(#mask0_2_1022)">
<path fill-rule="evenodd" clip-rule="evenodd" d="M24.4908 1.11914C11.6249 1.11914 1.19531 11.5492 1.19531 24.4146C1.19531 37.2803 11.6251 47.7102 24.4908 47.7102C37.3559 47.7102 47.7863 37.2803 47.7863 24.4146C47.7863 11.5494 37.3559 1.11914 24.4908 1.11914ZM24.4908 45.6214C12.7784 45.6214 3.28397 36.1269 3.28397 24.4146C3.28397 12.7028 12.7784 3.20805 24.4908 3.20805C36.2027 3.20805 45.6976 12.7028 45.6976 24.4146C45.6976 36.1269 36.2027 45.6214 24.4908 45.6214Z" fill="#6A6F73"/>
<path fill-rule="evenodd" clip-rule="evenodd" d="M19.8481 8.57185C21.3565 8.13151 22.9199 7.9087 24.4912 7.91016C26.1012 7.91016 27.6576 8.14077 29.1289 8.5706L24.4912 18.8508L19.8481 8.57185Z" fill="#6A6F73"/>
<path fill-rule="evenodd" clip-rule="evenodd" d="M33.3508 10.4863C35.0889 11.5951 36.6054 13.0178 37.8228 14.6818L30.2108 31.5265L27.2734 24.9951H21.708L18.7708 31.5262L11.1698 14.6661C12.3848 13.0088 13.8971 11.5915 15.6298 10.4865L21.708 23.9708H27.2923L33.3508 10.4863ZM8.54247 20.1431C8.17089 21.5367 7.98327 22.9728 7.98438 24.4151C7.98438 30.8837 11.7047 36.4828 17.1225 39.1901L8.54247 20.1431Z" fill="#6A6F73"/>
<path fill-rule="evenodd" clip-rule="evenodd" d="M19.9248 40.2821C21.4095 40.708 22.9466 40.9233 24.4911 40.9219C26.0735 40.9219 27.6036 40.699 29.0519 40.2838L24.4911 30.1548L19.9248 40.2821ZM31.8586 39.1906C37.2766 36.4833 40.9969 30.8843 40.9969 24.4156C40.9969 22.9512 40.8061 21.5315 40.4488 20.1797L31.8586 39.1906Z" fill="#6A6F73"/>
</g>
</svg>
