<svg width="115" height="45" viewBox="0 0 115 45" fill="none" xmlns="http://www.w3.org/2000/svg">
<g clip-path="url(#clip0_2_4035)">
<mask id="mask0_2_4035" style="mask-type:luminance" maskUnits="userSpaceOnUse" x="5" y="10" width="106" height="20">
<path d="M111 10.3H5V29.2265H111V10.3Z" fill="white"/>
</mask>
<g mask="url(#mask0_2_4035)">
<path d="M67.2649 10.3V17.7433C67.968 17.2646 68.7586 16.9292 69.5915 16.7563C70.4243 16.5834 71.2831 16.5765 72.1186 16.7359C72.9542 16.8953 73.7501 17.2179 74.4608 17.6853C75.1715 18.1526 75.7832 18.7556 76.2606 19.4595L76.3377 19.5656C77.0599 20.6948 77.3917 22.0298 77.282 23.3657C77.1723 24.7016 76.6271 25.9645 75.7303 26.9607C74.7119 28.1355 73.2921 28.8884 71.7483 29.0722C70.992 29.2024 70.2172 29.1791 69.4701 29.0035C68.7231 28.8279 68.019 28.5037 67.3999 28.0502C67.3131 28.3202 67.2553 28.5323 67.1781 28.783H64.2856V10.9846L67.2649 10.3ZM74.3322 22.892C74.3547 22.1888 74.1682 21.4949 73.7964 20.8976C73.4245 20.3004 72.884 19.8269 72.243 19.5369C71.6021 19.2468 70.8896 19.1533 70.1955 19.2682C69.5015 19.383 68.857 19.701 68.3438 20.182C67.8303 20.6631 67.4711 21.2856 67.3114 21.9706C67.1517 22.6557 67.1987 23.3728 67.4465 24.0313C67.6943 24.6897 68.1317 25.2599 68.7034 25.6697C69.2752 26.0796 69.9557 26.3109 70.6589 26.334H70.7359C71.6657 26.3421 72.5619 25.9869 73.2337 25.344C73.9054 24.701 74.2996 23.8212 74.3322 22.892Z" fill="#D1D7DC"/>
<path d="M8.4707 24.82C8.72805 25.206 9.05918 25.5373 9.44506 25.7949C9.83093 26.0525 10.2639 26.2312 10.7191 26.3208C11.1743 26.4104 11.6427 26.4091 12.0975 26.317C12.5522 26.2249 12.9842 26.0438 13.3686 25.7841C13.567 25.6525 13.7512 25.5007 13.9182 25.331C14.0346 25.1817 14.1948 25.0725 14.3764 25.0189C14.5579 24.9653 14.7517 24.9699 14.9306 25.0321C15.6344 25.2249 16.3479 25.3888 17.2446 25.6106C16.869 26.1916 16.4534 26.7457 16.0008 27.2689C15.1802 28.1389 14.1266 28.7543 12.9657 29.0416C11.8047 29.3288 10.5857 29.2757 9.45414 28.8887C8.30133 28.5676 7.26904 27.9132 6.48685 27.0075C5.70467 26.1018 5.20743 24.9852 5.05756 23.798C4.85021 22.2243 5.243 20.6303 6.15776 19.3332C7.07252 18.0361 8.44216 17.1311 9.99407 16.7981C10.8172 16.6041 11.6707 16.5752 12.5052 16.7129C13.3396 16.8506 14.1385 17.1523 14.8557 17.6005C15.5729 18.0488 16.1942 18.6347 16.6836 19.3244C17.1731 20.0141 17.521 20.794 17.7074 21.6189C17.7027 21.6735 17.7027 21.7283 17.7074 21.7829C17.9002 22.6602 17.8713 22.747 16.9746 22.9206L9.02027 24.7043C8.83147 24.7082 8.64507 24.7475 8.4707 24.82ZM7.8922 22.4288L14.2557 20.9826C13.8865 20.3896 13.3419 19.9263 12.6975 19.6567C12.0531 19.3872 11.3407 19.3249 10.6593 19.4785C9.9373 19.5963 9.27444 19.9494 8.77396 20.483C8.27349 21.0166 7.96348 21.7007 7.8922 22.4288Z" fill="#D1D7DC"/>
<path d="M101.802 24.8199C102.279 25.5573 103.016 26.088 103.866 26.306C104.717 26.524 105.619 26.4134 106.391 25.9962C106.673 25.8687 106.926 25.685 107.134 25.4562C107.519 24.897 107.973 24.9549 108.522 25.1188C109.072 25.2827 109.785 25.4177 110.45 25.5816C109.974 26.6461 109.197 27.5477 108.214 28.1752C106.785 29.1138 105.042 29.4471 103.368 29.1018C101.694 28.7565 100.226 27.7609 99.2854 26.3336C98.8228 25.6678 98.4952 24.9176 98.3213 24.1257C98.1712 23.3063 98.1844 22.4653 98.3602 21.6511C98.5361 20.8368 98.871 20.0653 99.3458 19.3808C99.8206 18.6964 100.426 18.1125 101.127 17.6626C101.828 17.2128 102.611 16.9058 103.431 16.7595H103.643C105.081 16.5499 106.547 16.8271 107.808 17.5469C109.07 18.2668 110.054 19.3879 110.605 20.7318C110.758 21.2224 110.884 21.7214 110.981 22.2263C111.077 22.6216 110.894 22.7951 110.489 22.8819C107.78 23.4797 105.07 24.0968 102.361 24.7138L101.802 24.8199ZM107.587 20.9632C107.136 20.2616 106.446 19.7464 105.646 19.5126C104.845 19.2787 103.987 19.3419 103.229 19.6905C102.004 20.2305 101.088 21.4935 101.301 22.3805L107.587 20.9632Z" fill="#D1D7DC"/>
<path d="M32.8844 24.8203C33.1351 25.6977 34.7163 26.5365 36.0083 26.3919C36.9403 26.3129 37.8098 25.8902 38.4476 25.206C38.519 25.1305 38.6061 25.0716 38.7027 25.0333C38.7993 24.9949 38.9031 24.9782 39.0068 24.9842C39.8263 25.1385 40.6362 25.3409 41.5522 25.5434C41.127 26.4806 40.4618 27.2888 39.6239 27.8863C38.9528 28.3991 38.1873 28.7748 37.3711 28.9917C36.5549 29.2087 35.7039 29.2628 34.8668 29.1509C34.0297 29.039 33.2228 28.7633 32.4922 28.3395C31.7617 27.9157 31.1217 27.3522 30.609 26.6811C29.9884 25.8729 29.5717 24.927 29.3941 23.9236C29.1292 22.3063 29.5073 20.6494 30.4478 19.3072C31.3883 17.965 32.8164 17.0438 34.427 16.7406C36.0822 16.3976 37.8059 16.7231 39.222 17.6461C40.6381 18.5691 41.6318 20.0147 41.9861 21.6675C42.1982 22.6316 42.1693 22.6316 41.263 22.8727L33.4243 24.6467L32.8844 24.8203ZM38.6694 20.9636C38.2497 20.3168 37.6272 19.8277 36.8996 19.5729C36.1719 19.3181 35.3802 19.3122 34.6488 19.556C33.5593 19.8741 32.2191 21.2047 32.3637 22.3906L38.6694 20.9636Z" fill="#D1D7DC"/>
<path d="M46.2664 17.6759L47.4234 17.0492C48.5461 16.4384 49.8653 16.2985 51.0911 16.6601C52.3169 17.0217 53.349 17.8552 53.9604 18.9775C54.3536 19.6992 54.5591 20.5082 54.5582 21.33V28.8409H51.8489C51.4151 28.8409 51.5211 28.5034 51.5211 28.2624V22.9595C51.5177 22.4461 51.4758 21.9336 51.3958 21.4265C51.1258 19.9995 50.1424 19.3631 48.5033 19.4981C47.904 19.5108 47.3342 19.7604 46.9186 20.1923C46.5029 20.6242 46.2754 21.2032 46.2857 21.8025C46.281 21.8247 46.281 21.8477 46.2857 21.87V28.0888C46.2857 28.6577 46.1604 28.9084 45.5433 28.8601C44.9263 28.8119 44.0296 28.8601 43.2197 28.8601V17.5023C43.2197 16.9431 43.4029 16.7985 43.9235 16.8274C44.4563 16.866 44.9912 16.866 45.524 16.8274C46.0158 16.7792 46.3918 16.8853 46.2664 17.6759Z" fill="#D1D7DC"/>
<path d="M17.0518 16.8272H19.9443C20.1468 16.8272 20.4167 17.1647 20.5035 17.4057C21.3905 19.6715 22.2583 21.9469 23.126 24.2223C23.2128 24.4537 23.3092 24.6755 23.4635 25.0322C23.6081 24.7333 23.7045 24.5405 23.7913 24.3477C24.688 22.0433 25.5847 19.739 26.4524 17.4153C26.6259 16.9622 26.8284 16.7597 27.3394 16.7886H30.068C29.6823 17.7528 29.3449 18.6109 28.9978 19.469C27.7829 22.4193 26.5617 25.3697 25.334 28.32C25.293 28.4774 25.1959 28.6143 25.0609 28.7049C24.9258 28.7955 24.7623 28.8335 24.6012 28.8117H22.3547C22.2346 28.7976 22.1193 28.7564 22.0175 28.6912C21.9156 28.6261 21.8298 28.5388 21.7666 28.4357C20.2143 24.7623 18.6909 21.002 17.1675 17.3189C17.117 17.1581 17.0784 16.9937 17.0518 16.8272Z" fill="#D1D7DC"/>
<path d="M60.5744 11.8328V16.0848C60.5744 16.6922 60.7673 16.8947 61.3458 16.8368C61.7756 16.7983 62.2079 16.7983 62.6377 16.8368C62.792 16.8368 63.0427 17.02 63.0427 17.1357V19.7004H60.6034V28.8214H57.6144C57.518 28.8214 57.3638 28.4453 57.3638 28.2429V19.7293H55.9175C55.4354 19.7293 55.3776 19.6425 55.3872 19.2569V17.3189C55.3872 16.9718 55.5319 16.8561 55.8693 16.8561C56.2068 16.8561 57.0263 16.9622 57.2095 16.7211C57.3575 16.2477 57.4067 15.7489 57.3541 15.2556V12.9995C57.3541 12.8163 57.5084 12.5174 57.6434 12.4788C58.5882 12.2281 59.5524 12.0546 60.5744 11.8328Z" fill="#D1D7DC"/>
<path d="M92.6803 12.5754H95.9199V16.3549C95.9199 16.7309 96.0452 16.8852 96.4116 16.8756C96.9254 16.8466 97.4404 16.8466 97.9543 16.8756C98.0478 16.8912 98.1358 16.9304 98.21 16.9894C98.2842 17.0485 98.3422 17.1254 98.3785 17.213V19.7198H96.6912C96.1513 19.7198 95.8813 19.8452 95.8909 20.4912V28.783H92.7381V20.414C92.7381 19.9319 92.6032 19.7391 92.1114 19.7777C91.6197 19.8162 91.263 19.7777 90.752 19.7777V17.2034C90.752 17.0877 90.9544 16.9623 91.0798 16.8756C91.2051 16.7888 91.234 16.8756 91.3208 16.8756C92.7092 16.8756 92.7092 16.8756 92.7092 15.4775L92.6803 12.5754Z" fill="#D1D7DC"/>
<path d="M81.5158 28.8894H78.7776C78.3052 28.8894 78.4209 28.5326 78.4112 28.2627V17.3869C78.4112 16.9627 78.5559 16.8084 78.9801 16.8181H81.4579C81.4732 17.103 81.5088 17.3866 81.5641 17.6665L85.0447 16.7024V19.7877C84.6012 19.8552 84.1384 19.9034 83.6852 19.9998C83.3776 20.0217 83.0774 20.1044 82.802 20.2431C82.5265 20.3817 82.2813 20.5736 82.0805 20.8076C81.8797 21.0416 81.7272 21.3131 81.6319 21.6064C81.5367 21.8997 81.5005 22.2089 81.5255 22.5163C81.5207 22.5482 81.5207 22.5807 81.5255 22.6127V28.0891L81.5158 28.8894Z" fill="#D1D7DC"/>
<path d="M89.3256 28.812H86.4331C86.4331 28.5517 86.4331 28.3396 86.4331 28.1275V17.5217C86.4331 16.9817 86.5777 16.7889 87.1177 16.8275C87.6576 16.866 88.3903 16.8275 89.046 16.8275C89.3449 16.8275 89.4895 16.9239 89.4895 17.2517V28.6288C89.4456 28.6987 89.3901 28.7606 89.3256 28.812Z" fill="#D1D7DC"/>
<path d="M87.9173 10.5699C88.4125 10.5693 88.8889 10.7591 89.2479 11.1002C89.6068 11.4412 89.8209 11.9073 89.8456 12.4018C89.8456 12.9132 89.6425 13.4037 89.2808 13.7653C88.9192 14.1269 88.4287 14.3301 87.9173 14.3301C87.3938 14.3405 86.8873 14.1437 86.5081 13.7826C86.1289 13.4215 85.9077 12.9252 85.8926 12.4018C85.9049 12.1484 85.9671 11.9 86.0756 11.6708C86.1841 11.4415 86.3368 11.2359 86.5249 11.0658C86.7129 10.8956 86.9328 10.7642 87.1717 10.6791C87.4106 10.594 87.664 10.5569 87.9173 10.5699Z" fill="#D1D7DC"/>
</g>
</g>
<defs>
<clipPath id="clip0_2_4035">
<rect width="115" height="44" fill="white" transform="translate(0 0.300049)"/>
</clipPath>
</defs>
</svg>
