<svg width="133" height="41" viewBox="0 0 133 41" fill="none" xmlns="http://www.w3.org/2000/svg">
<path d="M30.9969 17.9312C32.3719 16.8312 33.4719 15.7312 34.7094 14.7687C35.2594 14.3562 35.9469 13.9437 36.6344 13.8062C38.6969 13.2562 40.4844 14.4937 40.7594 16.6937C40.7594 17.5187 40.7594 18.4812 40.7594 19.3062C40.2094 22.3312 39.6594 25.4937 39.1094 28.5187C39.1094 29.2062 39.1094 29.8937 39.1094 30.5812C39.3844 31.6812 40.4844 32.2312 41.4469 31.6812C42.4094 31.2687 43.0969 30.5812 43.9219 30.0312C44.0594 30.0312 44.1969 29.6187 44.1969 29.4812C44.6094 27.0062 44.8844 24.6687 45.1594 22.1937C45.1594 21.9187 45.1594 21.7812 45.1594 21.5062C45.1594 20.8187 44.7469 20.5437 44.0594 20.9562C43.5094 21.2312 42.9594 21.6437 42.2719 22.0562C41.8594 21.5062 41.3094 20.9562 40.7594 20.2687C43.0969 18.2062 45.2969 16.1437 47.6344 14.3562C48.7344 13.5312 50.1094 13.8062 51.0719 15.0437C52.0344 16.2812 52.4469 17.6562 52.3094 19.1687C52.3094 19.4437 52.3094 19.5812 52.1719 19.5812C53.1344 18.7562 53.9594 17.9312 54.9219 17.2437C57.2594 15.3187 59.8719 14.3562 62.8969 14.6312C65.0969 14.7687 66.4719 16.2812 66.7469 18.6187C66.7469 19.1687 66.7469 19.5812 66.8844 20.2687C67.5719 19.5812 67.9844 19.1687 68.5344 18.6187C69.6344 17.3812 71.0094 16.2812 72.5219 15.4562C73.8969 14.7687 75.2719 14.4937 76.7844 14.4937C79.3969 14.4937 81.3219 16.2812 81.1844 19.0312C81.1844 21.0937 80.7719 23.0187 80.4969 25.0812C80.2219 26.7312 79.8094 28.3812 79.6719 30.1687C79.6719 30.8562 79.6719 31.5437 80.3594 31.9562C81.0469 32.2312 82.2844 32.0937 82.8344 31.5437C82.8344 31.5437 83.1094 31.2687 83.1094 30.9937C82.6969 25.2187 85.5844 21.2312 89.5719 17.7937C93.0094 15.0437 96.8594 13.9437 101.259 14.3562C106.897 14.9062 107.584 20.4062 105.247 23.7062C102.772 27.2812 99.4719 29.4812 95.3469 30.7187C94.3844 30.9937 93.4219 31.2687 92.4594 31.5437C93.0094 32.3687 93.8344 32.7812 94.6594 32.9187C96.8594 33.3312 99.0594 32.9187 101.122 32.3687C102.772 31.9562 104.284 31.2687 105.934 30.7187C106.347 30.5812 106.622 30.3062 106.484 29.7562C105.659 22.4687 112.809 14.6312 119.959 14.0812C121.472 14.0812 123.122 13.9437 124.634 14.0812C128.209 14.9062 130.547 17.6562 131.097 21.6437C132.059 28.6562 127.797 35.9437 121.197 38.2812C117.622 39.5187 113.909 39.6562 110.472 37.4562C109.234 36.6312 108.272 35.3937 107.309 34.2937C105.659 35.1187 103.872 36.0812 101.947 36.9062C98.2344 38.4187 94.3844 39.2437 90.3969 38.8312C87.9219 38.5562 85.8594 37.5937 84.4844 35.3937C84.4844 35.3937 84.3469 35.1187 84.2094 35.1187C83.5219 35.6687 82.8344 36.2187 82.0094 36.7687C79.9469 38.1437 77.6094 39.1062 75.1344 38.9687C72.7969 38.9687 71.5594 37.5937 71.2844 35.2562C71.1469 32.9187 71.6969 30.5812 72.2469 28.2437C72.5219 26.7312 72.6594 25.2187 72.7969 23.7062C72.7969 23.0187 72.7969 22.3312 71.9719 22.0562C71.2844 21.6437 70.5969 22.0562 70.0469 22.4687C68.5344 23.7062 67.7094 25.3562 66.7469 27.0062C65.0969 29.8937 64.4094 33.0562 64.6844 36.3562C64.6844 37.1812 64.9594 37.8687 65.0969 38.6937C63.0344 38.6937 60.9719 38.6937 59.1844 37.4562C58.0844 36.6312 57.5344 35.5312 57.3969 34.1562C57.1219 31.9562 57.3969 29.8937 57.9469 27.8312C58.2219 26.5937 58.3594 25.2187 58.4969 23.8437C58.4969 23.0187 58.3594 22.3312 57.5344 22.0562C56.7094 21.6437 56.0219 21.9187 55.3344 22.4687C53.8219 23.8437 52.9969 25.6312 52.3094 27.4187C50.9344 30.9937 50.6594 34.5687 51.3469 38.2812C51.3469 38.2812 51.3469 38.4187 51.3469 38.5562C47.7719 38.8312 44.8844 37.7312 43.9219 34.4312C43.0969 35.1187 42.2719 35.8062 41.4469 36.3562C39.3844 37.8687 37.0469 38.8312 34.4344 38.6937C32.0969 38.6937 30.4469 37.1812 30.4469 34.7062C30.4469 32.9187 30.8594 30.9937 31.1344 29.2062C31.5469 27.1437 32.2344 25.0812 32.7844 23.0187C32.7844 22.7437 33.0594 22.3312 32.9219 22.0562C32.9219 21.5062 32.6469 20.9562 32.2344 20.6812C31.9594 20.5437 31.2719 20.6812 30.8594 20.9562C30.0344 21.3687 29.6219 22.0562 29.2094 22.8812C26.7344 28.2437 23.2969 33.0562 18.7594 36.7687C17.7969 37.5937 16.5594 38.1437 15.3219 38.5562C13.9469 39.1062 12.5719 38.5562 11.8844 37.3187C11.0594 36.0812 10.3719 34.5687 9.95938 33.0562C8.85938 29.7562 8.03437 26.4562 7.07187 23.1562C6.79687 22.4687 6.38438 21.7812 5.97188 21.0937C5.55938 20.5437 5.00937 20.4062 4.45937 20.8187C3.90937 21.2312 3.35938 21.5062 2.67188 21.9187C2.25937 21.3687 1.84688 20.8187 1.29688 20.1312C1.98438 19.4437 2.67188 18.8937 3.35938 18.2062C4.73438 17.1062 5.97188 15.8687 7.34688 14.7687C7.89687 14.3562 8.72188 13.9437 9.40938 13.6687C11.1969 13.2562 12.7094 14.0812 13.2594 16.0062C13.8094 17.6562 13.9469 19.4437 14.3594 21.0937C14.9094 23.4312 15.4594 25.6312 15.8719 27.9687C15.8719 28.2437 16.1469 28.5187 16.2844 28.7937C16.6969 29.6187 17.3844 29.7562 17.9344 29.0687C19.0344 27.8312 19.9969 26.4562 20.8219 24.9437C21.3719 24.1187 21.6469 23.1562 21.7844 22.1937C22.1969 20.2687 21.3719 19.4437 19.4469 19.5812C18.8969 19.5812 18.4844 19.7187 17.9344 19.8562C18.3469 15.5937 23.0219 12.1562 27.0094 13.2562C28.7969 13.6687 29.6219 15.0437 30.0344 16.6937C30.0344 16.9687 30.0344 17.2437 30.1719 17.6562L30.9969 17.9312ZM114.597 29.3437C114.597 29.6187 114.597 30.3062 114.872 30.8562C115.422 33.0562 116.934 33.7437 118.997 32.9187C119.547 32.6437 120.097 32.2312 120.509 31.8187C122.159 30.3062 123.259 28.2437 123.809 26.0437C124.222 24.1187 124.359 22.3312 123.672 20.4062C123.122 19.0312 122.434 18.7562 121.059 19.0312C119.822 19.3062 118.722 19.8562 117.897 20.8187C115.834 23.1562 114.734 25.9062 114.597 29.3437ZM91.4969 28.5187C94.5219 27.2812 96.8594 25.6312 98.5094 23.0187C99.1969 22.0562 99.1969 20.6812 98.5094 20.1312C97.9594 19.5812 96.7219 19.5812 95.7594 20.2687C94.7969 21.0937 93.8344 22.0562 93.1469 23.0187C92.0469 24.5312 91.3594 26.3187 91.4969 28.5187Z" fill="#6A6F73"/>
<path d="M36.7718 10.3687C35.5343 10.3687 34.2968 10.0938 33.7468 8.71875C33.1968 7.20625 33.3343 5.83125 34.4343 4.59375C35.8093 2.94375 37.5968 1.98125 39.6593 1.84375C41.8593 1.84375 43.5093 4.18125 42.8218 6.38125C41.9968 8.71875 39.5218 10.5062 36.7718 10.3687Z" fill="#6A6F73"/>
</svg>
