<svg width="63" height="41" viewBox="0 0 63 41" fill="none" xmlns="http://www.w3.org/2000/svg">
<g clip-path="url(#clip0_2_932)">
<path d="M19.8202 32.6239L19.7082 32.7326C17.9468 34.5272 15.9085 35.4753 13.809 35.4753C9.42417 35.4753 6.2433 32.1858 6.2433 27.6484C6.2433 23.1181 9.42417 19.8233 13.809 19.8233C15.9085 19.8233 17.9468 20.7767 19.7082 22.5783L19.8202 22.6852L22.6402 19.2748L22.5648 19.1837C20.2199 16.4129 17.4053 15.0652 13.9458 15.0652C10.4775 15.0652 7.30184 16.2341 5.01652 18.3389C2.5279 20.6207 1.21875 23.8384 1.21875 27.6484C1.21875 31.4585 2.5279 34.6832 5.01652 36.965C7.30184 39.0821 10.4775 40.2422 13.9458 40.2422C17.4053 40.2422 20.2199 38.8928 22.5648 36.1203L22.6402 36.0361L19.8202 32.6239Z" fill="#6A6F73"/>
<path d="M25.4883 39.7735H30.469V15.4552H25.4883V39.7735Z" fill="#6A6F73"/>
<path d="M49.9826 34.4914C48.6524 35.3011 47.4168 35.7094 46.3057 35.7094C44.6951 35.7094 43.9661 34.8577 43.9661 32.9649V20.0609H49.0432V15.4833H43.9661V7.91577L39.0852 10.5306V15.4833H34.8721V20.0609H39.0852V33.7869C39.0852 37.525 41.3005 40.0838 44.6093 40.1503C46.8543 40.1942 48.2072 39.5247 49.0274 39.034L49.08 39.0007L50.277 34.3109L49.9826 34.4914Z" fill="#6A6F73"/>
<path d="M54.1055 39.7735H59.0933V15.4552H54.1055V39.7735Z" fill="#6A6F73"/>
<path d="M61.9982 11.1961C57.4469 4.75023 49.8899 0.905151 42.2015 0.905151C34.5148 0.905151 26.9561 4.75023 22.4135 11.1961L22.1787 11.5273H27.9095L27.9726 11.4589C31.872 7.43163 36.9649 5.30404 42.2015 5.30404C47.4381 5.30404 52.5275 7.43163 56.4357 11.4589L56.4987 11.5273H62.2261L61.9982 11.1961Z" fill="#6A6F73"/>
</g>
<defs>
<clipPath id="clip0_2_932">
<rect width="62" height="40" fill="white" transform="translate(0.71875 0.40625)"/>
</clipPath>
</defs>
</svg>
