<svg width="102" height="35" viewBox="0 0 102 35" fill="none" xmlns="http://www.w3.org/2000/svg">
<g clip-path="url(#clip0_2_1001)">
<mask id="mask0_2_1001" style="mask-type:luminance" maskUnits="userSpaceOnUse" x="0" y="0" width="101" height="34">
<path d="M100.869 0.90625H0.369141V33.9062H100.869V0.90625Z" fill="white"/>
</mask>
<g mask="url(#mask0_2_1001)">
<path d="M100.806 8.76314C102.175 16.5221 80.8169 26.6833 53.0955 31.4581C25.3774 36.2329 1.79751 33.81 0.430652 26.0478C-0.935104 18.2877 20.4289 8.12984 48.147 3.3561C75.8661 -1.42091 99.4417 1.00199 100.806 8.76314Z" fill="#6A6F73"/>
<path d="M74.7184 20.2809L74.5759 12.2129H77.1485V22.3817H73.4498L70.8828 14.0364H70.8276L70.97 22.3817H68.414V12.2129H72.2728L74.661 20.2809H74.7184Z" fill="white"/>
<path d="M27.9566 13.1651L26.5335 22.4887H23.728L25.6546 12.2129H30.2763L32.1941 22.4887H29.3997L28.0152 13.1651H27.9566Z" fill="white"/>
<path d="M38.7282 22.4887L36.9904 13.2502H36.934L36.8689 22.4887H34.2666L34.4962 12.2129H38.7359L40.0189 20.068H40.0741L41.3581 12.2129H45.5956L45.8208 22.4887H43.224L43.1556 13.2502H43.1015L41.3647 22.4887H38.7282Z" fill="white"/>
<path d="M19.3527 19.5899C19.4542 19.8389 19.4233 20.1588 19.3758 20.3521C19.2886 20.6938 19.0546 21.0422 18.3634 21.0422C17.712 21.0422 17.3167 20.6731 17.3167 20.1086V19.1139H14.53L14.5278 19.9099C14.5278 22.2006 16.3518 22.8918 18.306 22.8918C20.1851 22.8918 21.7331 22.2563 21.9793 20.5443C22.1051 19.6565 22.0113 19.0757 21.9682 18.8562C21.5299 16.7052 17.5861 16.0631 17.2924 14.8599C17.2428 14.6535 17.2571 14.4351 17.2814 14.3183C17.3532 13.9907 17.5806 13.6293 18.2309 13.6293C18.8382 13.6293 19.197 14.0006 19.197 14.5618C19.197 14.7507 19.197 15.1962 19.197 15.1962H21.7883V14.4744C21.7883 12.2361 19.7568 11.8867 18.285 11.8867C16.4368 11.8867 14.9264 12.4905 14.6504 14.1633C14.5753 14.6251 14.5642 15.0368 14.6735 15.5521C15.1273 17.6518 18.8183 18.26 19.3527 19.5899Z" fill="white"/>
<path d="M53.1398 19.5713C53.2425 19.8181 53.2094 20.1293 53.163 20.3226C53.078 20.6632 52.8461 21.0061 52.1594 21.0061C51.5168 21.0061 51.1248 20.637 51.1248 20.0856L51.1226 19.0996H48.3646L48.3613 19.8847C48.3613 22.1526 50.1687 22.8372 52.103 22.8372C53.9623 22.8372 55.4959 22.2104 55.7377 20.5136C55.8636 19.6325 55.7741 19.0592 55.7289 18.8441C55.2927 16.7128 51.3887 16.0773 51.0983 14.886C51.0486 14.6808 51.063 14.4646 51.0884 14.3543C51.1624 14.0245 51.3854 13.6719 52.0291 13.6719C52.6308 13.6719 52.9819 14.0344 52.9819 14.5912C52.9819 14.778 52.9819 15.2191 52.9819 15.2191H55.5533V14.505C55.5533 12.2906 53.5384 11.9434 52.081 11.9434C50.2537 11.9434 48.7555 12.5396 48.485 14.2003C48.4099 14.6557 48.4022 15.0597 48.5092 15.5728C48.9564 17.6507 52.6109 18.2545 53.1398 19.5713Z" fill="white"/>
<path d="M61.8675 20.9518C62.5885 20.9518 62.8137 20.4583 62.8634 20.206C62.8844 20.0947 62.8899 19.9462 62.8877 19.8129V12.209H65.5154V19.5804C65.5209 19.7693 65.5022 20.158 65.4933 20.2552C65.3089 22.1736 63.7754 22.796 61.8664 22.796C59.9552 22.796 58.4206 22.1736 58.2384 20.2552C58.2295 20.158 58.2108 19.7693 58.2163 19.5804V12.209H60.8418V19.8129C60.8418 19.9462 60.8462 20.0957 60.8661 20.206C60.9224 20.4583 61.141 20.9518 61.8675 20.9518Z" fill="white"/>
<path d="M83.5429 20.8436C84.2959 20.8436 84.5587 20.373 84.6073 20.0989C84.6261 19.981 84.6316 19.838 84.6305 19.708V18.2165H83.5639V16.7162H87.2483V19.4744C87.246 19.6665 87.2416 19.8085 87.2107 20.1513C87.0374 22.0206 85.3978 22.6878 83.5562 22.6878C81.7113 22.6878 80.0739 22.0206 79.8984 20.1513C79.8685 19.8085 79.8641 19.6665 79.8608 19.4744L79.863 15.1472C79.863 14.9649 79.8862 14.6417 79.9061 14.4702C80.1368 12.5496 81.7113 11.9316 83.5562 11.9316C85.3989 11.9316 87.012 12.5463 87.203 14.4702C87.2372 14.7978 87.2262 15.1472 87.2262 15.1472V15.4901H84.6062V14.9146C84.6084 14.9157 84.6029 14.67 84.5719 14.5237C84.5278 14.2966 84.3279 13.7747 83.5363 13.7747C82.7789 13.7747 82.557 14.2682 82.5018 14.5237C82.4698 14.6591 82.4576 14.8426 82.4576 15.0085V19.708C82.4554 19.838 82.4631 19.981 82.4841 20.0989C82.5294 20.3741 82.7911 20.8436 83.5429 20.8436Z" fill="white"/>
</g>
</g>
<defs>
<clipPath id="clip0_2_1001">
<rect width="101" height="34" fill="white" transform="translate(0.203125 0.40625)"/>
</clipPath>
</defs>
</svg>
