<svg width="49" height="49" viewBox="0 0 49 49" fill="none" xmlns="http://www.w3.org/2000/svg">
<g clip-path="url(#clip0_2_968)">
<mask id="mask0_2_968" style="mask-type:luminance" maskUnits="userSpaceOnUse" x="0" y="0" width="49" height="49">
<path d="M48.3125 0.40625H0.3125V48.4062H48.3125V0.40625Z" fill="white"/>
</mask>
<g mask="url(#mask0_2_968)">
<path d="M24.3125 48.4062C37.5673 48.4062 48.3125 37.661 48.3125 24.4062C48.3125 11.1515 37.5673 0.40625 24.3125 0.40625C11.0577 0.40625 0.3125 11.1515 0.3125 24.4062C0.3125 37.661 11.0577 48.4062 24.3125 48.4062Z" fill="#6A6F73"/>
<path d="M6.68583 24.3992C6.68583 13.4058 13.6258 4.03245 23.3658 0.425781C10.5525 0.925781 0.3125 11.4658 0.3125 24.4058C0.3125 37.3591 10.5725 47.9124 23.4058 48.3857C13.6525 44.7858 6.68583 35.4058 6.68583 24.3992Z" fill="#6A6F73"/>
<mask id="mask1_2_968" style="mask-type:luminance" maskUnits="userSpaceOnUse" x="0" y="0" width="24" height="49">
<path d="M6.68583 24.3992C6.68583 13.4058 13.6258 4.03245 23.3658 0.425781C10.5525 0.925781 0.3125 11.4658 0.3125 24.4058C0.3125 37.3591 10.5725 47.9124 23.4058 48.3857C13.6525 44.7858 6.68583 35.4058 6.68583 24.3992Z" fill="url(#paint0_radial_2_968)"/>
</mask>
<g mask="url(#mask1_2_968)">
<path d="M6.68583 24.3992C6.68583 13.4058 13.6258 4.03245 23.3658 0.425781C10.5525 0.925781 0.3125 11.4658 0.3125 24.4058C0.3125 37.3591 10.5725 47.9124 23.4058 48.3857C13.6525 44.7858 6.68583 35.4058 6.68583 24.3992Z" fill="#3E4143"/>
</g>
<path d="M23.9059 22.1222C25.4993 18.1955 22.5193 17.1289 20.5793 17.1289H14.1526C14.6859 17.4955 14.5993 17.9822 14.4926 18.2822L10.7459 30.2489C10.5993 30.7222 10.0393 31.2222 9.73926 31.2955H14.9393C14.6526 31.2422 14.2459 30.8355 14.3926 30.2822L15.7526 25.9555C15.7593 25.9555 22.0126 26.8022 23.9059 22.1222ZM18.8526 18.2289C19.5326 18.2289 21.4193 18.3222 20.1993 21.8889C18.9259 25.6355 16.0993 24.8622 16.0993 24.8622L18.1793 18.2289H18.8526Z" fill="white"/>
<path d="M28.0658 31.3013H31.5658C30.4458 30.9413 28.7924 29.8813 28.1324 29.128C28.6658 28.548 29.3258 27.8147 29.4458 26.328H27.6324C27.6324 26.328 27.9791 26.528 27.9791 26.9547C27.9791 27.348 27.8191 27.8947 27.5124 28.2747C26.9791 27.488 26.4124 26.588 26.2124 25.268C26.9258 24.9147 27.9258 24.528 28.7191 23.8347C29.4724 23.1747 29.6458 22.548 29.6591 22.1413V22.088C29.6591 21.6613 29.4924 21.2613 29.1858 20.9613C28.6591 20.4413 27.8324 20.228 26.9591 20.388C26.2591 20.5213 25.6658 20.8947 25.3658 21.168C24.3124 22.1613 24.1791 23.7947 24.1791 24.5347C24.1791 24.7147 24.1858 24.848 24.1924 24.928C24.1324 24.9547 24.0258 24.9947 24.0258 24.9947C23.2524 25.2813 21.1924 25.828 20.4591 27.5213C20.3658 27.7347 20.2324 28.2013 20.2324 28.7413C20.2324 29.208 20.3324 29.728 20.6324 30.2013C21.1524 31.0147 22.0324 31.528 23.4458 31.5013C24.9791 31.4747 26.4924 30.428 26.7591 30.2347C27.0191 30.4813 27.7058 31.128 28.0658 31.3013ZM28.0658 21.8347C27.8858 22.9747 26.4058 24.128 26.0458 24.2813C25.9791 23.6413 26.0124 22.628 26.5458 21.8013C26.8991 21.2547 27.3724 21.0147 27.7524 21.148C28.0591 21.2547 28.0924 21.5347 28.0658 21.8347ZM26.0124 29.4613C25.8058 29.588 24.9924 30.0013 24.2324 30.0747C23.5258 30.1413 22.3524 29.868 22.3591 28.4547C22.3591 27.248 23.6724 26.3613 24.3858 26.0547C24.6724 27.2213 25.3191 28.5413 26.0124 29.4613Z" fill="white"/>
<path d="M38.6991 18.2409C40.7791 17.7409 42.4925 19.3676 42.6458 19.4809L43.2391 17.5943C42.4191 17.3476 36.4525 15.3276 32.2325 20.1409C29.6391 23.1009 29.0058 29.1676 32.2925 30.7943C35.8125 32.5343 39.6991 30.5276 39.9858 30.3876L41.5925 25.2676C41.7658 24.6476 42.1591 24.2476 42.8525 23.9876H37.2658C38.0791 24.3276 38.0191 24.9409 37.9591 25.1943L36.3525 30.3143C36.1391 30.3543 31.6458 31.4743 34.1591 23.6143C34.7125 21.9276 36.2258 18.8343 38.6991 18.2409Z" fill="white"/>
</g>
</g>
<defs>
<radialGradient id="paint0_radial_2_968" cx="0" cy="0" r="1" gradientUnits="userSpaceOnUse" gradientTransform="translate(20.4451 23.6743) rotate(-88.2324) scale(25.8488 26.3042)">
<stop offset="0.1" stop-color="white"/>
<stop offset="0.35" stop-color="#FDFDFD"/>
<stop offset="0.45" stop-color="#F6F6F6"/>
<stop offset="0.51" stop-color="#EAEAEA"/>
<stop offset="0.57" stop-color="#D9D9D9"/>
<stop offset="0.62" stop-color="#C3C3C3"/>
<stop offset="0.66" stop-color="#A7A7A7"/>
<stop offset="0.7" stop-color="#868686"/>
<stop offset="0.73" stop-color="#606060"/>
<stop offset="0.77" stop-color="#353535"/>
<stop offset="0.8"/>
</radialGradient>
<clipPath id="clip0_2_968">
<rect width="48" height="48" fill="white" transform="translate(0.3125 0.40625)"/>
</clipPath>
</defs>
</svg>
