<svg width="56" height="49" viewBox="0 0 56 49" fill="none" xmlns="http://www.w3.org/2000/svg">
<g clip-path="url(#clip0_2_916)">
<mask id="mask0_2_916" style="mask-type:luminance" maskUnits="userSpaceOnUse" x="0" y="0" width="56" height="49">
<path d="M55.1593 0.40625H0.421875V48.4062H55.1593V0.40625Z" fill="white"/>
</mask>
<g mask="url(#mask0_2_916)">
<path d="M35.4966 10.6148L18.1183 16.3979C16.4701 16.9473 15.5738 18.7401 16.1231 20.3883C16.6725 22.0365 18.4653 22.9328 20.1135 22.3834L37.4918 16.6003C39.14 16.0509 40.0364 14.2581 39.487 12.61C38.9376 10.9618 37.1448 10.0654 35.4966 10.6148Z" fill="#6A6F73"/>
<path d="M35.4966 0.579666L18.1183 6.3628C16.4701 6.9122 15.5738 8.70497 16.1231 10.3532C16.6725 12.0014 18.4653 12.8977 20.1135 12.3483L37.4918 6.56521C39.14 6.01581 40.0364 4.22304 39.487 2.57485C38.9376 0.926654 37.1448 0.030268 35.4966 0.579666Z" fill="#6A6F73"/>
<path d="M35.4967 20.6461L18.0895 26.4293C16.4413 26.9787 15.5449 28.7714 16.0943 30.4196C16.6437 32.0678 18.4365 32.9642 20.0847 32.4148L37.463 26.6317C39.1112 26.0823 40.0076 24.2895 39.4582 22.6413C38.9377 20.9931 37.1449 20.0967 35.4967 20.6461Z" fill="#6A6F73"/>
<path d="M2.53272 45.1391H6.23392V43.462H2.53272V42.0451H6.37851V40.4258H0.421875V48.2331H6.43634V46.5849H2.53272V45.1391Z" fill="#6A6F73"/>
<path d="M17.771 40.4258H15.6602V48.2331H17.771V40.4258Z" fill="#6A6F73"/>
<path d="M20.9809 44.2714C21.0387 41.669 23.6411 41.3509 25.3761 42.334L25.5206 40.6569C22.5423 39.5292 18.8122 40.5413 18.8122 44.2425C18.7833 48.0304 22.4845 49.0136 25.5496 48.0304L25.4339 46.3244C23.699 47.2497 20.952 46.8738 20.9809 44.2714Z" fill="#6A6F73"/>
<path d="M28.5281 42.4792C28.5281 41.5539 30.5522 41.5829 31.6221 42.1612L31.7666 40.5419C29.1931 39.7612 26.3594 40.3684 26.3594 42.6527C26.3594 45.4286 30.0028 44.7347 30.0028 45.978C30.0028 47.1058 28.0076 46.9612 26.6196 46.325L26.4751 48.06C28.7016 48.725 32.1425 48.6961 32.1425 45.8046C32.1425 42.8841 28.5281 43.8672 28.5281 42.4792Z" fill="#6A6F73"/>
<path d="M34.947 42.4792C34.947 41.5539 36.9711 41.5829 38.041 42.1612L38.1856 40.5419C35.6121 39.7612 32.7783 40.3684 32.7783 42.6527C32.7783 45.4286 36.4217 44.7347 36.4217 45.978C36.4217 47.1058 34.4265 46.9612 33.0386 46.325L32.8651 48.06C35.0916 48.725 38.5615 48.6961 38.5615 45.8046C38.5615 42.8841 34.947 43.8672 34.947 42.4792Z" fill="#6A6F73"/>
<path d="M53.2222 40.4258V45.4572L50.6487 40.4258H47.9595V48.2331H49.9258V43.0861L52.6149 48.2331H55.1595V40.4258H53.2222Z" fill="#6A6F73"/>
<path d="M43.0436 40.2227C40.846 40.2227 39.1689 41.5239 39.1689 44.3287C39.1689 47.0468 40.846 48.4058 43.0436 48.4058C45.2412 48.4058 46.9183 47.0179 46.9183 44.3287C46.9472 41.5239 45.2701 40.2227 43.0436 40.2227ZM43.0436 46.8733C41.858 46.8733 41.3375 45.5143 41.3375 44.3287C41.3375 43.1432 41.858 41.7842 43.0436 41.7842C44.2291 41.7842 44.7496 43.2299 44.7496 44.3287C44.7496 45.5143 44.258 46.8733 43.0436 46.8733Z" fill="#6A6F73"/>
<path d="M12.8845 44.3873C13.7809 44.127 14.2436 43.5487 14.2436 42.5078C14.2436 40.8885 12.7978 40.4258 11.7568 40.4258H7.93994V48.2331H10.0219V45.2837C10.0219 45.2547 10.5424 45.2837 10.8604 45.2837C11.2364 45.2837 11.4966 45.515 11.6412 45.8909L12.4508 48.2331H14.7062C14.7062 48.2331 13.6074 45.1969 13.6074 45.168C13.3761 44.5897 12.9135 44.3873 12.8845 44.3873ZM11.1207 43.6933H9.96403V41.9584H11.1496C11.699 41.9584 12.1038 42.3054 12.1038 42.8258C12.1327 43.4041 11.6412 43.7222 11.1207 43.6933Z" fill="#6A6F73"/>
</g>
</g>
<defs>
<clipPath id="clip0_2_916">
<rect width="55" height="48" fill="white" transform="translate(0.421875 0.40625)"/>
</clipPath>
</defs>
</svg>
