<svg width="88" height="41" viewBox="0 0 88 41" fill="none" xmlns="http://www.w3.org/2000/svg">
<g clip-path="url(#clip0_2_986)">
<path d="M79.5094 32.2938C79.5094 36.6208 76.1122 39.91 71.6604 39.9072C67.2086 39.9044 63.8311 36.6068 63.8339 32.2686C63.8367 27.9305 67.2396 24.644 71.6829 24.6524C76.1262 24.6608 79.515 27.9695 79.5094 32.2938ZM75.5385 32.2938C75.5302 31.5373 75.2967 30.8001 74.8675 30.1749C74.4382 29.5496 73.8323 29.0641 73.1259 28.7793C72.4194 28.4945 71.6438 28.4231 70.8966 28.5741C70.1494 28.7251 69.4638 29.0918 68.9259 29.6281C68.3881 30.1643 68.0219 30.8463 67.8735 31.5883C67.725 32.3304 67.8009 33.0994 68.0915 33.7988C68.3822 34.4982 68.8746 35.0968 69.5071 35.5194C70.1395 35.9421 70.8838 36.17 71.6463 36.1744C72.1612 36.1843 72.6727 36.0908 73.1502 35.8996C73.6276 35.7084 74.0612 35.4233 74.4248 35.0616C74.7883 34.6999 75.0744 34.269 75.2658 33.7947C75.4572 33.3205 75.55 32.8128 75.5385 32.3021V32.2938Z" fill="#6A6F73"/>
<path d="M34.7323 37.8243C34.7323 37.3779 34.7492 36.9315 34.7323 36.4935C34.7155 36.1866 34.783 36.1197 35.0951 36.2145C36.3179 36.5623 37.5905 36.7056 38.8607 36.6386C39.3466 36.6255 39.8248 36.5155 40.2668 36.315C41.1667 35.8742 41.2455 34.9201 40.4384 34.3398C39.9867 34.0502 39.4897 33.8371 38.9676 33.7093C38.029 33.4515 37.1377 33.0475 36.3269 32.5124C33.914 30.819 34.2543 26.9328 36.7487 25.5016C37.8307 24.9096 39.0545 24.6203 40.2893 24.6646C41.3984 24.6867 42.5025 24.8185 43.5853 25.058C43.8103 25.1054 43.889 25.1891 43.8834 25.4291C43.8665 26.2827 43.8693 27.1392 43.8834 27.9957C43.8834 28.2189 43.8384 28.2747 43.6021 28.2133C42.5959 27.9353 41.5526 27.812 40.5087 27.8478C40.0361 27.8586 39.5731 27.982 39.1588 28.2077C39.0106 28.2785 38.8835 28.3862 38.7899 28.5203C38.6962 28.6544 38.6392 28.8103 38.6245 28.9728C38.6098 29.1353 38.6378 29.2988 38.7058 29.4473C38.7738 29.5959 38.8795 29.7244 39.0126 29.8202C39.3596 30.0826 39.7566 30.2724 40.1796 30.3782C40.9337 30.5844 41.6707 30.8475 42.3844 31.1649C43.9593 31.9656 44.9155 33.1876 44.9155 34.9814C44.9155 36.8534 44.0943 38.2651 42.3844 39.1299C41.3766 39.6193 40.2723 39.8822 39.1504 39.8999C37.7608 39.9253 36.3722 39.8131 35.0051 39.5651C34.7801 39.5316 34.7239 39.4479 34.7239 39.2303C34.7436 38.7589 34.7323 38.2902 34.7323 37.8243Z" fill="#6A6F73"/>
<path d="M59.8801 29.1283C58.816 28.5812 57.6272 28.317 56.4295 28.3612C55.3853 28.3371 54.3742 28.7255 53.6187 29.441C52.8632 30.1564 52.4252 31.1404 52.4009 32.1763C52.3767 33.2122 52.7683 34.2151 53.4895 34.9646C54.2107 35.7141 55.2025 36.1486 56.2467 36.1726C57.4129 36.2621 58.5823 36.0466 59.6383 35.5477C59.672 35.5211 59.7108 35.5016 59.7524 35.4901C59.7939 35.4786 59.8373 35.4754 59.8801 35.4808V38.5663C59.8801 39.4032 59.8801 39.4032 59.0364 39.5902C56.9554 40.0672 54.8968 40.0644 52.9282 39.1522C50.1722 37.8744 48.7099 35.6872 48.5693 32.6797C48.4399 30.021 49.3792 27.8003 51.5587 26.1794C53.0942 25.0356 54.8659 24.6061 56.767 24.6563C57.73 24.6845 58.6854 24.8344 59.6101 25.1026C59.7479 25.1416 59.8773 25.1613 59.8773 25.3817C59.8745 26.6064 59.8801 27.845 59.8801 29.1283Z" fill="#6A6F73"/>
<path d="M20.7639 29.13C19.7 28.5797 18.5094 28.3152 17.3105 28.3628C16.2663 28.3406 15.256 28.7308 14.5018 29.4475C13.7476 30.1643 13.3114 31.149 13.289 32.1848C13.2666 33.2207 13.66 34.223 14.3825 34.9711C15.105 35.7193 16.0976 36.1521 17.1418 36.1743C18.376 36.2647 19.6116 36.0166 20.7133 35.4573C20.8005 35.5521 20.7611 35.6554 20.7611 35.7363C20.7611 36.8522 20.7611 37.9375 20.7611 39.0366C20.7611 39.2682 20.7133 39.3826 20.4602 39.4523C18.2104 40.0438 15.9831 40.1358 13.8233 39.1454C11.0111 37.8565 9.58242 35.6247 9.45586 32.5782C9.35181 30.1287 10.1899 28.0447 12.0938 26.4406C13.296 25.4419 14.7783 24.8333 16.3403 24.6969C17.7256 24.5609 19.1244 24.6906 20.4602 25.0791C20.6739 25.1377 20.7639 25.2158 20.7611 25.4585C20.7555 26.6889 20.7639 27.8745 20.7639 29.13Z" fill="#6A6F73"/>
<path d="M25.9249 12.5715V22.1684C25.9249 23.1588 25.3456 23.9177 24.4625 24.1017C24.1937 24.1602 23.9151 24.159 23.6468 24.0982C23.3784 24.0374 23.127 23.9186 22.9104 23.75C22.6938 23.5815 22.5174 23.3676 22.3939 23.1236C22.2703 22.8797 22.2027 22.6115 22.1959 22.3386V2.94372C22.1959 2.20162 22.4405 1.59065 23.0958 1.1945C23.3739 1.01282 23.6982 0.912999 24.0312 0.90658C24.3641 0.900162 24.6921 0.987411 24.9772 1.15823C25.2795 1.31953 25.5299 1.56215 25.6995 1.85825C25.8691 2.15434 25.9512 2.49188 25.9361 2.83213C25.9361 5.54384 25.9361 8.25462 25.9361 10.9644C25.9249 11.5084 25.9249 12.0414 25.9249 12.5715Z" fill="#6A6F73"/>
<path d="M63.0801 12.53V2.86316C63.0801 1.85045 63.6679 1.11952 64.5987 0.954917C65.0801 0.865911 65.5774 0.969789 65.9817 1.24379C66.386 1.5178 66.6643 1.9396 66.7557 2.41679C66.773 2.5089 66.7833 2.60215 66.7867 2.69577V22.0963C66.8086 22.5082 66.711 22.9177 66.5054 23.2764C66.2928 23.6133 65.9763 23.8733 65.6029 24.0175C65.2295 24.1618 64.8191 24.1826 64.4328 24.077C64.0398 23.9704 63.6938 23.7372 63.4494 23.4137C63.205 23.0905 63.076 22.6957 63.0829 22.2915C63.0829 19.6245 63.0829 16.9601 63.0829 14.293C63.0801 13.7072 63.0801 13.1186 63.0801 12.53Z" fill="#6A6F73"/>
<path d="M29.6765 32.2691C29.6765 34.6126 29.6765 36.956 29.6765 39.2995C29.6765 39.5785 29.595 39.6482 29.3222 39.6426C28.2816 39.6287 27.2383 39.6426 26.1978 39.6426C25.9812 39.6426 25.9166 39.5924 25.9166 39.3636C25.9166 34.6395 25.9166 29.9173 25.9166 25.1969C25.9166 24.9653 25.9784 24.8984 26.2147 24.8984C27.2467 24.8984 28.276 24.9151 29.3081 24.8984C29.5893 24.8984 29.6821 24.9653 29.6821 25.2639C29.6709 27.6073 29.6765 29.9396 29.6765 32.2691Z" fill="#6A6F73"/>
<path d="M77.0064 14.1762C77.0064 15.6771 77.0064 17.1751 77.0064 18.6734C77.0046 19.1195 76.8401 19.5499 76.5433 19.8851C76.2464 20.2202 75.8374 20.4374 75.3916 20.4966C74.9459 20.5558 74.4936 20.4529 74.1184 20.207C73.7432 19.9611 73.4704 19.5888 73.3504 19.1588C73.2948 18.9779 73.2654 18.79 73.2633 18.6008C73.2633 15.6455 73.2633 12.6911 73.2633 9.73751C73.2457 9.37825 73.3396 9.0223 73.5322 8.71754C73.7247 8.41279 74.0068 8.17387 74.3403 8.03292C74.6275 7.89923 74.9442 7.84031 75.2607 7.86171C75.5772 7.88312 75.8829 7.98415 76.1492 8.15527C76.4154 8.32639 76.6332 8.56197 76.7822 8.83978C76.9312 9.11758 77.0064 9.42846 77.0007 9.74309V14.1762H77.0064Z" fill="#6A6F73"/>
<path d="M11.9649 14.1534C11.9649 12.6776 11.9649 11.199 11.9649 9.72308C11.9607 9.32285 12.0878 8.93212 12.3269 8.60973C12.5661 8.28734 12.9043 8.05074 13.2907 7.93555C13.6771 7.82036 14.0908 7.83283 14.4694 7.97106C14.8481 8.10929 15.1712 8.36582 15.3902 8.70201C15.5922 9.01281 15.6978 9.37561 15.6939 9.7454C15.6939 12.6887 15.6939 15.632 15.6939 18.5781C15.6909 19.0686 15.4916 19.5379 15.1398 19.8827C14.7881 20.2275 14.3126 20.4195 13.8181 20.4165C13.3236 20.4136 12.8506 20.2159 12.503 19.8669C12.1554 19.5179 11.9619 19.0463 11.9649 18.5557C11.9592 17.0883 11.9649 15.6208 11.9649 14.1534Z" fill="#6A6F73"/>
<path d="M32.3928 14.1707C32.3928 12.6921 32.3928 11.2135 32.3928 9.73762C32.3873 9.38532 32.4834 9.0388 32.6697 8.73882C32.856 8.43884 33.1248 8.19789 33.4444 8.04432C33.7641 7.89075 34.1213 7.83094 34.4741 7.87194C34.8268 7.91294 35.1605 8.05304 35.4357 8.27575C35.6557 8.44156 35.8331 8.65664 35.9533 8.90344C36.0735 9.15023 36.1332 9.42173 36.1275 9.69577C36.1275 12.6716 36.1275 15.6474 36.1275 18.6233C36.1297 18.8651 36.0839 19.1049 35.9927 19.3292C35.9014 19.5534 35.7666 19.7577 35.5958 19.9302C35.425 20.1026 35.2216 20.2402 34.9973 20.3348C34.7729 20.4292 34.532 20.4791 34.2883 20.4813H34.2714C34.0205 20.4818 33.7721 20.4323 33.5408 20.3358C33.3095 20.2394 33.1001 20.0977 32.925 19.9197C32.7498 19.7415 32.6125 19.5302 32.5211 19.2985C32.4297 19.0667 32.3861 18.8191 32.3928 18.5703C32.3928 17.1028 32.3928 15.6354 32.3928 14.1707Z" fill="#6A6F73"/>
<path d="M56.5783 14.1884C56.5783 15.653 56.5783 17.1205 56.5783 18.5852C56.5901 18.9313 56.5008 19.2734 56.3212 19.5704C56.1416 19.8674 55.8793 20.1065 55.5658 20.2591C55.2749 20.4194 54.9438 20.4941 54.6116 20.4743C54.2793 20.4546 53.9596 20.3412 53.6901 20.1475C53.077 19.7429 52.8464 19.1431 52.8464 18.4261C52.8464 15.9153 52.8464 13.4044 52.8464 10.8936C52.8464 10.4723 52.8295 10.0567 52.8464 9.62985C52.8617 9.14225 53.0716 8.68065 53.43 8.34659C53.7884 8.01253 54.2658 7.83338 54.7573 7.84855C55.2488 7.86371 55.7142 8.07196 56.0509 8.42747C56.3876 8.78298 56.5682 9.25664 56.5529 9.74423C56.5783 11.234 56.5783 12.7126 56.5783 14.1884Z" fill="#6A6F73"/>
<path d="M1.73961 16.707V14.8434C1.73684 14.6005 1.78233 14.3594 1.87347 14.134C1.96461 13.9085 2.09963 13.7031 2.2708 13.5294C2.44198 13.3557 2.64597 13.2171 2.87112 13.1216C3.09628 13.0261 3.33819 12.9756 3.58304 12.9728C3.82789 12.9701 4.07089 13.0152 4.29816 13.1056C4.52544 13.196 4.73253 13.33 4.90763 13.4998C5.08272 13.6696 5.22239 13.872 5.31865 14.0953C5.41491 14.3187 5.46588 14.5587 5.46865 14.8016C5.48739 16.0663 5.48739 17.331 5.46865 18.5957C5.47312 18.8411 5.4284 19.0849 5.33709 19.313C5.24578 19.5411 5.1097 19.7489 4.93675 19.9243C4.7638 20.0998 4.55743 20.2394 4.32963 20.3351C4.10183 20.4308 3.85713 20.4806 3.60975 20.4817C3.36026 20.4795 3.11369 20.4283 2.88428 20.3309C2.65488 20.2336 2.44721 20.0921 2.27329 19.9147C2.09937 19.7372 1.96265 19.5273 1.87105 19.2971C1.77944 19.0668 1.73477 18.8209 1.73961 18.5734C1.73961 17.9513 1.73961 17.3291 1.73961 16.707Z" fill="#6A6F73"/>
<path d="M46.3417 16.7131C46.3417 17.3464 46.3558 17.9797 46.3417 18.6102C46.3462 19.0528 46.1898 19.4822 45.9011 19.8198C45.6124 20.1573 45.2108 20.3804 44.7699 20.4482C44.3289 20.516 43.8781 20.4239 43.5 20.1888C43.1219 19.9537 42.8419 19.5914 42.7111 19.1681C42.6513 18.9652 42.6219 18.7546 42.6239 18.5432C42.6239 17.2989 42.6239 16.0547 42.6239 14.8104C42.6159 14.3959 42.749 13.9908 43.0019 13.6607C43.2548 13.3306 43.6125 13.0949 44.0173 12.9916C44.422 12.8883 44.85 12.9236 45.2321 13.0916C45.6141 13.2597 45.9278 13.5507 46.1224 13.9177C46.2746 14.2156 46.3499 14.5463 46.3417 14.8802C46.3445 15.4911 46.3417 16.1021 46.3417 16.7131Z" fill="#6A6F73"/>
<path d="M87.232 16.7191C87.232 17.3635 87.2489 18.008 87.232 18.6524C87.2454 19.1076 87.088 19.5514 86.7905 19.898C86.4929 20.2447 86.0762 20.4694 85.6212 20.5288C85.1662 20.5882 84.7051 20.478 84.3273 20.2195C83.9495 19.961 83.6818 19.5726 83.5761 19.1295C83.523 18.9255 83.4974 18.7153 83.5001 18.5046C83.5001 17.305 83.5001 16.1025 83.5001 14.9029C83.5001 13.8567 84.1245 13.1035 85.0694 12.95C85.3347 12.9067 85.6064 12.9217 85.8653 12.994C86.1242 13.0663 86.3639 13.1941 86.5675 13.3684C86.7711 13.5427 86.9336 13.7592 87.0436 14.0027C87.1535 14.2462 87.2083 14.5106 87.2039 14.7774C87.232 15.4302 87.232 16.0858 87.232 16.7191Z" fill="#6A6F73"/>
</g>
<defs>
<clipPath id="clip0_2_986">
<rect width="87" height="40" fill="white" transform="translate(0.90625 0.40625)"/>
</clipPath>
</defs>
</svg>
