<svg width="95" height="41" viewBox="0 0 95 41" fill="none" xmlns="http://www.w3.org/2000/svg">
<g clip-path="url(#clip0_2_938)">
<mask id="mask0_2_938" style="mask-type:luminance" maskUnits="userSpaceOnUse" x="0" y="0" width="94" height="40">
<path d="M93.7061 0.90625H0.706055V39.9062H93.7061V0.90625Z" fill="white"/>
</mask>
<g mask="url(#mask0_2_938)">
<path d="M30.584 8.11124H2.74223V2.93018H30.584V8.11124ZM32.5733 0.929688H0.751953V10.1067H32.5733V0.929688Z" fill="#6A6F73"/>
<path d="M2.74207 25.2792H0.75293V16.0997H2.74207V19.726H6.29606V16.0997H8.28521V25.2792H6.29606V21.4764H2.74207V25.2792Z" fill="#6A6F73"/>
<path d="M11.317 21.2284H13.6863C13.6422 20.5535 13.3648 20.0831 12.5893 20.0831C12.0042 20.0831 11.4923 20.3332 11.317 21.2284ZM12.8232 25.3984C10.8051 25.3984 9.43066 24.1209 9.43066 22.0222C9.43066 19.9806 10.7761 18.5714 12.5603 18.5714C14.5053 18.5714 15.4706 19.878 15.4706 21.831V22.5654H11.317C11.5516 23.5777 12.3409 23.8417 13.1309 23.8417C13.8181 23.8417 14.3149 23.6954 14.929 23.3131H15.0028V24.8255C14.4763 25.2078 13.7298 25.3984 12.8232 25.3984Z" fill="#6A6F73"/>
<path d="M20.6477 21.4309L19.6238 25.2774H17.8837L15.8945 18.8201V18.7466H17.796L18.8779 22.6084L19.9018 18.7466H21.4521L22.4905 22.6084L23.5876 18.7466H25.4159V18.8201L23.4268 25.2774H21.686L20.6477 21.4309Z" fill="#6A6F73"/>
<path d="M28.6167 25.3809C27.0373 25.3809 26.3936 24.7497 26.3936 23.2671V16.0564H28.3241V23.1341C28.3241 23.5893 28.4994 23.7508 28.8796 23.7508C29.0114 23.7508 29.2018 23.7071 29.3184 23.6628H29.348V25.2632C29.1873 25.3214 28.9092 25.3809 28.6167 25.3809Z" fill="#6A6F73"/>
<path d="M31.7946 21.2284H34.1639C34.1198 20.5535 33.8423 20.0831 33.0669 20.0831C32.4824 20.0831 31.9698 20.3332 31.7946 21.2284ZM33.3008 25.3984C31.2826 25.3984 29.9082 24.1209 29.9082 22.0222C29.9082 19.9806 31.2536 18.5714 33.0379 18.5714C34.9829 18.5714 35.9481 19.878 35.9481 21.831V22.5654H31.7946C32.0285 23.5777 32.8185 23.8417 33.6078 23.8417C34.2957 23.8417 34.7925 23.6954 35.4072 23.3131H35.4803V24.8255C34.9539 25.2078 34.208 25.3984 33.3008 25.3984Z" fill="#6A6F73"/>
<path d="M43.8997 18.7456H45.3328V20.3017H43.8997V22.9593C43.8997 23.5322 44.1191 23.7968 44.7042 23.7968C44.865 23.7968 45.0699 23.7816 45.2893 23.7082H45.3328V25.2352C45.0844 25.3238 44.7042 25.4257 44.1488 25.4257C42.5833 25.4257 41.9692 24.7066 41.9692 23.0473V20.3017H39.4977V22.9593C39.4977 23.5322 39.7171 23.7968 40.3016 23.7968C40.463 23.7968 40.6679 23.7816 40.8873 23.7082H40.9308V25.2352C40.6824 25.3238 40.3016 25.4257 39.7468 25.4257C38.1813 25.4257 37.5672 24.7066 37.5672 23.0473V20.3017H36.5723V18.7456H37.5672V16.9546H39.4977V18.7456H41.9692V16.9546H43.8997V18.7456Z" fill="#6A6F73"/>
<path d="M51.8185 20.5693C52.8285 20.5693 53.3102 19.997 53.3102 19.1747C53.3102 18.3226 52.8285 17.7503 51.8185 17.7503H50.5607V20.5693H51.8185ZM55.329 19.1747C55.329 21.172 53.9981 22.2577 51.9793 22.2577H50.5607V25.2382H48.5728V16.0587H51.9793C53.9981 16.0587 55.329 17.1451 55.329 19.1715" fill="#6A6F73"/>
<path d="M59.5857 23.2037V22.6459C59.2932 22.4851 58.9136 22.4263 58.5183 22.4263C57.8897 22.4263 57.5095 22.6605 57.5095 23.1891C57.5095 23.7329 57.8897 23.9678 58.4597 23.9678C59.0006 23.9678 59.4104 23.6886 59.5857 23.2037ZM59.6443 24.6135C59.22 25.1276 58.5921 25.377 57.9181 25.377C56.6464 25.377 55.6074 24.5996 55.6074 23.2182C55.6074 21.9413 56.6464 21.0898 58.1375 21.0898C58.6053 21.0898 59.0889 21.1633 59.5857 21.3095V21.193C59.5857 20.4878 59.191 20.1801 58.1533 20.1801C57.4944 20.1801 56.8658 20.37 56.3242 20.679H56.2517V19.1223C56.7486 18.8292 57.6268 18.5791 58.4887 18.5791C60.4488 18.5791 61.5162 19.5186 61.5162 21.1633V25.2593H59.6443V24.6135Z" fill="#6A6F73"/>
<path d="M62.4609 21.9887C62.4609 19.8888 63.9387 18.5675 65.8693 18.5675C66.5565 18.5675 67.1996 18.7144 67.6825 19.0664V20.7257H67.6087C67.1844 20.4028 66.6876 20.2116 66.1177 20.2116C65.1524 20.2116 64.4211 20.8732 64.4211 21.9887C64.4211 23.1041 65.1524 23.7505 66.1177 23.7505C66.6876 23.7505 67.1844 23.5593 67.6087 23.2358H67.6825V24.8951C67.1996 25.2477 66.5565 25.3946 65.8693 25.3946C63.9387 25.3946 62.4609 24.0886 62.4609 21.9887Z" fill="#6A6F73"/>
<path d="M70.8337 22.2925V25.2578H68.9038V16.0782H70.8337V21.3049L72.7793 18.7207H74.9727V18.7941L72.633 21.76L74.9727 25.1812V25.2546H72.7642L70.8337 22.2893" fill="#6A6F73"/>
<path d="M79.3067 23.2037V22.6459C79.0148 22.4851 78.634 22.4263 78.2393 22.4263C77.6108 22.4263 77.2306 22.6605 77.2306 23.1891C77.2306 23.7329 77.6108 23.9678 78.1801 23.9678C78.7223 23.9678 79.1315 23.6886 79.3067 23.2037ZM79.3654 24.6135C78.9411 25.1276 78.3119 25.377 77.6398 25.377C76.3668 25.377 75.3291 24.5996 75.3291 23.2182C75.3291 21.9413 76.3668 21.0898 77.8598 21.0898C78.3276 21.0898 78.8093 21.1633 79.3067 21.3095V21.193C79.3067 20.4878 78.9121 20.1801 77.8737 20.1801C77.2161 20.1801 76.5862 20.37 76.0453 20.679H75.9722V19.1223C76.4696 18.8292 77.3472 18.5791 78.2097 18.5791C80.1705 18.5791 81.2379 19.5186 81.2379 21.1633V25.2593H79.3654V24.6135Z" fill="#6A6F73"/>
<path d="M84.5023 19.7596C84.8529 19.0398 85.3654 18.6289 86.0823 18.6289C86.3452 18.6289 86.6081 18.6878 86.7096 18.7467V20.5965H86.6371C86.4177 20.5079 86.1548 20.4496 85.7891 20.4496C85.1895 20.4496 84.7217 20.8023 84.5603 21.4771V25.2363H82.6304V18.703H84.5023V19.7596Z" fill="#6A6F73"/>
<path d="M91.8158 23.0522V20.9523C91.4943 20.4825 91.0706 20.2774 90.587 20.2774C89.7397 20.2774 89.1691 20.8947 89.1691 22.0101C89.1691 23.1256 89.7397 23.7277 90.587 23.7277C91.0706 23.7277 91.4943 23.5219 91.8158 23.0522ZM91.8738 24.5943C91.4647 25.123 90.8209 25.4161 89.944 25.4161C88.2764 25.4161 87.209 23.8897 87.209 22.0101C87.209 20.1306 88.2764 18.589 89.944 18.589C90.7919 18.589 91.406 18.8537 91.8158 19.338V16.0935H93.7464V25.2667H91.8738V24.5918" fill="#6A6F73"/>
<path d="M0.774902 28.2677H6.42018V29.3832H2.04721V32.187H6.01037V33.274H2.04721V36.3279H6.42018V37.4434H0.774902V28.2702" fill="#6A6F73"/>
<path d="M11.0641 30.8512C12.5116 30.8512 13.3161 31.8059 13.3161 33.3759V37.4434H12.1025V33.4057C12.1025 32.5688 11.6782 31.9667 10.757 31.9667C9.9967 31.9667 9.35299 32.4516 9.13358 33.1411V37.4434H7.91992V30.9861H9.13358V31.9256C9.51376 31.3235 10.1575 30.8538 11.0641 30.8538" fill="#6A6F73"/>
<path d="M16.562 30.9527H18.2145V31.9954H16.562V35.4747C16.562 36.2085 16.9422 36.4585 17.6294 36.4585C17.8191 36.4585 18.0241 36.4294 18.1703 36.3705H18.2145V37.4126C18.0392 37.486 17.7901 37.5449 17.4541 37.5449C15.9473 37.5449 15.3483 36.8542 15.3483 35.5925V31.9954H14.2368V30.9527H15.3483V29.2358H16.562V30.9527Z" fill="#6A6F73"/>
<path d="M20.2441 33.586H23.4469C23.4034 32.6319 22.935 31.8982 21.9407 31.8982C21.0196 31.8982 20.4194 32.5883 20.2441 33.586ZM22.1601 37.58C20.2731 37.58 18.9863 36.3171 18.9863 34.2912C18.9863 32.2648 20.1855 30.8556 21.9262 30.8556C23.6959 30.8556 24.6171 32.1331 24.6171 34.0266V34.585H20.2C20.3317 35.8916 21.1659 36.5228 22.3209 36.5228C23.0377 36.5228 23.549 36.3614 24.1196 35.9353H24.1638V37.0077C23.6373 37.4186 22.9495 37.58 22.1601 37.58Z" fill="#6A6F73"/>
<path d="M27.3054 31.9643C27.5835 31.2743 28.1982 30.8634 28.8993 30.8634C29.1779 30.8634 29.4264 30.9071 29.5285 30.966V32.1694H29.485C29.3091 32.0821 29.0165 32.0378 28.724 32.0378C28.0664 32.0378 27.5103 32.4777 27.3054 33.2121V37.4258H26.0918V30.9685H27.3054V31.9669" fill="#6A6F73"/>
<path d="M33.4087 36.473C34.6079 36.473 35.3102 35.519 35.3102 34.2117C35.3102 32.9202 34.6079 31.9516 33.4087 31.9516C32.7505 31.9516 32.1364 32.3479 31.8149 32.9785V35.4607C32.1364 36.0913 32.7505 36.473 33.4087 36.473ZM33.6136 30.8501C35.529 30.8501 36.5529 32.4214 36.5529 34.2117C36.5529 36.0039 35.529 37.5746 33.6136 37.5746C32.8236 37.5746 32.1509 37.1637 31.8149 36.7224V39.9239H30.6006V30.9849H31.8149V31.7186C32.1509 31.2635 32.8236 30.8526 33.6136 30.8526" fill="#6A6F73"/>
<path d="M39.2088 31.9643C39.4862 31.2743 40.1009 30.8634 40.8026 30.8634C41.0806 30.8634 41.329 30.9071 41.4312 30.966V32.1694H41.3877C41.2124 32.0821 40.9199 32.0378 40.6273 32.0378C39.9691 32.0378 39.4137 32.4777 39.2088 33.2121V37.4258H37.9951V30.9685H39.2088V31.9669" fill="#6A6F73"/>
<path d="M43.1935 28.3695C43.6178 28.3695 43.9684 28.7069 43.9684 29.133C43.9684 29.559 43.6178 29.8964 43.1935 29.8964C42.7843 29.8964 42.418 29.559 42.418 29.133C42.418 28.7069 42.7843 28.3695 43.1935 28.3695Z" fill="#6A6F73"/>
<path d="M42.5884 37.4351H43.8029V30.9727H42.5884V37.4351Z" fill="#6A6F73"/>
<path d="M48.1367 33.6376C49.0579 33.9307 50.0811 34.3125 50.0811 35.5457C50.0811 36.8675 48.9992 37.543 47.6103 37.543C46.7617 37.543 45.9137 37.3373 45.4307 36.9555V35.7957H45.4894C46.031 36.2946 46.8348 36.5149 47.5952 36.5149C48.2824 36.5149 48.8971 36.2503 48.8971 35.6926C48.8971 35.1203 48.3858 34.9879 47.3758 34.6505C46.4691 34.3568 45.4604 34.0187 45.4604 32.8007C45.4604 31.5523 46.4836 30.8185 47.7856 30.8185C48.5459 30.8185 49.2186 30.98 49.7596 31.3472V32.5221H49.7161C49.1903 32.0961 48.5749 31.846 47.8146 31.846C47.0542 31.846 46.6299 32.1841 46.6299 32.6393C46.6299 33.1533 47.0977 33.2995 48.1367 33.6376Z" fill="#6A6F73"/>
<path d="M52.3735 33.586H55.5757C55.5322 32.6319 55.0644 31.8982 54.0695 31.8982C53.1483 31.8982 52.5488 32.5883 52.3735 33.586ZM54.2889 37.58C52.4025 37.58 51.1157 36.3171 51.1157 34.2912C51.1157 32.2648 52.3149 30.8556 54.055 30.8556C55.8253 30.8556 56.7458 32.1331 56.7458 34.0266V34.585H52.3294C52.4611 35.8916 53.2946 36.5228 54.4496 36.5228C55.1671 36.5228 55.6784 36.3614 56.2484 35.9353H56.2925V37.0077C55.7667 37.4186 55.0789 37.58 54.2889 37.58Z" fill="#6A6F73"/>
</g>
</g>
<defs>
<clipPath id="clip0_2_938">
<rect width="94" height="40" fill="white" transform="translate(0.015625 0.40625)"/>
</clipPath>
</defs>
</svg>
