<svg width="115" height="45" viewBox="0 0 115 45" fill="none" xmlns="http://www.w3.org/2000/svg">
<g clip-path="url(#clip0_2_3999)">
<g clip-path="url(#clip1_2_3999)">
<mask id="mask0_2_3999" style="mask-type:luminance" maskUnits="userSpaceOnUse" x="5" y="7" width="106" height="31">
<path d="M111 7.30005H5V37.3H111V7.30005Z" fill="white"/>
</mask>
<g mask="url(#mask0_2_3999)">
<path d="M83.1642 30.0238C79.5445 30.0238 77.2952 27.9333 77.2952 24.5638C77.2952 21.0667 79.3708 18.891 82.7128 18.891H82.9932C83.4124 18.891 83.9896 18.9047 84.7781 19.0028V14.7817H87.1389V29.6433C87.1389 29.6433 84.8958 30.0238 83.1642 30.0238ZM83.143 20.7442C80.8561 20.7442 79.7442 21.9749 79.7442 24.5051C79.7442 26.7769 81.0859 28.189 83.2415 28.189C83.6559 28.189 84.1305 28.1617 84.7774 28.1065V20.8956C84.1312 20.7919 83.6101 20.7442 83.143 20.7442ZM50.8274 29.6828L44.4503 18.5876L44.4482 29.6828H42.2256V15.6367H45.3372L51.7143 26.6331L51.7116 15.6367H53.9636V29.6828H50.8274ZM71.1404 29.899C70.0667 29.899 68.9472 29.779 67.6143 29.5233L67.47 29.496V27.5338L67.6807 27.5788C68.8562 27.829 69.8711 28.0424 70.8867 28.0424C71.7066 28.0424 73.6167 27.9142 73.6167 26.7108C73.6167 25.7017 72.2968 25.4481 71.2368 25.2456L71.1698 25.2319C70.9715 25.1951 70.7848 25.1576 70.6275 25.1181C69.0723 24.7158 67.4133 24.111 67.4133 22.0335C67.4133 20.0072 69.0217 18.846 71.827 18.846C73.1735 18.846 74.1508 18.9892 74.9365 19.1065L75.3181 19.1624V21.0667L75.115 21.0299C74.226 20.8669 73.1838 20.6992 72.1819 20.6992C71.0679 20.6992 69.746 20.9072 69.746 21.8951C69.746 22.7153 70.8278 22.9499 72.0807 23.2219C73.8328 23.5997 76.0048 24.0742 76.0048 26.4578C76.0048 28.6444 74.2335 29.899 71.1404 29.899ZM93.7662 29.899C91.3228 29.899 89.0598 29.4694 89.0598 26.359C89.0598 22.9738 92.5592 22.9738 94.6512 22.9738C94.8591 22.9738 95.8425 23.0194 96.1441 23.0324C96.1413 21.1335 96.1174 20.6808 93.3552 20.6808C92.2604 20.6808 91.0444 20.8963 89.9708 21.0885L89.7656 21.1253V19.2503L89.9037 19.221C91.1484 18.9688 92.3486 18.846 93.572 18.846C96.2487 18.846 98.5164 19.1147 98.5164 22.4256V29.646L98.3537 29.6644C96.4997 29.8717 95.0273 29.899 93.7662 29.899ZM94.5924 24.649C92.5749 24.649 91.3248 24.9449 91.3248 26.4176C91.3248 28.1222 92.9196 28.2633 94.4159 28.2633C94.974 28.2633 95.9786 28.1917 96.2856 28.1699V24.7076C95.8534 24.6892 94.7284 24.649 94.5924 24.649ZM60.6416 29.899C58.1947 29.899 55.9325 29.4694 55.9325 26.359C55.9325 22.9738 59.4318 22.9738 61.5231 22.9738C61.7317 22.9738 62.7171 23.0194 63.0194 23.0324C63.0167 21.1335 62.99 20.6808 60.2279 20.6808C59.1323 20.6808 57.9164 20.8963 56.8427 21.0885L56.6375 21.1253V19.2503L56.7791 19.221C57.985 18.9724 59.2132 18.8468 60.4446 18.846C63.1206 18.846 65.389 19.1147 65.389 22.4256V29.646L65.2256 29.6644C63.3723 29.8717 61.8999 29.899 60.6416 29.899ZM61.4643 24.649C59.4476 24.649 58.2002 24.9449 58.2002 26.4176C58.2002 28.1222 59.7922 28.2633 61.2885 28.2633C61.8493 28.2633 62.8539 28.1917 63.161 28.1699V24.7076C62.7253 24.6892 61.6004 24.649 61.4643 24.649Z" fill="#D1D7DC"/>
<mask id="mask1_2_3999" style="mask-type:alpha" maskUnits="userSpaceOnUse" x="100" y="18" width="11" height="17">
<path d="M100.058 18.2092H110.335V34.5728H100.058V18.2092Z" fill="#D1D7DC"/>
</mask>
<g mask="url(#mask1_2_3999)">
<path d="M107.916 34.4555V29.8478C106.995 29.976 106.506 29.976 106.111 29.976C105.175 29.976 104.136 29.7735 103.332 29.4353C101.531 28.6887 100.458 26.7933 100.458 24.3612C100.458 23.1476 100.755 20.9283 102.739 19.7324C103.736 19.1392 104.911 18.8855 106.68 18.8855C107.312 18.8855 108.167 18.9333 108.993 18.981L110.334 19.0505V33.3878L107.916 34.4555ZM106.503 20.7394C104.104 20.7387 102.888 21.9592 102.888 24.3612C102.888 27.454 104.702 28.1037 106.227 28.1037C106.598 28.1037 107.015 28.1037 107.939 27.9865V20.8062C107.216 20.7585 106.881 20.7394 106.503 20.7394Z" fill="#D1D7DC"/>
</g>
<mask id="mask2_2_3999" style="mask-type:alpha" maskUnits="userSpaceOnUse" x="22" y="7" width="19" height="23">
<path d="M22.0967 7.31104H40.5612V29.8001H22.0967V7.31104Z" fill="#D1D7DC"/>
</mask>
<g mask="url(#mask2_2_3999)">
<path d="M31.6788 7.31104L23.8703 28.6996C23.7738 28.963 23.6048 29.1939 23.3828 29.366C23.1607 29.5381 22.8945 29.6443 22.6147 29.6726V29.6828H30.8691C31.5153 29.6828 32.0686 29.2731 32.2744 28.7003L40.0856 7.31104H31.6788Z" fill="#D1D7DC"/>
</g>
<path d="M21.9414 29.3584C22.4201 29.3584 22.8394 29.1211 23.0958 28.7618C23.1225 28.7243 23.2162 28.5934 23.2825 28.4154L26.1466 20.5663L24.4711 15.9825C24.3735 15.7504 24.2154 15.5485 24.0132 15.3978C23.811 15.247 23.5721 15.153 23.3212 15.1253C23.0703 15.0976 22.8165 15.1373 22.5862 15.2403C22.3558 15.3433 22.1573 15.5059 22.0112 15.7111C21.9838 15.7486 21.8724 15.9157 21.8245 16.0575L18.9604 23.9038L20.6434 28.5061C20.7526 28.7591 20.9337 28.9746 21.1644 29.1261C21.3951 29.2775 21.6652 29.3583 21.9414 29.3584Z" fill="#D1D7DC"/>
<mask id="mask3_2_3999" style="mask-type:alpha" maskUnits="userSpaceOnUse" x="4" y="14" width="19" height="24">
<path d="M4.31592 14.1184H22.7804V37.1618H4.31592V14.1184Z" fill="#D1D7DC"/>
</mask>
<g mask="url(#mask3_2_3999)">
<path d="M22.5535 14.7893H14.2082C13.562 14.7893 13.0087 15.197 12.8001 15.7725L4.9917 37.1611H13.3985L21.2076 15.7732C21.309 15.4949 21.491 15.253 21.7307 15.0783C21.9704 14.9035 22.2568 14.8039 22.5535 14.792V14.7893Z" fill="#D1D7DC"/>
</g>
</g>
</g>
</g>
<defs>
<clipPath id="clip0_2_3999">
<rect width="115" height="44" fill="white" transform="translate(0 0.300049)"/>
</clipPath>
<clipPath id="clip1_2_3999">
<rect width="115" height="44" fill="white" transform="translate(0 0.300049)"/>
</clipPath>
</defs>
</svg>
