<svg width="115" height="45" viewBox="0 0 115 45" fill="none" xmlns="http://www.w3.org/2000/svg">
<path d="M5 13.3V28.3195H11.9824V19.3077H15.9723V28.3195H22.9544V13.3H5Z" fill="#D1D7DC"/>
<path d="M29.3418 13.3V28.5065H32.6306V18.9024L39.9194 28.5065H42.7342V13.3H39.475V22.6966L32.3936 13.3H29.3418ZM70.793 13.3L64.482 28.5065H67.8597L69.2523 25.1272H75.2374L76.63 28.5065H80.0669L73.7856 13.3H70.793ZM57.6969 14.0114V16.946H56.334V19.762H57.6969V25.2162C57.6969 27.8887 59.0729 28.6843 61.0746 28.6843C62.1733 28.6843 62.9638 28.4424 63.6524 28.0322V25.394C63.1771 25.6561 62.626 25.809 62.0228 25.809C61.2915 25.809 60.9858 25.4367 60.9858 24.6826V19.762H63.682V16.946H60.9858V14.0114H57.6969ZM50.0526 16.7385C46.6915 16.7385 44.3342 19.4597 44.3342 22.7559V22.7855C44.3342 26.32 46.9095 28.7732 50.3785 28.7732C52.4668 28.7732 54.0146 27.9456 55.0896 26.6094L53.2229 24.9494C52.3175 25.7912 51.5068 26.1351 50.4081 26.1351C48.9421 26.1351 47.9193 25.3691 47.5934 23.8823H55.6229C55.6478 23.5811 55.6525 23.2515 55.6525 22.993C55.6525 19.7181 53.9068 16.7385 50.0526 16.7385ZM87.7705 16.7385C86.0686 16.7385 84.9522 17.5293 84.1558 18.606V16.946H80.8966V31.945H84.1558V26.9947C84.9309 27.9219 86.0271 28.7139 87.7705 28.7139C90.5071 28.7139 93.0149 26.6141 93.0149 22.7559V22.6966C93.0149 18.8395 90.4644 16.7385 87.7705 16.7385ZM101.222 16.7385C99.5215 16.7385 98.4335 17.5293 97.637 18.606V16.946H94.3482V31.945H97.637V26.9947C98.411 27.9219 99.4764 28.7139 101.222 28.7139C103.958 28.7139 106.467 26.6141 106.467 22.7559V22.6966C106.467 18.8395 103.915 16.7385 101.222 16.7385ZM106.141 16.946V17.3017H106.852V19.5249H107.237V17.3017H107.978V16.946H106.141ZM108.452 16.946V19.5249H108.837V17.3906L109.607 19.5249H109.844L110.615 17.3906V19.5249H111V16.946H110.407L109.726 18.9024L109.044 16.946H108.452ZM72.2448 17.3017L74.23 22.1927H70.2301L72.2448 17.3017ZM50.0526 19.3767C51.4298 19.3767 52.289 20.3394 52.4822 21.8073H47.5341C47.7925 20.3228 48.6932 19.3767 50.0526 19.3767ZM86.9113 19.5249C88.439 19.5249 89.7261 20.7793 89.726 22.6966V22.7559C89.726 24.6957 88.439 25.9276 86.9113 25.9276C85.3836 25.9276 84.1261 24.6743 84.1261 22.7559V22.6966C84.1261 20.7793 85.3836 19.5249 86.9113 19.5249ZM100.393 19.5249C101.923 19.5249 103.208 20.7793 103.208 22.6966V22.7559C103.208 24.6957 101.923 25.9276 100.393 25.9276C98.8661 25.9276 97.5778 24.6743 97.5778 22.7559V22.6966C97.5778 20.7793 98.8661 19.5249 100.393 19.5249Z" fill="#D1D7DC"/>
</svg>
