<svg width="36" height="34" viewBox="0 0 36 34" fill="none" xmlns="http://www.w3.org/2000/svg">
<g clip-path="url(#clip0_2_3904)">
<g clip-path="url(#clip1_2_3904)">
<path d="M35.0802 24.5344C35.0802 20.0103 31.8859 16.523 26.9066 16.7115C27.3763 10.3966 32.2617 4.93001 35.55 2.38522L34.6105 0.971436C27.7521 5.30702 19.1086 14.261 19.1086 23.4976C19.1086 28.7758 22.115 32.64 27.0005 32.64C31.8859 32.64 35.0802 28.87 35.0802 24.5344ZM15.9716 24.5344C15.9716 20.0103 12.7773 16.523 7.79789 16.7115C8.26765 10.3966 13.1531 4.93001 16.4413 2.38522L15.5019 0.971436C8.64343 5.30702 0 14.261 0 23.4976C0 28.7758 3.00641 32.64 7.89182 32.64C12.7773 32.64 15.9716 28.87 15.9716 24.5344Z" fill="#1C1D1F"/>
</g>
</g>
<defs>
<clipPath id="clip0_2_3904">
<rect width="35.55" height="32.2" fill="white" transform="translate(0 0.97998)"/>
</clipPath>
<clipPath id="clip1_2_3904">
<rect width="35.55" height="32.2172" fill="white" transform="translate(0 0.971436)"/>
</clipPath>
</defs>
</svg>
