<svg width="16" height="17" viewBox="0 0 16 17" fill="none" xmlns="http://www.w3.org/2000/svg">
<path d="M5.60664 15.0919L4.68481 13.5419L2.94114 13.1674C2.79159 13.1384 2.67214 13.0598 2.58281 12.9315C2.49347 12.8033 2.45781 12.6644 2.47581 12.5149L2.64631 10.7214L1.46047 9.36486C1.35792 9.25553 1.30664 9.12392 1.30664 8.97003C1.30664 8.81614 1.35792 8.68453 1.46047 8.5752L2.64631 7.2187L2.47581 5.4252C2.45781 5.27564 2.49347 5.13675 2.58281 5.00853C2.67214 4.88031 2.79159 4.8017 2.94114 4.7727L4.68481 4.3982L5.60664 2.8482C5.68697 2.71664 5.79636 2.62692 5.93481 2.57903C6.07325 2.53114 6.21386 2.53842 6.35664 2.60086L8.00014 3.2957L9.64364 2.60086C9.78642 2.53842 9.92703 2.53114 10.0655 2.57903C10.2039 2.62692 10.3133 2.71664 10.3936 2.8482L11.3155 4.3982L13.0591 4.7727C13.2087 4.8017 13.3281 4.88031 13.4175 5.00853C13.5068 5.13675 13.5425 5.27564 13.5245 5.4252L13.354 7.2187L14.5398 8.5752C14.6424 8.68453 14.6936 8.81614 14.6936 8.97003C14.6936 9.12392 14.6424 9.25553 14.5398 9.36486L13.354 10.7214L13.5245 12.5149C13.5425 12.6644 13.5068 12.8033 13.4175 12.9315C13.3281 13.0598 13.2087 13.1384 13.0591 13.1674L11.3155 13.5419L10.3936 15.0919C10.3133 15.2234 10.2039 15.3131 10.0655 15.361C9.92703 15.4089 9.78642 15.4016 9.64364 15.3392L8.00014 14.6444L6.35664 15.3392C6.21386 15.4016 6.07325 15.4089 5.93481 15.361C5.79636 15.3131 5.68697 15.2234 5.60664 15.0919ZM6.30014 14.27L8.00014 13.5495L9.72064 14.27L10.6668 12.67L12.5001 12.2495L12.3335 10.37L13.5668 8.97003L12.3335 7.54953L12.5001 5.67003L10.6668 5.27003L9.70014 3.67003L8.00014 4.39053L6.27964 3.67003L5.33347 5.27003L3.50014 5.67003L3.66681 7.54953L2.43347 8.97003L3.66681 10.37L3.50014 12.27L5.33347 12.67L6.30014 14.27ZM8.00014 12.1239C8.15059 12.1239 8.27792 12.0718 8.38214 11.9675C8.48647 11.8632 8.53864 11.7358 8.53864 11.5854C8.53864 11.4349 8.48647 11.3076 8.38214 11.2034C8.27792 11.0991 8.15059 11.047 8.00014 11.047C7.8497 11.047 7.72236 11.0991 7.61814 11.2034C7.51381 11.3076 7.46164 11.4349 7.46164 11.5854C7.46164 11.7358 7.51381 11.8632 7.61814 11.9675C7.72236 12.0718 7.8497 12.1239 8.00014 12.1239ZM8.00014 9.68803C8.14203 9.68803 8.26081 9.64014 8.35647 9.54436C8.45225 9.4487 8.50014 9.32992 8.50014 9.18803V6.18803C8.50014 6.04614 8.45225 5.92731 8.35647 5.83153C8.26081 5.73586 8.14203 5.68803 8.00014 5.68803C7.85825 5.68803 7.73947 5.73586 7.64381 5.83153C7.54803 5.92731 7.50014 6.04614 7.50014 6.18803V9.18803C7.50014 9.32992 7.54803 9.4487 7.64381 9.54436C7.73947 9.64014 7.85825 9.68803 8.00014 9.68803Z" fill="white"/>
</svg>
