<svg width="15" height="16" viewBox="0 0 15 16" fill="none" xmlns="http://www.w3.org/2000/svg">
<mask id="mask0_2_3740" style="mask-type:luminance" maskUnits="userSpaceOnUse" x="0" y="0" width="14" height="15">
<path d="M14 0.0599365H0V14.0599H14V0.0599365Z" fill="white"/>
</mask>
<g mask="url(#mask0_2_3740)">
<path d="M6.99979 9.79489L4.73048 11.1634C4.6459 11.2128 4.56117 11.2335 4.47629 11.2257C4.39142 11.2178 4.31461 11.1892 4.24587 11.1399C4.17704 11.0905 4.12391 11.026 4.08648 10.9464C4.04915 10.8668 4.04317 10.7787 4.06854 10.6821L4.67098 8.10541L2.66752 6.37116C2.59266 6.30612 2.54497 6.23077 2.52446 6.14512C2.50385 6.05946 2.50924 5.97624 2.54065 5.89545C2.57205 5.81476 2.61731 5.74879 2.67642 5.69755C2.73553 5.64632 2.81632 5.61283 2.91879 5.59708L5.56275 5.36607L6.58927 2.93285C6.6266 2.84233 6.68324 2.77539 6.75917 2.73203C6.8351 2.68867 6.91531 2.66699 6.99979 2.66699C7.08428 2.66699 7.16449 2.68867 7.24042 2.73203C7.31635 2.77539 7.37298 2.84233 7.41031 2.93285L8.43683 5.36607L11.0808 5.59708C11.1833 5.61283 11.2641 5.64632 11.3232 5.69755C11.3823 5.74879 11.4275 5.81476 11.4589 5.89545C11.4903 5.97624 11.4957 6.05946 11.4751 6.14512C11.4546 6.23077 11.4069 6.30612 11.3321 6.37116L9.3286 8.10541L9.93104 10.6821C9.95642 10.7787 9.95044 10.8668 9.9131 10.9464C9.87567 11.026 9.82254 11.0905 9.75371 11.1399C9.68497 11.1892 9.60817 11.2178 9.52329 11.2257C9.43842 11.2335 9.35369 11.2128 9.2691 11.1634L6.99979 9.79489Z" fill="#C4710D"/>
</g>
<path d="M7.99979 10.7949L5.73048 12.1634C5.6459 12.2128 5.56117 12.2335 5.47629 12.2257C5.39142 12.2178 5.31461 12.1892 5.24587 12.1399C5.17704 12.0905 5.12391 12.026 5.08648 11.9464C5.04915 11.8668 5.04317 11.7787 5.06854 11.6821L5.67098 9.10541L3.66752 7.37116C3.59266 7.30612 3.54497 7.23077 3.52446 7.14512C3.50385 7.05946 3.50924 6.97624 3.54065 6.89545C3.57205 6.81476 3.61731 6.74879 3.67642 6.69755C3.73553 6.64632 3.81632 6.61283 3.91879 6.59708L6.56275 6.36607L7.58927 3.93285C7.6266 3.84233 7.68324 3.77539 7.75917 3.73203C7.8351 3.68867 7.91531 3.66699 7.99979 3.66699C8.08428 3.66699 8.16449 3.68867 8.24042 3.73203C8.31635 3.77539 8.37298 3.84233 8.41031 3.93285L9.43683 6.36607L12.0808 6.59708C12.1833 6.61283 12.2641 6.64632 12.3232 6.69755C12.3823 6.74879 12.4275 6.81476 12.4589 6.89545C12.4903 6.97624 12.4957 7.05946 12.4751 7.14512C12.4546 7.23077 12.4069 7.30612 12.3321 7.37116L10.3286 9.10541L10.931 11.6821C10.9564 11.7787 10.9504 11.8668 10.9131 11.9464C10.8757 12.026 10.8225 12.0905 10.7537 12.1399C10.685 12.1892 10.6082 12.2178 10.5233 12.2257C10.4384 12.2335 10.3537 12.2128 10.2691 12.1634L7.99979 10.7949Z" stroke="#C4710D" stroke-width="1.16667"/>
</svg>
