<svg width="44" height="45" viewBox="0 0 44 45" fill="none" xmlns="http://www.w3.org/2000/svg">
<g clip-path="url(#clip0_2_4025)">
<g clip-path="url(#clip1_2_4025)">
<path fill-rule="evenodd" clip-rule="evenodd" d="M21.9213 4.30005C25.4658 4.30005 28.9307 5.35111 31.8777 7.32033C34.8249 9.28954 37.1219 12.0884 38.4783 15.3631C39.8347 18.6378 40.1897 22.2412 39.4981 25.7175C38.8066 29.1939 37.0999 32.3872 34.5935 34.8935C32.0872 37.3999 28.8939 39.1066 25.4175 39.7981C21.9412 40.4897 18.3378 40.1347 15.0631 38.7783C11.7884 37.4219 8.98949 35.125 7.02028 32.1777C5.05106 29.2307 4 25.7659 4 22.2213C4.02072 17.4747 5.9155 12.9283 9.27191 9.57196C12.6283 6.21555 17.1747 4.32077 21.9213 4.30005ZM21.9213 6.55005C18.8313 6.55672 15.8126 7.47867 13.2463 9.1995C10.6799 10.9203 8.6808 13.3629 7.50142 16.2188C6.32203 19.0748 6.0152 22.2162 6.61965 25.2465C7.2241 28.2767 8.71275 31.0599 10.8977 33.2449C13.0826 35.4298 15.8658 36.9184 18.896 37.5229C21.9263 38.1273 25.0676 37.8205 27.9237 36.6411C30.7796 35.4617 33.2222 33.4627 34.943 30.8962C36.6639 28.33 37.5859 25.3112 37.5925 22.2213C37.5836 18.0698 35.929 14.0913 32.9913 11.1578C30.0537 8.22445 26.0727 6.57552 21.9213 6.57255V6.55005ZM11.4588 13.8062C12.507 12.5012 13.7888 11.4026 15.2387 10.5663L19.1875 21.445H24.745L28.6713 10.6113C30.0231 11.4059 31.226 12.4299 32.2263 13.6375L26.6013 28.3525L24.5087 23.0425H19.12L17.0612 28.3525L11.4588 13.8062ZM34.4875 17.4625C35.6317 20.5416 35.6142 23.9324 34.4379 26.9995C33.2616 30.0665 31.0073 32.5995 28.0975 34.1238L34.4875 17.4625ZM25.3075 35.215C23.0134 35.8034 20.6056 35.7839 18.3212 35.1588V34.8775L21.7863 25.8775L25.24 34.8775L25.3075 35.215ZM15.475 33.9776C13.3629 32.825 11.5998 31.1253 10.3707 29.0569C9.14147 26.9884 8.49145 24.6274 8.48875 22.2213C8.47693 20.688 8.7359 19.1645 9.25375 17.7213L15.475 33.9776ZM21.9213 8.7888C23.0791 8.7863 24.2324 8.93378 25.3525 9.22755L21.9775 18.61L18.6025 9.2163C19.6862 8.93415 20.8014 8.79051 21.9213 8.7888Z" fill="#D1D7DC"/>
</g>
</g>
<defs>
<clipPath id="clip0_2_4025">
<rect width="44" height="44" fill="white" transform="translate(0 0.300049)"/>
</clipPath>
<clipPath id="clip1_2_4025">
<rect width="44" height="44" fill="white" transform="translate(0 0.300049)"/>
</clipPath>
</defs>
</svg>
