<svg width="40" height="40" viewBox="0 0 40 40" fill="none" xmlns="http://www.w3.org/2000/svg">
<path d="M19.9918 26.4246C19.8133 26.4246 19.634 26.3926 19.454 26.3285C19.274 26.2644 19.1156 26.164 18.9788 26.0273L17.7818 24.9392C16.3043 23.5919 14.9851 22.2685 13.8243 20.9688C12.6634 19.669 12.083 18.2767 12.083 16.7917C12.083 15.609 12.4818 14.6189 13.2793 13.8212C14.0769 13.0237 15.067 12.625 16.2497 12.625C16.9216 12.625 17.5854 12.7799 18.2409 13.0898C18.8963 13.3997 19.4826 13.9028 19.9997 14.5994C20.5168 13.9028 21.103 13.3997 21.7584 13.0898C22.414 12.7799 23.0777 12.625 23.7497 12.625C24.9323 12.625 25.9225 13.0237 26.7201 13.8212C27.5176 14.6189 27.9163 15.609 27.9163 16.7917C27.9163 18.2928 27.3261 19.7006 26.1455 21.0152C24.965 22.3298 23.6487 23.642 22.1968 24.9519L21.0124 26.0273C20.8757 26.164 20.7161 26.2644 20.5334 26.3285C20.3506 26.3926 20.1701 26.4246 19.9918 26.4246ZM19.4003 15.8654C18.9495 15.1785 18.4748 14.675 17.9763 14.355C17.478 14.035 16.9025 13.875 16.2497 13.875C15.4163 13.875 14.7219 14.1528 14.1663 14.7083C13.6108 15.2639 13.333 15.9583 13.333 16.7917C13.333 17.4604 13.5486 18.1597 13.9797 18.8894C14.4108 19.6191 14.9519 20.3445 15.603 21.0656C16.2541 21.7869 16.9595 22.4915 17.7193 23.1794C18.4788 23.8674 19.1829 24.5069 19.8313 25.0977C19.8794 25.1405 19.9355 25.1619 19.9997 25.1619C20.0638 25.1619 20.12 25.1405 20.168 25.0977C20.8165 24.5069 21.5205 23.8674 22.2801 23.1794C23.0398 22.4915 23.7452 21.7869 24.3963 21.0656C25.0475 20.3445 25.5886 19.6191 26.0197 18.8894C26.4508 18.1597 26.6663 17.4604 26.6663 16.7917C26.6663 15.9583 26.3886 15.2639 25.833 14.7083C25.2775 14.1528 24.583 13.875 23.7497 13.875C23.0969 13.875 22.5213 14.035 22.023 14.355C21.5245 14.675 21.0499 15.1785 20.599 15.8654C20.5285 15.9722 20.4398 16.0524 20.333 16.1058C20.2262 16.1592 20.1151 16.1858 19.9997 16.1858C19.8843 16.1858 19.7731 16.1592 19.6663 16.1058C19.5595 16.0524 19.4709 15.9722 19.4003 15.8654Z" fill="#2A2B3F"/>
</svg>
