<svg width="44" height="40" viewBox="0 0 44 40" fill="none" xmlns="http://www.w3.org/2000/svg">
<path d="M15.9615 27.9648C15.5566 27.9648 15.2124 27.8229 14.9288 27.5392C14.6451 27.2556 14.5033 26.9113 14.5033 26.5065C14.5033 26.1015 14.6451 25.7572 14.9288 25.4735C15.2124 25.1899 15.5566 25.0481 15.9615 25.0481C16.3665 25.0481 16.7108 25.1899 16.9944 25.4735C17.278 25.7572 17.4198 26.1015 17.4198 26.5065C17.4198 26.9113 17.278 27.2556 16.9944 27.5392C16.7108 27.8229 16.3665 27.9648 15.9615 27.9648ZM24.0385 27.9648C23.6335 27.9648 23.2892 27.8229 23.0056 27.5392C22.722 27.2556 22.5802 26.9113 22.5802 26.5065C22.5802 26.1015 22.722 25.7572 23.0056 25.4735C23.2892 25.1899 23.6335 25.0481 24.0385 25.0481C24.4434 25.0481 24.7876 25.1899 25.0712 25.4735C25.3549 25.7572 25.4967 26.1015 25.4967 26.5065C25.4967 26.9113 25.3549 27.2556 25.0712 27.5392C24.7876 27.8229 24.4434 27.9648 24.0385 27.9648ZM15.0127 14.7917L17.125 19.2148H22.806C22.8541 19.2148 22.8969 19.2028 22.9344 19.1788C22.9717 19.1547 23.0038 19.1213 23.0304 19.0785L25.266 15.016C25.2981 14.9573 25.3008 14.9052 25.274 14.8598C25.2473 14.8144 25.2019 14.7917 25.1377 14.7917H15.0127ZM14.4135 13.5417H25.984C26.3248 13.5417 26.5825 13.6867 26.7571 13.9769C26.9318 14.2669 26.9401 14.5631 26.7821 14.8654L24.1121 19.7019C23.9754 19.9423 23.7947 20.1295 23.5698 20.2635C23.3448 20.3977 23.0983 20.4648 22.8302 20.4648H16.75L15.7852 22.2275C15.7424 22.2917 15.7411 22.3611 15.7812 22.4358C15.8212 22.5107 15.8813 22.5481 15.9615 22.5481H24.8719C25.0491 22.5481 25.1976 22.6079 25.3173 22.7275C25.4369 22.8472 25.4967 22.9958 25.4967 23.1731C25.4967 23.3505 25.4369 23.499 25.3173 23.6185C25.1976 23.7383 25.0491 23.7981 24.8719 23.7981H15.9615C15.4059 23.7981 14.9885 23.5585 14.7092 23.0794C14.4297 22.6002 14.4199 22.1218 14.6796 21.6442L15.8685 19.5065L12.8367 13.125H11.875C11.6976 13.125 11.5492 13.0651 11.4296 12.9454C11.3099 12.8258 11.25 12.6774 11.25 12.5C11.25 12.3226 11.3099 12.1742 11.4296 12.0546C11.5492 11.9349 11.6976 11.875 11.875 11.875H13.149C13.2912 11.875 13.4237 11.9126 13.5465 11.9879C13.6694 12.0633 13.7628 12.1694 13.8269 12.306L14.4135 13.5417Z" fill="#2A2B3F"/>
<rect x="20" width="24" height="22.4" rx="11.2" fill="#A435F0"/>
<path d="M30.974 9.00195H31.8764C32.1654 9.00195 32.4037 8.95312 32.5912 8.85547C32.7787 8.75391 32.9174 8.61328 33.0072 8.43359C33.101 8.25 33.1479 8.03711 33.1479 7.79492C33.1479 7.57617 33.1049 7.38281 33.0189 7.21484C32.9369 7.04297 32.81 6.91016 32.6381 6.81641C32.4662 6.71875 32.2494 6.66992 31.9877 6.66992C31.7807 6.66992 31.5893 6.71094 31.4135 6.79297C31.2377 6.875 31.0971 6.99023 30.9916 7.13867C30.8861 7.28711 30.8334 7.4668 30.8334 7.67773H29.14C29.14 7.20898 29.265 6.80078 29.515 6.45312C29.7689 6.10547 30.1088 5.83398 30.5346 5.63867C30.9604 5.44336 31.4291 5.3457 31.9408 5.3457C32.5189 5.3457 33.0248 5.43945 33.4584 5.62695C33.892 5.81055 34.2299 6.08203 34.4721 6.44141C34.7143 6.80078 34.8354 7.24609 34.8354 7.77734C34.8354 8.04688 34.7729 8.30859 34.6479 8.5625C34.5229 8.8125 34.3432 9.03906 34.1088 9.24219C33.8783 9.44141 33.5971 9.60156 33.265 9.72266C32.933 9.83984 32.56 9.89844 32.1459 9.89844H30.974V9.00195ZM30.974 10.2852V9.41211H32.1459C32.6107 9.41211 33.0189 9.46484 33.3705 9.57031C33.7221 9.67578 34.017 9.82812 34.2553 10.0273C34.4936 10.2227 34.6732 10.4551 34.7943 10.7246C34.9154 10.9902 34.976 11.2852 34.976 11.6094C34.976 12.0078 34.8998 12.3633 34.7475 12.6758C34.5951 12.9844 34.3803 13.2461 34.1029 13.4609C33.8295 13.6758 33.5092 13.8398 33.142 13.9531C32.7748 14.0625 32.3744 14.1172 31.9408 14.1172C31.5814 14.1172 31.2279 14.0684 30.8803 13.9707C30.5365 13.8691 30.224 13.7188 29.9428 13.5195C29.6654 13.3164 29.4428 13.0625 29.2748 12.7578C29.1107 12.4492 29.0287 12.084 29.0287 11.6621H30.7221C30.7221 11.8809 30.7768 12.0762 30.8861 12.248C30.9955 12.4199 31.1459 12.5547 31.3373 12.6523C31.5326 12.75 31.7494 12.7988 31.9877 12.7988C32.2572 12.7988 32.4877 12.75 32.6791 12.6523C32.8744 12.5508 33.0229 12.4102 33.1244 12.2305C33.2299 12.0469 33.2826 11.834 33.2826 11.5918C33.2826 11.2793 33.226 11.0293 33.1127 10.8418C32.9994 10.6504 32.8373 10.5098 32.6264 10.4199C32.4154 10.3301 32.1654 10.2852 31.8764 10.2852H30.974Z" fill="white"/>
</svg>
