<svg width="99" height="34" viewBox="0 0 99 34" fill="none" xmlns="http://www.w3.org/2000/svg">
<g clip-path="url(#clip0_149_20436)">
<g clip-path="url(#clip1_149_20436)">
<g clip-path="url(#clip2_149_20436)">
<path d="M14.05 8.10199L7.024 4.04599L0 8.10199V4.04599L7.025 -0.0100098L14.051 4.04599L14.05 8.10199Z" fill="#A435F0"/>
<path d="M0 11.508H3.68V20.449C3.68 22.759 5.405 23.885 7.025 23.885C8.659 23.885 10.371 22.729 10.371 20.418V11.508H14.051V20.662C14.051 22.79 13.382 24.432 12.044 25.558C10.705 26.683 9.033 27.231 6.994 27.231C4.957 27.231 3.284 26.684 1.977 25.558C0.669 24.433 0 22.852 0 20.753V11.508ZM45.866 22.62C44.752 23.612 43.483 24.098 42.036 24.098C39.396 24.098 37.626 22.594 37.426 20.265H49.316C49.316 20.265 49.396 19.513 49.396 18.807C49.396 16.617 48.696 14.792 47.266 13.302C45.868 11.812 44.044 11.082 41.823 11.082C39.482 11.082 37.565 11.812 36.044 13.302C34.554 14.792 33.794 16.738 33.794 19.172V19.292C33.794 21.695 34.554 23.611 36.044 25.041C37.534 26.47 39.511 27.2 41.914 27.2C44.708 27.2 46.931 26.098 48.599 24.198L45.866 22.62ZM38.872 15.157C39.692 14.518 40.697 14.184 41.822 14.184C42.886 14.184 43.768 14.518 44.529 15.188C45.255 15.798 45.647 16.547 45.681 17.408H37.52C37.638 16.518 38.088 15.768 38.873 15.158L38.872 15.157ZM82.91 29.266C81.417 32.791 79.855 33.99 77.46 33.99H75.8V30.728H77.142C77.966 30.728 78.732 30.418 79.462 28.734L80.192 27.048L73.896 11.508H77.637L82.108 22.7L86.701 11.508H90.441L82.91 29.266ZM28.377 5.63898V12.896C27.171 11.816 25.295 11.173 23.481 11.173C21.321 11.173 19.497 11.933 18.007 13.483C16.547 15.004 15.817 16.889 15.817 19.17C15.817 21.452 16.547 23.337 18.007 24.888C19.497 26.409 21.322 27.17 23.481 27.17C25.971 27.17 27.545 26.191 28.377 25.424V26.835H32.027V5.63998L28.377 5.63898ZM27.282 22.517C26.4 23.399 25.275 23.856 23.967 23.856C22.659 23.856 21.595 23.399 20.713 22.517C19.863 21.635 19.436 20.51 19.436 19.172C19.436 17.833 19.862 16.708 20.713 15.826C21.595 14.944 22.659 14.488 23.967 14.488C25.275 14.488 26.4 14.944 27.282 15.826C28.194 16.708 28.652 17.833 28.652 19.172C28.652 20.51 28.194 21.635 27.282 22.517ZM68.222 11.204C65.45 11.204 64.009 12.354 63.022 13.462C62.627 12.709 61.515 11.204 58.917 11.204C56.721 11.204 55.427 12.314 54.781 13.104V11.51H51.163V26.837H54.781V18.017C54.781 15.949 56.059 14.459 57.761 14.459C59.496 14.459 60.499 15.767 60.499 17.865V26.836H64.118V18.016C64.118 15.918 65.364 14.458 67.158 14.458C68.892 14.458 69.895 15.766 69.895 17.863V26.835H73.545V17.347C73.545 13.351 71.397 11.205 68.222 11.205V11.204Z" fill="black"/>
</g>
</g>
</g>
<defs>
<clipPath id="clip0_149_20436">
<rect width="91" height="34" fill="white" transform="translate(0 -0.0100098)"/>
</clipPath>
<clipPath id="clip1_149_20436">
<rect width="91" height="34" fill="white" transform="translate(0 -0.0100098)"/>
</clipPath>
<clipPath id="clip2_149_20436">
<rect width="91" height="34" fill="white" transform="translate(0 -0.0100098)"/>
</clipPath>
</defs>
</svg>
