<svg width="40" height="40" viewBox="0 0 40 40" fill="none" xmlns="http://www.w3.org/2000/svg">
<path d="M14.375 25.7371C14.1979 25.7371 14.0495 25.6772 13.9298 25.5575C13.8099 25.4376 13.75 25.2891 13.75 25.1119C13.75 24.9348 13.8099 24.7864 13.9298 24.6666C14.0495 24.5471 14.1979 24.4873 14.375 24.4873H15.2565V18.2691C15.2565 17.1485 15.6024 16.1575 16.2942 15.2964C16.9858 14.4353 17.8739 13.8846 18.9583 13.6441V13.125C18.9583 12.8357 19.0595 12.5897 19.2619 12.3871C19.4642 12.1846 19.7099 12.0833 19.999 12.0833C20.2881 12.0833 20.5342 12.1846 20.7371 12.3871C20.9401 12.5897 21.0417 12.8357 21.0417 13.125V13.6441C22.1261 13.8846 23.0142 14.4353 23.7058 15.2964C24.3976 16.1575 24.7435 17.1485 24.7435 18.2691V24.4873H25.625C25.8021 24.4873 25.9505 24.5471 26.0702 24.6669C26.1901 24.7867 26.25 24.9353 26.25 25.1125C26.25 25.2896 26.1901 25.438 26.0702 25.5577C25.9505 25.6773 25.8021 25.7371 25.625 25.7371H14.375ZM19.9985 28.0769C19.584 28.0769 19.2295 27.9294 18.9352 27.6344C18.6408 27.3394 18.4935 26.9847 18.4935 26.5704H21.5065C21.5065 26.9861 21.3588 27.3411 21.0635 27.6354C20.7683 27.9297 20.4133 28.0769 19.9985 28.0769ZM16.5065 24.4873H23.4935V18.2691C23.4935 17.3044 23.1525 16.481 22.4704 15.7989C21.7882 15.1167 20.9647 14.7756 20 14.7756C19.0353 14.7756 18.2118 15.1167 17.5296 15.7989C16.8475 16.481 16.5065 17.3044 16.5065 18.2691V24.4873Z" fill="#2A2B3F"/>
</svg>
