<svg width="92" height="35" viewBox="0 0 92 35" fill="none" xmlns="http://www.w3.org/2000/svg">
<g clip-path="url(#clip0_2_36)">
<path d="M14.7377 8.29836L7.69302 4.21949L0.649612 8.29836V4.21949L7.69388 0.140625L14.7386 4.21949V8.29836H14.7377Z" fill="#A435F0"/>
<path d="M0.649612 11.7228H4.33965V20.7143C4.33965 23.038 6.06896 24.1697 7.6943 24.1697C9.33157 24.1697 11.049 23.0072 11.049 20.6836V11.7224H14.7386V20.928C14.7386 23.0683 14.0682 24.7197 12.7263 25.8514C11.3839 26.9831 9.70658 27.5335 7.66362 27.5335C5.62023 27.5335 3.9429 26.9831 2.63164 25.8514C1.31995 24.7197 0.649612 23.1299 0.649612 21.019V11.7228ZM46.6397 22.8974C45.5228 23.8944 44.2499 24.3833 42.7989 24.3833C40.1533 24.3833 38.3771 22.8713 38.1768 20.5293H50.1001C50.1001 20.5293 50.1785 19.7724 50.1785 19.0625C50.1785 16.8607 49.4775 15.0255 48.0443 13.5272C46.6419 12.0284 44.8124 11.2946 42.5862 11.2946C40.2381 11.2946 38.3166 12.0284 36.7918 13.5272C35.2973 15.0255 34.5349 16.9825 34.5349 19.4292V19.5514C34.5349 21.9674 35.2973 23.8936 36.7918 25.3317C38.2859 26.769 40.2679 27.5028 42.677 27.5028C45.4785 27.5028 47.7081 26.395 49.3807 24.4838L46.6397 22.8974ZM39.627 15.3927C40.4495 14.7499 41.4565 14.414 42.5849 14.414C43.652 14.414 44.5363 14.7499 45.2987 15.4234C46.0274 16.0367 46.4203 16.7897 46.4544 17.656H38.2702C38.3882 16.7615 38.8395 16.0068 39.627 15.3927ZM83.7851 29.5802C82.2864 33.1253 80.7203 34.3305 78.3193 34.3305H76.6556V31.0504H78.001C78.8273 31.0504 79.5952 30.7393 80.3273 29.0447L81.0591 27.3502L74.7465 11.7224H78.4975L82.9806 22.9769L87.5855 11.7224H91.3365C91.3357 11.7224 85.3274 25.9322 83.7851 29.5802ZM29.1037 5.82031V13.119C27.8947 12.0318 26.0141 11.3856 24.1944 11.3856C22.0296 11.3856 20.2001 12.1506 18.7056 13.7092C17.2422 15.2388 16.5105 17.1342 16.5105 19.4284C16.5105 21.7225 17.2422 23.6175 18.706 25.1778C20.2001 26.7074 22.03 27.472 24.1948 27.472C26.6925 27.472 28.2697 26.4886 29.1041 25.7168V27.1356H32.763V5.82074H29.1041L29.1037 5.82031ZM28.0063 22.7935C27.1221 23.6803 25.9936 24.1397 24.6824 24.1397C23.3707 24.1397 22.3036 23.6803 21.4197 22.7935C20.5662 21.9071 20.1387 20.7754 20.1387 19.4292C20.1387 18.0834 20.5662 16.9517 21.4197 16.0649C22.3036 15.1785 23.3707 14.7191 24.6824 14.7191C25.9936 14.7191 27.1221 15.1785 28.0063 16.0653C28.9208 16.9517 29.379 18.0834 29.379 19.4292C29.379 20.7754 28.9208 21.9071 28.0063 22.7935ZM69.0574 11.4176C66.278 11.4176 64.8325 12.5741 63.8426 13.6879C63.4471 12.931 62.3323 11.4176 59.7264 11.4176C57.5253 11.4176 56.2264 12.5331 55.58 13.3289V11.7241H51.9513V27.1369H55.58V18.268C55.58 16.188 56.8605 14.6896 58.5685 14.6896C60.3072 14.6896 61.313 16.0047 61.313 18.1142V27.1361H64.9416V18.2663C64.9416 16.1559 66.1915 14.6879 67.9903 14.6879C69.729 14.6879 70.7347 16.0029 70.7347 18.1125V27.1344H74.3941V17.5932C74.3941 13.575 72.2407 11.4176 69.0574 11.4176Z" fill="white"/>
</g>
<defs>
<clipPath id="clip0_2_36">
<rect width="90.77" height="34.19" fill="white" transform="translate(0.649612 0.140625)"/>
</clipPath>
</defs>
</svg>
