<svg width="116" height="45" viewBox="0 0 116 45" fill="none" xmlns="http://www.w3.org/2000/svg">
<mask id="mask0_2_166" style="mask-type:luminance" maskUnits="userSpaceOnUse" x="5" y="10" width="107" height="20">
<path d="M111.5 10.1875H5.5V29.114H111.5V10.1875Z" fill="white"/>
</mask>
<g mask="url(#mask0_2_166)">
<path d="M67.7652 10.1875V17.6308C68.4683 17.1521 69.2589 16.8167 70.0918 16.6438C70.9246 16.4709 71.7834 16.464 72.6189 16.6234C73.4545 16.7828 74.2504 17.1054 74.9611 17.5728C75.6718 18.0401 76.2834 18.6431 76.7608 19.347L76.838 19.4531C77.5602 20.5823 77.8919 21.9173 77.7822 23.2532C77.6725 24.5891 77.1274 25.852 76.2306 26.8482C75.2122 28.023 73.7924 28.7759 72.2486 28.9597C71.4923 29.0899 70.7175 29.0665 69.9704 28.891C69.2234 28.7154 68.5193 28.3912 67.9002 27.9377C67.8134 28.2077 67.7556 28.4198 67.6784 28.6705H64.7859V10.8721L67.7652 10.1875ZM74.8325 22.7795C74.855 22.0763 74.6685 21.3823 74.2967 20.7851C73.9248 20.1879 73.3843 19.7144 72.7433 19.4244C72.1024 19.1343 71.3899 19.0408 70.6958 19.1557C70.0018 19.2705 69.3573 19.5885 68.844 20.0695C68.3306 20.5506 67.9714 21.173 67.8117 21.8581C67.652 22.5432 67.699 23.2603 67.9468 23.9188C68.1946 24.5772 68.632 25.1474 69.2037 25.5572C69.7755 25.9671 70.4559 26.1983 71.1591 26.2215H71.2362C72.166 26.2296 73.0622 25.8744 73.734 25.2315C74.4057 24.5885 74.7999 23.7087 74.8325 22.7795Z" fill="#D1D7DC"/>
<path d="M8.97082 24.7077C9.22817 25.0937 9.5593 25.425 9.94518 25.6826C10.331 25.9402 10.764 26.1189 11.2192 26.2085C11.6744 26.2981 12.1428 26.2968 12.5976 26.2047C13.0523 26.1126 13.4843 25.9315 13.8687 25.6718C14.0671 25.5402 14.2513 25.3884 14.4183 25.2187C14.5347 25.0694 14.6949 24.9602 14.8765 24.9066C15.058 24.853 15.2518 24.8576 15.4307 24.9198C16.1345 25.1126 16.848 25.2765 17.7447 25.4983C17.3691 26.0793 16.9535 26.6334 16.5009 27.1566C15.6803 28.0266 14.6267 28.642 13.4658 28.9293C12.3048 29.2165 11.0858 29.1634 9.95426 28.7764C8.80145 28.4553 7.76916 27.8009 6.98697 26.8952C6.20479 25.9895 5.70755 24.8729 5.55768 23.6857C5.35033 22.112 5.74312 20.518 6.65788 19.2209C7.57264 17.9238 8.94228 17.0188 10.4942 16.6858C11.3173 16.4918 12.1708 16.4629 13.0053 16.6006C13.8397 16.7383 14.6386 17.04 15.3558 17.4882C16.073 17.9365 16.6943 18.5224 17.1837 19.2121C17.6732 19.9018 18.0211 20.6817 18.2075 21.5066C18.2028 21.5612 18.2028 21.616 18.2075 21.6706C18.4003 22.5479 18.3714 22.6347 17.4747 22.8083L9.52039 24.592C9.33159 24.5959 9.14519 24.6352 8.97082 24.7077ZM8.39232 22.3165L14.7558 20.8703C14.3866 20.2773 13.842 19.814 13.1976 19.5444C12.5532 19.2749 11.8408 19.2126 11.1594 19.3662C10.4374 19.484 9.77456 19.8371 9.27408 20.3707C8.77361 20.9043 8.4636 21.5884 8.39232 22.3165Z" fill="#D1D7DC"/>
<path d="M102.302 24.7076C102.779 25.445 103.516 25.9757 104.366 26.1937C105.217 26.4117 106.119 26.3011 106.891 25.8839C107.173 25.7564 107.426 25.5727 107.634 25.3439C108.019 24.7847 108.473 24.8426 109.022 25.0065C109.572 25.1704 110.285 25.3054 110.95 25.4693C110.474 26.5338 109.697 27.4354 108.714 28.0629C107.285 29.0015 105.542 29.3348 103.868 28.9895C102.194 28.6442 100.726 27.6486 99.7853 26.2213C99.3227 25.5555 98.9951 24.8053 98.8212 24.0134C98.6711 23.194 98.6843 22.353 98.8601 21.5388C99.036 20.7245 99.3709 19.953 99.8457 19.2685C100.32 18.5841 100.926 18.0002 101.627 17.5503C102.328 17.1005 103.111 16.7935 103.931 16.6472H104.143C105.581 16.4376 107.047 16.7148 108.308 17.4346C109.57 18.1545 110.554 19.2756 111.105 20.6195C111.258 21.1101 111.384 21.6091 111.481 22.114C111.577 22.5093 111.394 22.6828 110.989 22.7696C108.28 23.3674 105.57 23.9845 102.861 24.6015L102.302 24.7076ZM108.087 20.8509C107.636 20.1493 106.946 19.6341 106.146 19.4003C105.345 19.1664 104.487 19.2296 103.729 19.5782C102.504 20.1182 101.588 21.3812 101.801 22.2682L108.087 20.8509Z" fill="#D1D7DC"/>
<path d="M33.3844 24.708C33.6351 25.5854 35.2163 26.4242 36.5083 26.2796C37.4403 26.2006 38.3098 25.7779 38.9476 25.0937C39.019 25.0182 39.1061 24.9593 39.2027 24.921C39.2993 24.8826 39.4031 24.8659 39.5068 24.8719C40.3263 25.0262 41.1362 25.2286 42.0522 25.4311C41.627 26.3683 40.9618 27.1765 40.1239 27.774C39.4528 28.2868 38.6873 28.6625 37.8711 28.8794C37.0549 29.0964 36.2039 29.1505 35.3668 29.0386C34.5297 28.9267 33.7228 28.651 32.9922 28.2272C32.2617 27.8034 31.6217 27.2399 31.109 26.5688C30.4884 25.7606 30.0717 24.8147 29.8941 23.8113C29.6292 22.194 30.0073 20.5371 30.9478 19.1949C31.8883 17.8527 33.3164 16.9315 34.927 16.6283C36.5822 16.2853 38.3059 16.6108 39.722 17.5338C41.1381 18.4568 42.1318 19.9024 42.4861 21.5552C42.6982 22.5193 42.6693 22.5193 41.763 22.7604L33.9243 24.5344L33.3844 24.708ZM39.1694 20.8513C38.7497 20.2045 38.1272 19.7154 37.3996 19.4606C36.6719 19.2058 35.8802 19.1999 35.1488 19.4437C34.0593 19.7618 32.7191 21.0924 32.8637 22.2783L39.1694 20.8513Z" fill="#D1D7DC"/>
<path d="M46.7667 17.5634L47.9237 16.9367C49.0464 16.3259 50.3656 16.186 51.5914 16.5476C52.8172 16.9092 53.8493 17.7427 54.4607 18.865C54.8539 19.5867 55.0594 20.3957 55.0585 21.2175V28.7284H52.3492C51.9154 28.7284 52.0214 28.3909 52.0214 28.1499V22.847C52.018 22.3336 51.9761 21.8211 51.8961 21.314C51.6261 19.887 50.6427 19.2506 49.0036 19.3856C48.4043 19.3983 47.8345 19.6479 47.4189 20.0798C47.0032 20.5117 46.7757 21.0907 46.786 21.69C46.7813 21.7122 46.7813 21.7352 46.786 21.7575V27.9763C46.786 28.5452 46.6607 28.7959 46.0436 28.7476C45.4266 28.6994 44.5299 28.7476 43.72 28.7476V17.3898C43.72 16.8306 43.9032 16.686 44.4238 16.7149C44.9566 16.7535 45.4915 16.7535 46.0243 16.7149C46.5161 16.6667 46.8921 16.7728 46.7667 17.5634Z" fill="#D1D7DC"/>
<path d="M17.5519 16.7146H20.4444C20.6469 16.7146 20.9168 17.0521 21.0036 17.2931C21.8906 19.5589 22.7584 21.8343 23.6261 24.1097C23.7129 24.3411 23.8093 24.5629 23.9636 24.9196C24.1082 24.6207 24.2046 24.4279 24.2914 24.2351C25.1881 21.9307 26.0848 19.6264 26.9525 17.3027C27.126 16.8496 27.3285 16.6471 27.8395 16.676H30.5681C30.1824 17.6402 29.845 18.4983 29.4979 19.3564C28.283 22.3067 27.0618 25.2571 25.8341 28.2074C25.7931 28.3648 25.696 28.5017 25.561 28.5923C25.4259 28.6829 25.2624 28.7209 25.1013 28.6991H22.8548C22.7347 28.685 22.6194 28.6438 22.5176 28.5786C22.4157 28.5135 22.3299 28.4262 22.2667 28.3231C20.7144 24.6497 19.191 20.8894 17.6676 17.2063C17.6171 17.0455 17.5785 16.8811 17.5519 16.7146Z" fill="#D1D7DC"/>
<path d="M61.0746 11.7202V15.9722C61.0746 16.5796 61.2675 16.7821 61.846 16.7242C62.2758 16.6857 62.7081 16.6857 63.1379 16.7242C63.2922 16.7242 63.5429 16.9074 63.5429 17.0231V19.5878H61.1036V28.7088H58.1146C58.0182 28.7088 57.864 28.3327 57.864 28.1303V19.6167H56.4177C55.9356 19.6167 55.8778 19.5299 55.8874 19.1443V17.2063C55.8874 16.8592 56.0321 16.7435 56.3695 16.7435C56.707 16.7435 57.5265 16.8496 57.7097 16.6085C57.8577 16.1351 57.9069 15.6363 57.8543 15.143V12.8869C57.8543 12.7037 58.0086 12.4048 58.1436 12.3662C59.0884 12.1155 60.0526 11.942 61.0746 11.7202Z" fill="#D1D7DC"/>
<path d="M93.1801 12.4629H96.4197V16.2424C96.4197 16.6184 96.545 16.7727 96.9114 16.7631C97.4252 16.7341 97.9402 16.7341 98.4541 16.7631C98.5476 16.7787 98.6356 16.8179 98.7098 16.8769C98.784 16.936 98.842 17.0129 98.8783 17.1005V19.6073H97.191C96.6511 19.6073 96.3811 19.7327 96.3907 20.3787V28.6705H93.2379V20.3015C93.2379 19.8194 93.103 19.6266 92.6112 19.6652C92.1195 19.7037 91.7628 19.6652 91.2518 19.6652V17.0909C91.2518 16.9752 91.4542 16.8498 91.5796 16.7631C91.7049 16.6763 91.7338 16.7631 91.8206 16.7631C93.209 16.7631 93.209 16.7631 93.209 15.365L93.1801 12.4629Z" fill="#D1D7DC"/>
<path d="M82.016 28.7768H79.2778C78.8054 28.7768 78.9211 28.42 78.9114 28.1501V17.2743C78.9114 16.8501 79.0561 16.6958 79.4803 16.7055H81.9582C81.9735 16.9904 82.009 17.274 82.0643 17.5539L85.5449 16.5898V19.6751C85.1014 19.7426 84.6386 19.7908 84.1854 19.8872C83.8778 19.9091 83.5776 19.9918 83.3022 20.1305C83.0267 20.2691 82.7815 20.461 82.5807 20.695C82.3799 20.929 82.2274 21.2005 82.1321 21.4938C82.0369 21.7871 82.0007 22.0963 82.0257 22.4037C82.0209 22.4356 82.0209 22.4681 82.0257 22.5001V27.9765L82.016 28.7768Z" fill="#D1D7DC"/>
<path d="M89.8256 28.6997H86.9331C86.9331 28.4394 86.9331 28.2273 86.9331 28.0152V17.4094C86.9331 16.8694 87.0777 16.6766 87.6177 16.7152C88.1576 16.7537 88.8903 16.7152 89.546 16.7152C89.8449 16.7152 89.9895 16.8116 89.9895 17.1394V28.5165C89.9456 28.5864 89.8901 28.6483 89.8256 28.6997Z" fill="#D1D7DC"/>
<path d="M88.4173 10.4571C88.9125 10.4565 89.3889 10.6463 89.7479 10.9874C90.1068 11.3284 90.3209 11.7945 90.3456 12.289C90.3456 12.8004 90.1425 13.2909 89.7808 13.6525C89.4192 14.0141 88.9287 14.2173 88.4173 14.2173C87.8938 14.2277 87.3873 14.0309 87.0081 13.6698C86.6289 13.3087 86.4077 12.8124 86.3926 12.289C86.4049 12.0356 86.4671 11.7872 86.5756 11.558C86.6841 11.3287 86.8368 11.1231 87.0249 10.953C87.2129 10.7828 87.4328 10.6514 87.6717 10.5663C87.9106 10.4812 88.164 10.4441 88.4173 10.4571Z" fill="#D1D7DC"/>
</g>
</svg>
