<svg width="116" height="45" viewBox="0 0 116 45" fill="none" xmlns="http://www.w3.org/2000/svg">
<path d="M5.5 13.1875V28.207H12.4824V19.1952H16.4723V28.207H23.4544V13.1875H5.5Z" fill="#D1D7DC"/>
<path d="M29.842 13.1875V28.394H33.1308V18.7899L40.4196 28.394H43.2344V13.1875H39.9752V22.5841L32.8938 13.1875H29.842ZM71.2932 13.1875L64.9822 28.394H68.3599L69.7525 25.0147H75.7376L77.1302 28.394H80.5671L74.2858 13.1875H71.2932ZM58.1971 13.8989V16.8335H56.8342V19.6495H58.1971V25.1037C58.1971 27.7762 59.5731 28.5718 61.5748 28.5718C62.6735 28.5718 63.464 28.3299 64.1526 27.9197V25.2815C63.6773 25.5436 63.1262 25.6965 62.523 25.6965C61.7917 25.6965 61.486 25.3242 61.486 24.5701V19.6495H64.1822V16.8335H61.486V13.8989H58.1971ZM50.5528 16.626C47.1917 16.626 44.8344 19.3472 44.8344 22.6434V22.673C44.8344 26.2075 47.4097 28.6607 50.8787 28.6607C52.967 28.6607 54.5148 27.8331 55.5898 26.4969L53.7231 24.8369C52.8177 25.6787 52.007 26.0226 50.9083 26.0226C49.4423 26.0226 48.4195 25.2566 48.0936 23.7698H56.1231C56.148 23.4686 56.1527 23.139 56.1527 22.8805C56.1527 19.6056 54.407 16.626 50.5528 16.626ZM88.2707 16.626C86.5688 16.626 85.4524 17.4168 84.656 18.4935V16.8335H81.3968V31.8325H84.656V26.8822C85.4311 27.8094 86.5273 28.6014 88.2707 28.6014C91.0073 28.6014 93.5151 26.5016 93.5151 22.6434V22.5841C93.5151 18.727 90.9646 16.626 88.2707 16.626ZM101.722 16.626C100.022 16.626 98.9337 17.4168 98.1372 18.4935V16.8335H94.8484V31.8325H98.1372V26.8822C98.9112 27.8094 99.9766 28.6014 101.722 28.6014C104.458 28.6014 106.967 26.5016 106.967 22.6434V22.5841C106.967 18.727 104.415 16.626 101.722 16.626ZM106.641 16.8335V17.1892H107.352V19.4124H107.737V17.1892H108.478V16.8335H106.641ZM108.952 16.8335V19.4124H109.337V17.2781L110.107 19.4124H110.344L111.115 17.2781V19.4124H111.5V16.8335H110.907L110.226 18.7899L109.544 16.8335H108.952ZM72.745 17.1892L74.7302 22.0802H70.7303L72.745 17.1892ZM50.5528 19.2642C51.93 19.2642 52.7892 20.2269 52.9824 21.6948H48.0343C48.2927 20.2103 49.1934 19.2642 50.5528 19.2642ZM87.4115 19.4124C88.9392 19.4124 90.2263 20.6668 90.2262 22.5841V22.6434C90.2262 24.5832 88.9392 25.8151 87.4115 25.8151C85.8838 25.8151 84.6263 24.5618 84.6263 22.6434V22.5841C84.6263 20.6668 85.8838 19.4124 87.4115 19.4124ZM100.893 19.4124C102.423 19.4124 103.708 20.6668 103.708 22.5841V22.6434C103.708 24.5832 102.423 25.8151 100.893 25.8151C99.3663 25.8151 98.078 24.5618 98.078 22.6434V22.5841C98.078 20.6668 99.3663 19.4124 100.893 19.4124Z" fill="#D1D7DC"/>
</svg>
