<svg width="116" height="45" viewBox="0 0 116 45" fill="none" xmlns="http://www.w3.org/2000/svg">
<mask id="mask0_2_139" style="mask-type:luminance" maskUnits="userSpaceOnUse" x="5" y="7" width="107" height="31">
<path d="M111.5 7.1875H5.5V37.1875H111.5V7.1875Z" fill="white"/>
</mask>
<g mask="url(#mask0_2_139)">
<path d="M83.6644 29.911C80.0447 29.911 77.7954 27.8205 77.7954 24.451C77.7954 20.9539 79.871 18.7782 83.213 18.7782H83.4934C83.9126 18.7782 84.4898 18.7919 85.2783 18.89V14.6689H87.6391V29.5305C87.6391 29.5305 85.396 29.911 83.6644 29.911ZM83.6432 20.6314C81.3563 20.6314 80.2444 21.8621 80.2444 24.3923C80.2444 26.6641 81.5861 28.0762 83.7417 28.0762C84.1561 28.0762 84.6307 28.0489 85.2776 27.9937V20.7828C84.6314 20.6791 84.1103 20.6314 83.6432 20.6314ZM51.3276 29.57L44.9505 18.4748L44.9484 29.57H42.7258V15.5239H45.8374L52.2145 26.5203L52.2118 15.5239H54.4638V29.57H51.3276ZM71.6406 29.7862C70.5669 29.7862 69.4474 29.6662 68.1145 29.4105L67.9702 29.3832V27.421L68.1809 27.466C69.3564 27.7162 70.3713 27.9296 71.3869 27.9296C72.2068 27.9296 74.1169 27.8014 74.1169 26.598C74.1169 25.5889 72.797 25.3353 71.737 25.1328L71.67 25.1191C71.4717 25.0823 71.285 25.0448 71.1277 25.0053C69.5725 24.603 67.9135 23.9982 67.9135 21.9207C67.9135 19.8944 69.5219 18.7332 72.3272 18.7332C73.6737 18.7332 74.651 18.8764 75.4367 18.9937L75.8183 19.0496V20.9539L75.6152 20.9171C74.7262 20.7541 73.684 20.5864 72.6821 20.5864C71.5681 20.5864 70.2462 20.7944 70.2462 21.7823C70.2462 22.6025 71.328 22.8371 72.5809 23.1091C74.333 23.4869 76.505 23.9614 76.505 26.345C76.505 28.5316 74.7337 29.7862 71.6406 29.7862ZM94.2664 29.7862C91.823 29.7862 89.56 29.3566 89.56 26.2462C89.56 22.861 93.0594 22.861 95.1514 22.861C95.3593 22.861 96.3427 22.9066 96.6443 22.9196C96.6415 21.0207 96.6176 20.568 93.8554 20.568C92.7606 20.568 91.5446 20.7835 90.471 20.9757L90.2658 21.0125V19.1375L90.4039 19.1082C91.6486 18.856 92.8488 18.7332 94.0722 18.7332C96.7489 18.7332 99.0166 19.0019 99.0166 22.3128V29.5332L98.8539 29.5516C96.9999 29.7589 95.5275 29.7862 94.2664 29.7862ZM95.0926 24.5362C93.0751 24.5362 91.825 24.8321 91.825 26.3048C91.825 28.0094 93.4198 28.1505 94.9161 28.1505C95.4742 28.1505 96.4788 28.0789 96.7858 28.0571V24.5948C96.3536 24.5764 95.2286 24.5362 95.0926 24.5362ZM61.1418 29.7862C58.6949 29.7862 56.4327 29.3566 56.4327 26.2462C56.4327 22.861 59.932 22.861 62.0233 22.861C62.2319 22.861 63.2173 22.9066 63.5196 22.9196C63.5169 21.0207 63.4902 20.568 60.7281 20.568C59.6325 20.568 58.4166 20.7835 57.3429 20.9757L57.1377 21.0125V19.1375L57.2793 19.1082C58.4852 18.8596 59.7134 18.734 60.9448 18.7332C63.6208 18.7332 65.8892 19.0019 65.8892 22.3128V29.5332L65.7258 29.5516C63.8725 29.7589 62.4001 29.7862 61.1418 29.7862ZM61.9645 24.5362C59.9478 24.5362 58.7004 24.8321 58.7004 26.3048C58.7004 28.0094 60.2924 28.1505 61.7887 28.1505C62.3495 28.1505 63.3541 28.0789 63.6612 28.0571V24.5948C63.2255 24.5764 62.1006 24.5362 61.9645 24.5362Z" fill="#D1D7DC"/>
<mask id="mask1_2_139" style="mask-type:alpha" maskUnits="userSpaceOnUse" x="100" y="18" width="11" height="17">
<path d="M100.558 18.0962H110.835V34.4598H100.558V18.0962Z" fill="#D1D7DC"/>
</mask>
<g mask="url(#mask1_2_139)">
<path d="M108.417 34.3425V29.7348C107.496 29.863 107.007 29.863 106.612 29.863C105.676 29.863 104.637 29.6605 103.833 29.3223C102.032 28.5757 100.959 26.6803 100.959 24.2482C100.959 23.0346 101.256 20.8153 103.24 19.6194C104.237 19.0262 105.412 18.7725 107.181 18.7725C107.813 18.7725 108.668 18.8203 109.494 18.868L110.835 18.9375V33.2748L108.417 34.3425ZM107.004 20.6264C104.605 20.6257 103.389 21.8462 103.389 24.2482C103.389 27.341 105.203 27.9907 106.728 27.9907C107.099 27.9907 107.516 27.9907 108.44 27.8735V20.6932C107.717 20.6455 107.382 20.6264 107.004 20.6264Z" fill="#D1D7DC"/>
</g>
<mask id="mask2_2_139" style="mask-type:alpha" maskUnits="userSpaceOnUse" x="22" y="7" width="20" height="23">
<path d="M22.5968 7.19824H41.0613V29.6873H22.5968V7.19824Z" fill="#D1D7DC"/>
</mask>
<g mask="url(#mask2_2_139)">
<path d="M32.1792 7.19824L24.3707 28.5868C24.2742 28.8502 24.1052 29.0811 23.8832 29.2532C23.6611 29.4253 23.3949 29.5315 23.1151 29.5598V29.57H31.3695C32.0157 29.57 32.569 29.1603 32.7748 28.5875L40.586 7.19824H32.1792Z" fill="#D1D7DC"/>
</g>
<path d="M22.4416 29.2456C22.9203 29.2456 23.3396 29.0083 23.596 28.649C23.6227 28.6115 23.7164 28.4806 23.7827 28.3026L26.6468 20.4535L24.9713 15.8697C24.8737 15.6376 24.7156 15.4357 24.5134 15.285C24.3112 15.1342 24.0723 15.0402 23.8214 15.0125C23.5705 14.9848 23.3167 15.0245 23.0864 15.1275C22.856 15.2305 22.6575 15.3931 22.5114 15.5983C22.484 15.6358 22.3726 15.8029 22.3247 15.9447L19.4606 23.791L21.1436 28.3933C21.2528 28.6463 21.4339 28.8618 21.6646 29.0133C21.8953 29.1647 22.1654 29.2455 22.4416 29.2456Z" fill="#D1D7DC"/>
<mask id="mask3_2_139" style="mask-type:alpha" maskUnits="userSpaceOnUse" x="4" y="14" width="20" height="24">
<path d="M4.81616 14.0054H23.2806V37.0488H4.81616V14.0054Z" fill="#D1D7DC"/>
</mask>
<g mask="url(#mask3_2_139)">
<path d="M23.0536 14.6763H14.7083C14.0621 14.6763 13.5088 15.084 13.3002 15.6595L5.49182 37.0481H13.8986L21.7077 15.6602C21.8091 15.3819 21.9911 15.14 22.2308 14.9653C22.4705 14.7905 22.7569 14.6909 23.0536 14.679V14.6763Z" fill="#D1D7DC"/>
</g>
</g>
</svg>
