<svg width="45" height="45" viewBox="0 0 45 45" fill="none" xmlns="http://www.w3.org/2000/svg">
<path fill-rule="evenodd" clip-rule="evenodd" d="M22.4213 4.1875C25.9658 4.1875 29.4307 5.23856 32.3777 7.20778C35.3249 9.17699 37.6219 11.9759 38.9783 15.2506C40.3347 18.5253 40.6897 22.1287 39.9981 25.605C39.3066 29.0814 37.5999 32.2747 35.0935 34.781C32.5872 37.2874 29.3939 38.9941 25.9175 39.6856C22.4412 40.3772 18.8378 40.0222 15.5631 38.6658C12.2884 37.3094 9.48949 35.0124 7.52028 32.0652C5.55106 29.1182 4.5 25.6533 4.5 22.1088C4.52072 17.3622 6.4155 12.8158 9.77191 9.45941C13.1283 6.103 17.6747 4.20822 22.4213 4.1875ZM22.4213 6.4375C19.3313 6.44417 16.3126 7.36612 13.7463 9.08695C11.1799 10.8078 9.1808 13.2504 8.00142 16.1063C6.82203 18.9623 6.5152 22.1037 7.11965 25.134C7.7241 28.1642 9.21275 30.9474 11.3977 33.1324C13.5826 35.3173 16.3658 36.8059 19.396 37.4103C22.4263 38.0148 25.5676 37.708 28.4237 36.5286C31.2796 35.3492 33.7222 33.3502 35.443 30.7837C37.1639 28.2174 38.0859 25.1987 38.0925 22.1088C38.0836 17.9573 36.429 13.9788 33.4913 11.0453C30.5537 8.1119 26.5727 6.46297 22.4213 6.46V6.4375ZM11.9588 13.6937C13.007 12.3887 14.2888 11.2901 15.7387 10.4538L19.6875 21.3325H25.245L29.1713 10.4988C30.5231 11.2934 31.726 12.3174 32.7263 13.525L27.1013 28.24L25.0087 22.93H19.62L17.5612 28.24L11.9588 13.6937ZM34.9875 17.35C36.1317 20.4291 36.1142 23.8199 34.9379 26.887C33.7616 29.954 31.5073 32.487 28.5975 34.0113L34.9875 17.35ZM25.8075 35.1025C23.5134 35.6908 21.1056 35.6714 18.8212 35.0463V34.765L22.2863 25.765L25.74 34.765L25.8075 35.1025ZM15.975 33.865C13.8629 32.7124 12.0998 31.0128 10.8707 28.9444C9.64147 26.8759 8.99145 24.5149 8.98875 22.1088C8.97693 20.5754 9.2359 19.052 9.75375 17.6088L15.975 33.865ZM22.4213 8.67625C23.5791 8.67375 24.7324 8.82123 25.8525 9.115L22.4775 18.4975L19.1025 9.10375C20.1862 8.8216 21.3014 8.67796 22.4213 8.67625Z" fill="#D1D7DC"/>
</svg>
