<svg width="40" height="41" viewBox="0 0 40 41" fill="none" xmlns="http://www.w3.org/2000/svg">
<rect y="0.360352" width="40" height="40" rx="20" fill="#16161D"/>
<path d="M17.3655 21.9868H19.7014C19.6546 22.7524 19.4436 23.4321 19.0686 24.0259C18.6988 24.6196 18.1806 25.0832 17.5139 25.4165C16.8525 25.7498 16.0556 25.9165 15.1233 25.9165C14.3942 25.9165 13.7405 25.7915 13.1624 25.5415C12.5843 25.2863 12.0895 24.9217 11.678 24.4478C11.2718 23.9738 10.9619 23.4009 10.7483 22.729C10.5348 22.0571 10.428 21.3045 10.428 20.4712V19.6821C10.428 18.8488 10.5374 18.0962 10.7561 17.4243C10.9801 16.7472 11.2978 16.1717 11.7093 15.6978C12.1259 15.2238 12.6233 14.8592 13.2014 14.604C13.7796 14.3488 14.4254 14.2212 15.1389 14.2212C16.0869 14.2212 16.8863 14.3931 17.5374 14.7368C18.1936 15.0806 18.7014 15.5545 19.0608 16.1587C19.4254 16.7629 19.6442 17.4504 19.7171 18.2212H17.3733C17.3473 17.7629 17.2561 17.3748 17.0999 17.0571C16.9436 16.7342 16.7067 16.492 16.3889 16.3306C16.0764 16.1639 15.6598 16.0806 15.1389 16.0806C14.7483 16.0806 14.4072 16.1535 14.1155 16.2993C13.8238 16.4451 13.579 16.6665 13.3811 16.9634C13.1832 17.2603 13.0348 17.6353 12.9358 18.0884C12.8421 18.5363 12.7952 19.0623 12.7952 19.6665V20.4712C12.7952 21.0597 12.8395 21.578 12.928 22.0259C13.0165 22.4686 13.152 22.8436 13.3343 23.1509C13.5218 23.453 13.7613 23.6821 14.053 23.8384C14.3499 23.9894 14.7067 24.0649 15.1233 24.0649C15.6129 24.0649 16.0165 23.9868 16.3343 23.8306C16.652 23.6743 16.8942 23.4425 17.0608 23.1353C17.2327 22.828 17.3343 22.4451 17.3655 21.9868ZM25.6936 20.7681H22.7718L22.7561 19.1587H25.2093C25.6415 19.1587 25.9957 19.104 26.2718 18.9946C26.5478 18.88 26.7535 18.716 26.8889 18.5024C27.0296 18.2837 27.0999 18.0181 27.0999 17.7056C27.0999 17.3514 27.0322 17.0649 26.8968 16.8462C26.7665 16.6274 26.5608 16.4686 26.2796 16.3696C26.0035 16.2707 25.6468 16.2212 25.2093 16.2212H23.5843V25.7603H21.2405V14.3853H25.2093C25.8707 14.3853 26.4619 14.4478 26.9827 14.5728C27.5087 14.6978 27.954 14.8879 28.3186 15.1431C28.6832 15.3983 28.9619 15.7212 29.1546 16.1118C29.3473 16.4972 29.4436 16.9556 29.4436 17.4868C29.4436 17.9556 29.3369 18.3879 29.1233 18.7837C28.915 19.1795 28.5843 19.5024 28.1311 19.7524C27.6832 20.0024 27.0973 20.1405 26.3733 20.1665L25.6936 20.7681ZM25.5921 25.7603H22.1311L23.0452 23.9321H25.5921C26.0035 23.9321 26.3395 23.867 26.5999 23.7368C26.8603 23.6014 27.053 23.4191 27.178 23.1899C27.303 22.9608 27.3655 22.6978 27.3655 22.4009C27.3655 22.0675 27.3082 21.7785 27.1936 21.5337C27.0843 21.2889 26.9072 21.1014 26.6624 20.9712C26.4176 20.8358 26.0947 20.7681 25.6936 20.7681H23.4358L23.4514 19.1587H26.2639L26.803 19.7915C27.4957 19.7811 28.053 19.9035 28.4749 20.1587C28.902 20.4087 29.2119 20.7342 29.4046 21.1353C29.6025 21.5363 29.7014 21.966 29.7014 22.4243C29.7014 23.1535 29.5426 23.7681 29.2249 24.2681C28.9072 24.7629 28.441 25.1353 27.8264 25.3853C27.2171 25.6353 26.4723 25.7603 25.5921 25.7603Z" fill="white"/>
</svg>
