<svg width="32" height="41" viewBox="0 0 32 41" fill="none" xmlns="http://www.w3.org/2000/svg">
<path d="M16 26.4182C15.6562 26.4182 15.362 26.2957 15.1173 26.0509C14.8724 25.8061 14.75 25.5119 14.75 25.1682C14.75 24.8244 14.8724 24.5301 15.1173 24.2852C15.362 24.0405 15.6562 23.9182 16 23.9182C16.3438 23.9182 16.638 24.0405 16.8827 24.2852C17.1276 24.5301 17.25 24.8244 17.25 25.1682C17.25 25.5119 17.1276 25.8061 16.8827 26.0509C16.638 26.2957 16.3438 26.4182 16 26.4182ZM16 21.6104C15.6562 21.6104 15.362 21.488 15.1173 21.2432C14.8724 20.9984 14.75 20.7042 14.75 20.3604C14.75 20.0167 14.8724 19.7225 15.1173 19.4777C15.362 19.2329 15.6562 19.1104 16 19.1104C16.3438 19.1104 16.638 19.2329 16.8827 19.4777C17.1276 19.7225 17.25 20.0167 17.25 20.3604C17.25 20.7042 17.1276 20.9984 16.8827 21.2432C16.638 21.488 16.3438 21.6104 16 21.6104ZM16 16.8027C15.6562 16.8027 15.362 16.6804 15.1173 16.4357C14.8724 16.1908 14.75 15.8965 14.75 15.5527C14.75 15.209 14.8724 14.9147 15.1173 14.67C15.362 14.4252 15.6562 14.3027 16 14.3027C16.3438 14.3027 16.638 14.4252 16.8827 14.67C17.1276 14.9147 17.25 15.209 17.25 15.5527C17.25 15.8965 17.1276 16.1908 16.8827 16.4357C16.638 16.6804 16.3438 16.8027 16 16.8027Z" fill="#2A2B3F"/>
</svg>
