<svg width="40" height="41" viewBox="0 0 40 41" fill="none" xmlns="http://www.w3.org/2000/svg">
<rect x="0.5" y="0.97998" width="39" height="39" rx="19.5" stroke="#6D28D2"/>
<path d="M19.9922 26.9046C19.8138 26.9046 19.6345 26.8726 19.4545 26.8085C19.2745 26.7444 19.1161 26.6439 18.9793 26.5073L17.7822 25.4191C16.3047 24.0719 14.9856 22.7485 13.8247 21.4487C12.6639 20.149 12.0835 18.7566 12.0835 17.2716C12.0835 16.089 12.4822 15.0989 13.2797 14.3012C14.0774 13.5037 15.0675 13.105 16.2502 13.105C16.9221 13.105 17.5859 13.2599 18.2414 13.5698C18.8968 13.8796 19.4831 14.3828 20.0002 15.0794C20.5172 14.3828 21.1035 13.8796 21.7589 13.5698C22.4145 13.2599 23.0782 13.105 23.7502 13.105C24.9328 13.105 25.9229 13.5037 26.7206 14.3012C27.5181 15.0989 27.9168 16.089 27.9168 17.2716C27.9168 18.7728 27.3266 20.1806 26.146 21.4952C24.9654 22.8098 23.6492 24.122 22.1972 25.4319L21.0129 26.5073C20.8762 26.6439 20.7166 26.7444 20.5339 26.8085C20.3511 26.8726 20.1706 26.9046 19.9922 26.9046ZM19.4008 16.3454C18.95 15.6585 18.4753 15.155 17.9768 14.835C17.4785 14.515 16.9029 14.355 16.2502 14.355C15.4168 14.355 14.7224 14.6328 14.1668 15.1883C13.6113 15.7439 13.3335 16.4383 13.3335 17.2716C13.3335 17.9404 13.5491 18.6396 13.9802 19.3694C14.4113 20.0991 14.9524 20.8245 15.6035 21.5456C16.2546 22.2669 16.96 22.9714 17.7197 23.6594C18.4793 24.3474 19.1834 24.9869 19.8318 25.5777C19.8799 25.6205 19.936 25.6419 20.0002 25.6419C20.0643 25.6419 20.1204 25.6205 20.1685 25.5777C20.817 24.9869 21.521 24.3474 22.2806 23.6594C23.0403 22.9714 23.7457 22.2669 24.3968 21.5456C25.0479 20.8245 25.5891 20.0991 26.0202 19.3694C26.4513 18.6396 26.6668 17.9404 26.6668 17.2716C26.6668 16.4383 26.3891 15.7439 25.8335 15.1883C25.2779 14.6328 24.5835 14.355 23.7502 14.355C23.0974 14.355 22.5218 14.515 22.0235 14.835C21.525 15.155 21.0504 15.6585 20.5995 16.3454C20.529 16.4522 20.4403 16.5323 20.3335 16.5858C20.2267 16.6391 20.1156 16.6658 20.0002 16.6658C19.8847 16.6658 19.7736 16.6391 19.6668 16.5858C19.56 16.5323 19.4713 16.4522 19.4008 16.3454Z" fill="#6D28D2"/>
</svg>
