<svg width="35" height="35" viewBox="0 0 35 35" fill="none" xmlns="http://www.w3.org/2000/svg">
<path d="M10.3463 20.8667C9.94991 20.8667 9.59977 20.7147 9.29589 20.4107C8.99186 20.1068 8.83984 19.7566 8.83984 19.3602V18.0142C8.83984 17.9267 8.85109 17.8329 8.87359 17.7329C8.89595 17.6331 8.92102 17.5398 8.9488 17.4532L11.3371 11.8177C11.4564 11.5512 11.6566 11.3261 11.9376 11.1423C12.2185 10.9586 12.5117 10.8667 12.8171 10.8667H21.5803V20.8667L16.7326 25.6727C16.5669 25.8383 16.3751 25.9371 16.1571 25.9692C15.9392 26.0013 15.7304 25.9639 15.5307 25.8571C15.3308 25.7502 15.1844 25.5984 15.0915 25.4019C14.9986 25.2054 14.9788 25.0018 15.0321 24.7913L15.9296 20.8667H10.3463ZM20.3303 20.3346V12.1167H12.8142C12.7555 12.1167 12.6954 12.1327 12.634 12.1648C12.5725 12.1969 12.5257 12.2503 12.4936 12.325L10.0898 17.95V19.3602C10.0898 19.4351 10.1139 19.4966 10.1619 19.5446C10.21 19.5927 10.2714 19.6167 10.3463 19.6167H17.5096L16.4648 24.184L20.3303 20.3346ZM24.0001 10.8667C24.4144 10.8667 24.769 11.0142 25.064 11.3092C25.359 11.6042 25.5065 11.9589 25.5065 12.3732V19.3602C25.5065 19.7745 25.359 20.1292 25.064 20.4242C24.769 20.7192 24.4144 20.8667 24.0001 20.8667H21.5803V19.6167H24.0001C24.0749 19.6167 24.1364 19.5927 24.1844 19.5446C24.2325 19.4966 24.2565 19.4351 24.2565 19.3602V12.3732C24.2565 12.2983 24.2325 12.2368 24.1844 12.1888C24.1364 12.1407 24.0749 12.1167 24.0001 12.1167H21.5803V10.8667H24.0001Z" fill="#2A2B3F"/>
</svg>
