<svg width="35" height="35" viewBox="0 0 35 35" fill="none" xmlns="http://www.w3.org/2000/svg">
<path d="M24.8336 15.0335C25.2299 15.0335 25.5801 15.1856 25.884 15.4896C26.188 15.7935 26.34 16.1436 26.34 16.54V17.886C26.34 17.9735 26.3288 18.0673 26.3063 18.1673C26.2839 18.2671 26.2588 18.3604 26.2311 18.4471L23.8427 24.0825C23.7234 24.349 23.5233 24.5742 23.2423 24.7579C22.9613 24.9417 22.6681 25.0335 22.3627 25.0335H13.5996V15.0335L18.4473 10.2275C18.613 10.0619 18.8048 9.96312 19.0227 9.93104C19.2406 9.89896 19.4495 9.93632 19.6492 10.0431C19.849 10.1501 19.9954 10.3018 20.0883 10.4983C20.1813 10.6949 20.201 10.8984 20.1477 11.109L19.2502 15.0335H24.8336ZM14.8496 15.5656V23.7835H22.3656C22.4244 23.7835 22.4845 23.7675 22.5458 23.7354C22.6074 23.7033 22.6542 23.6499 22.6863 23.5752L25.09 17.9502V16.54C25.09 16.4651 25.066 16.4037 25.0179 16.3556C24.9699 16.3076 24.9084 16.2835 24.8336 16.2835H17.6702L18.715 11.7162L14.8496 15.5656ZM11.1798 25.0335C10.7655 25.0335 10.4108 24.886 10.1158 24.591C9.82084 24.296 9.67334 23.9414 9.67334 23.5271V16.54C9.67334 16.1257 9.82084 15.771 10.1158 15.476C10.4108 15.181 10.7655 15.0335 11.1798 15.0335H13.5996V16.2835H11.1798C11.1049 16.2835 11.0435 16.3076 10.9954 16.3556C10.9474 16.4037 10.9233 16.4651 10.9233 16.54V23.5271C10.9233 23.6019 10.9474 23.6634 10.9954 23.7115C11.0435 23.7595 11.1049 23.7835 11.1798 23.7835H13.5996V25.0335H11.1798Z" fill="#2A2B3F"/>
</svg>
