<svg width="20" height="24" viewBox="0 0 20 24" fill="none" xmlns="http://www.w3.org/2000/svg">
<path d="M14.3748 16.7884L13.2642 15.6777C13.1488 15.5624 13.0051 15.5048 12.8332 15.5048C12.6612 15.5048 12.5175 15.5624 12.4021 15.6777C12.2867 15.7931 12.229 15.9386 12.229 16.1142C12.229 16.2897 12.2867 16.4343 12.4021 16.548L14.4725 18.6266C14.6232 18.7774 14.799 18.8527 14.9998 18.8527C15.2007 18.8527 15.3764 18.7774 15.5271 18.6266L17.6057 16.548C17.7209 16.4343 17.7786 16.2897 17.7786 16.1142C17.7786 15.9386 17.7209 15.7931 17.6057 15.6777C17.4903 15.5624 17.3448 15.5048 17.1692 15.5048C16.9937 15.5048 16.8491 15.5624 16.7355 15.6777L15.6248 16.7884V13.6375C15.6248 13.4604 15.5649 13.312 15.445 13.1923C15.3252 13.0724 15.1767 13.0125 14.9996 13.0125C14.8224 13.0125 14.674 13.0724 14.5544 13.1923C14.4347 13.312 14.3748 13.4604 14.3748 13.6375V16.7884ZM12.4998 20.4922H17.4998C17.6769 20.4922 17.8253 20.5521 17.945 20.672C18.0649 20.7919 18.1248 20.9404 18.1248 21.1175C18.1248 21.2947 18.0649 21.4431 17.945 21.5627C17.8253 21.6824 17.6769 21.7423 17.4998 21.7423H12.4998C12.3228 21.7423 12.1744 21.6824 12.0546 21.5625C11.9348 21.4426 11.8748 21.2941 11.8748 21.117C11.8748 20.9398 11.9348 20.7914 12.0546 20.6718C12.1744 20.5521 12.3228 20.4922 12.4998 20.4922ZM5.04796 18.4087C4.63768 18.4087 4.28407 18.2602 3.98713 17.9631C3.69005 17.6661 3.5415 17.3125 3.5415 16.9022V5.33091C3.5415 4.9206 3.69005 4.56696 3.98713 4.27C4.28407 3.97289 4.63768 3.82434 5.04796 3.82434H10.2098C10.413 3.82434 10.6067 3.86337 10.7909 3.94143C10.975 4.01935 11.1355 4.12672 11.2723 4.26354L15.1857 8.17715C15.3225 8.31397 15.4298 8.47447 15.5078 8.65865C15.5858 8.84282 15.6248 9.03652 15.6248 9.23973V10.5604C15.6248 10.7375 15.5649 10.886 15.445 11.0057C15.3252 11.1256 15.1767 11.1855 14.9996 11.1855C14.8224 11.1855 14.674 11.1256 14.5544 11.0057C14.4347 10.886 14.3748 10.7375 14.3748 10.5604V9.24139H11.338C11.0242 9.24139 10.7575 9.13153 10.5378 8.91179C10.318 8.69205 10.2082 8.42529 10.2082 8.11152V5.07443H5.04796C4.9838 5.07443 4.92505 5.10117 4.87171 5.15464C4.81824 5.20798 4.7915 5.26674 4.7915 5.33091V16.9022C4.7915 16.9663 4.81824 17.0251 4.87171 17.0784C4.92505 17.1319 4.9838 17.1586 5.04796 17.1586H9.42296C9.60005 17.1586 9.74845 17.2186 9.86817 17.3384C9.98803 17.4583 10.048 17.6068 10.048 17.7839C10.048 17.9611 9.98803 18.1095 9.86817 18.2291C9.74845 18.3489 9.60005 18.4087 9.42296 18.4087H5.04796Z" fill="#2A2B3F"/>
</svg>
