<svg width="17" height="17" viewBox="0 0 17 17" fill="none" xmlns="http://www.w3.org/2000/svg">
<path d="M3.53183 13.77C3.19505 13.77 2.90999 13.6534 2.67666 13.42C2.44333 13.1867 2.32666 12.9016 2.32666 12.5649V4.97519C2.32666 4.63841 2.44333 4.35335 2.67666 4.12002C2.90999 3.88669 3.19505 3.77002 3.53183 3.77002H13.7882C14.1249 3.77002 14.41 3.88669 14.6433 4.12002C14.8767 4.35335 14.9933 4.63841 14.9933 4.97519V12.5649C14.9933 12.9016 14.8767 13.1867 14.6433 13.42C14.41 13.6534 14.1249 13.77 13.7882 13.77H3.53183ZM3.53183 12.77H13.7882C13.8395 12.77 13.8865 12.7486 13.9292 12.7059C13.9719 12.6632 13.9933 12.6162 13.9933 12.5649V4.97519C13.9933 4.92385 13.9719 4.87685 13.9292 4.83419C13.8865 4.79141 13.8395 4.77002 13.7882 4.77002H3.53183C3.48049 4.77002 3.43349 4.79141 3.39083 4.83419C3.34805 4.87685 3.32666 4.92385 3.32666 4.97519V12.5649C3.32666 12.6162 3.34805 12.6632 3.39083 12.7059C3.43349 12.7486 3.48049 12.77 3.53183 12.77ZM5.35233 11.2444H9.63433C9.77599 11.2444 9.89477 11.1964 9.99066 11.1005C10.0864 11.0046 10.1343 10.8859 10.1343 10.7442C10.1343 10.6024 10.0864 10.4837 9.99066 10.388C9.89477 10.2922 9.77599 10.2444 9.63433 10.2444H5.35233C5.21066 10.2444 5.09188 10.2923 4.99599 10.3882C4.90022 10.4841 4.85233 10.6029 4.85233 10.7445C4.85233 10.8863 4.90022 11.0051 4.99599 11.1009C5.09188 11.1965 5.21066 11.2444 5.35233 11.2444ZM7.68566 8.71869H11.9677C12.1093 8.71869 12.2281 8.67074 12.324 8.57485C12.4198 8.47908 12.4677 8.3603 12.4677 8.21852C12.4677 8.07674 12.4198 7.95802 12.324 7.86235C12.2281 7.76657 12.1093 7.71869 11.9677 7.71869H7.68566C7.54399 7.71869 7.42522 7.76663 7.32933 7.86252C7.23355 7.95841 7.18566 8.07724 7.18566 8.21902C7.18566 8.36069 7.23355 8.47941 7.32933 8.57519C7.42522 8.67085 7.54399 8.71869 7.68566 8.71869ZM5.35249 8.71869C5.49427 8.71869 5.61299 8.67074 5.70866 8.57485C5.80444 8.47908 5.85233 8.3603 5.85233 8.21852C5.85233 8.07674 5.80438 7.95802 5.70849 7.86235C5.6126 7.76657 5.49383 7.71869 5.35216 7.71869C5.21038 7.71869 5.0916 7.76663 4.99583 7.86252C4.90016 7.95841 4.85233 8.07724 4.85233 8.21902C4.85233 8.36069 4.90027 8.47941 4.99616 8.57519C5.09205 8.67085 5.21083 8.71869 5.35249 8.71869ZM11.9678 11.2444C12.1096 11.2444 12.2284 11.1964 12.3242 11.1005C12.4198 11.0046 12.4677 10.8859 12.4677 10.7442C12.4677 10.6024 12.4197 10.4837 12.3238 10.388C12.2279 10.2922 12.1092 10.2444 11.9675 10.2444C11.8257 10.2444 11.707 10.2923 11.6113 10.3882C11.5155 10.4841 11.4677 10.6029 11.4677 10.7445C11.4677 10.8863 11.5156 11.0051 11.6115 11.1009C11.7074 11.1965 11.8262 11.2444 11.9678 11.2444Z" fill="white"/>
</svg>
