<svg width="20" height="20" viewBox="0 0 20 20" fill="none" xmlns="http://www.w3.org/2000/svg">
<path d="M10.0002 17.9066C8.91475 17.9066 7.89044 17.6986 6.92725 17.2825C5.96405 16.8664 5.12405 16.2998 4.40725 15.5829C3.6903 14.8661 3.12377 14.0261 2.70766 13.0629C2.29155 12.0997 2.0835 11.0754 2.0835 9.98997C2.0835 8.89594 2.29155 7.86948 2.70766 6.91059C3.12377 5.95171 3.6903 5.11386 4.40725 4.39705C5.12405 3.68011 5.96405 3.11358 6.92725 2.69747C7.89044 2.28136 8.91475 2.0733 10.0002 2.0733C11.0942 2.0733 12.1206 2.28136 13.0795 2.69747C14.0384 3.11358 14.8763 3.68011 15.5931 4.39705C16.31 5.11386 16.8766 5.95171 17.2927 6.91059C17.7088 7.86948 17.9168 8.89594 17.9168 9.98997C17.9168 11.0754 17.7088 12.0997 17.2927 13.0629C16.8766 14.0261 16.31 14.8661 15.5931 15.5829C14.8763 16.2998 14.0384 16.8664 13.0795 17.2825C12.1206 17.6986 11.0942 17.9066 10.0002 17.9066ZM10.0002 16.6389C10.4254 16.0749 10.7834 15.506 11.0739 14.9323C11.3645 14.3585 11.6011 13.7314 11.7839 13.0508H8.21641C8.40989 13.7527 8.64926 14.3906 8.93454 14.9643C9.21968 15.5381 9.57489 16.0963 10.0002 16.6389ZM8.38641 16.4098C8.06697 15.9514 7.78009 15.4304 7.52579 14.8466C7.27148 14.2627 7.07384 13.6641 6.93287 13.0508H4.106C4.54614 13.9162 5.13641 14.6433 5.87683 15.2321C6.61725 15.8207 7.45377 16.2132 8.38641 16.4098ZM11.6139 16.4098C12.5466 16.2132 13.3831 15.8207 14.1235 15.2321C14.8639 14.6433 15.4542 13.9162 15.8943 13.0508H13.0675C12.8997 13.6694 12.6886 14.2707 12.4343 14.8546C12.1802 15.4384 11.9067 15.9568 11.6139 16.4098ZM3.58183 11.8008H6.67975C6.62739 11.4911 6.5894 11.1874 6.56579 10.8898C6.54232 10.5923 6.53058 10.2923 6.53058 9.98997C6.53058 9.68761 6.54232 9.38768 6.56579 9.09018C6.5894 8.79254 6.62739 8.48886 6.67975 8.17914H3.58183C3.50169 8.46219 3.4403 8.7565 3.39766 9.06205C3.35489 9.36761 3.3335 9.67691 3.3335 9.98997C3.3335 10.303 3.35489 10.6123 3.39766 10.9179C3.4403 11.2234 3.50169 11.5177 3.58183 11.8008ZM7.92954 11.8008H12.0708C12.123 11.4911 12.1609 11.1901 12.1845 10.8979C12.208 10.6057 12.2197 10.303 12.2197 9.98997C12.2197 9.67691 12.208 9.37428 12.1845 9.08205C12.1609 8.78983 12.123 8.48886 12.0708 8.17914H7.92954C7.87732 8.48886 7.8394 8.78983 7.81579 9.08205C7.79232 9.37428 7.78058 9.67691 7.78058 9.98997C7.78058 10.303 7.79232 10.6057 7.81579 10.8979C7.8394 11.1901 7.87732 11.4911 7.92954 11.8008ZM13.3206 11.8008H16.4185C16.4986 11.5177 16.56 11.2234 16.6027 10.9179C16.6454 10.6123 16.6668 10.303 16.6668 9.98997C16.6668 9.67691 16.6454 9.36761 16.6027 9.06205C16.56 8.7565 16.4986 8.46219 16.4185 8.17914H13.3206C13.3729 8.48886 13.4109 8.79254 13.4345 9.09018C13.458 9.38768 13.4697 9.68761 13.4697 9.98997C13.4697 10.2923 13.458 10.5923 13.4345 10.8898C13.4109 11.1874 13.3729 11.4911 13.3206 11.8008ZM13.0675 6.92914H15.8943C15.4489 6.05303 14.8627 5.32594 14.1356 4.74789C13.4085 4.16997 12.5679 3.77469 11.6139 3.56205C11.9334 4.04705 12.2175 4.57754 12.4664 5.15351C12.7154 5.72934 12.9158 6.32122 13.0675 6.92914ZM8.21641 6.92914H11.7839C11.5904 6.23247 11.3471 5.5906 11.0539 5.00351C10.7606 4.41643 10.4093 3.86226 10.0002 3.34101C9.591 3.86226 9.23975 4.41643 8.94641 5.00351C8.65322 5.5906 8.40989 6.23247 8.21641 6.92914ZM4.106 6.92914H6.93287C7.08454 6.32122 7.28488 5.72934 7.53391 5.15351C7.7828 4.57754 8.06697 4.04705 8.38641 3.56205C7.42697 3.77469 6.58509 4.17136 5.86079 4.75205C5.13634 5.33261 4.55141 6.0583 4.106 6.92914Z" fill="#2A2B3F"/>
</svg>
