<svg width="16" height="17" viewBox="0 0 16 17" fill="none" xmlns="http://www.w3.org/2000/svg">
<path d="M8.5 9.20412V6.57328C8.5 6.43139 8.45211 6.31262 8.35633 6.21695C8.26067 6.12117 8.14189 6.07328 8 6.07328C7.85811 6.07328 7.73933 6.12117 7.64367 6.21695C7.54789 6.31262 7.5 6.43139 7.5 6.57328V9.35795C7.5 9.43828 7.51455 9.51478 7.54367 9.58745C7.57267 9.66 7.61839 9.7275 7.68083 9.78995L9.63083 11.7399C9.72305 11.8323 9.83906 11.8795 9.97883 11.8816C10.1186 11.8837 10.2368 11.8365 10.3333 11.7399C10.4299 11.6434 10.4782 11.5263 10.4782 11.3886C10.4782 11.2511 10.4299 11.134 10.3333 11.0374L8.5 9.20412ZM8 15.0733C7.21367 15.0733 6.47694 14.9246 5.78983 14.6271C5.10261 14.3297 4.50344 13.9254 3.99233 13.4143C3.48122 12.9032 3.07694 12.304 2.7795 11.6168C2.48205 10.9297 2.33333 10.1929 2.33333 9.40662C2.33333 8.62028 2.48205 7.88356 2.7795 7.19645C3.07694 6.50923 3.48122 5.91006 3.99233 5.39895C4.50344 4.88784 5.10261 4.48356 5.78983 4.18612C6.47694 3.88867 7.21367 3.73995 8 3.73995C8.78633 3.73995 9.52306 3.88867 10.2102 4.18612C10.8974 4.48356 11.4966 4.88784 12.0077 5.39895C12.5188 5.91006 12.9231 6.50923 13.2205 7.19645C13.5179 7.88356 13.6667 8.62028 13.6667 9.40662C13.6667 10.1929 13.5179 10.9297 13.2205 11.6168C12.9231 12.304 12.5188 12.9032 12.0077 13.4143C11.4966 13.9254 10.8974 14.3297 10.2102 14.6271C9.52306 14.9246 8.78633 15.0733 8 15.0733ZM1.61033 5.59378C1.51367 5.49723 1.46533 5.38012 1.46533 5.24245C1.46533 5.10489 1.51367 4.98784 1.61033 4.89128L3.48467 3.01695C3.577 2.92462 3.693 2.87739 3.83267 2.87528C3.97244 2.87306 4.09061 2.92028 4.18717 3.01695C4.28372 3.1135 4.332 3.23056 4.332 3.36812C4.332 3.50578 4.28372 3.62289 4.18717 3.71945L2.31283 5.59378C2.2205 5.68612 2.1045 5.73334 1.96483 5.73545C1.82505 5.73756 1.70689 5.69034 1.61033 5.59378ZM14.3897 5.59378C14.2931 5.69034 14.1761 5.73862 14.0385 5.73862C13.9008 5.73862 13.7837 5.69034 13.6872 5.59378L11.8128 3.71945C11.7205 3.62712 11.6733 3.51112 11.6712 3.37145C11.6691 3.23167 11.7163 3.1135 11.8128 3.01695C11.9094 2.92028 12.0265 2.87195 12.1642 2.87195C12.3017 2.87195 12.4188 2.92028 12.5153 3.01695L14.3897 4.89128C14.482 4.98362 14.5292 5.09962 14.5313 5.23928C14.5336 5.37906 14.4863 5.49723 14.3897 5.59378ZM8 14.0733C9.29578 14.0733 10.3975 13.6194 11.3052 12.7118C12.2128 11.8041 12.6667 10.7024 12.6667 9.40662C12.6667 8.11084 12.2128 7.00912 11.3052 6.10145C10.3975 5.19378 9.29578 4.73995 8 4.73995C6.70422 4.73995 5.6025 5.19378 4.69483 6.10145C3.78717 7.00912 3.33333 8.11084 3.33333 9.40662C3.33333 10.7024 3.78717 11.8041 4.69483 12.7118C5.6025 13.6194 6.70422 14.0733 8 14.0733Z" fill="#D51C0F"/>
</svg>
