<svg width="20" height="23" viewBox="0 0 20 23" fill="none" xmlns="http://www.w3.org/2000/svg">
<path d="M9.37484 17.3839V14.5279C8.6515 14.4231 8.01449 14.1403 7.4638 13.6793C6.9131 13.2183 6.53942 12.6389 6.34275 11.9412C5.38123 11.8269 4.56984 11.4187 3.90859 10.7168C3.2472 10.0148 2.9165 9.18137 2.9165 8.21658V7.63966C2.9165 7.22533 3.064 6.87065 3.359 6.57563C3.654 6.2806 4.00866 6.13309 4.42296 6.13309H6.10567V5.97287C6.10567 5.55854 6.25317 5.20386 6.54817 4.90884C6.84317 4.61382 7.19782 4.46631 7.61213 4.46631H12.3875C12.8019 4.46631 13.1565 4.61382 13.4515 4.90884C13.7465 5.20386 13.894 5.55854 13.894 5.97287V6.13309H15.5767C15.991 6.13309 16.3457 6.2806 16.6407 6.57563C16.9357 6.87065 17.0832 7.22533 17.0832 7.63966V8.21658C17.0832 9.18137 16.7525 10.0148 16.0911 10.7168C15.4298 11.4187 14.6184 11.8269 13.6569 11.9412C13.4603 12.6389 13.0866 13.2183 12.5359 13.6793C11.9852 14.1403 11.3482 14.4231 10.6248 14.5279V17.3839H12.9646C13.1417 17.3839 13.2901 17.4438 13.4098 17.5637C13.5297 17.6836 13.5896 17.8321 13.5896 18.0092C13.5896 18.1864 13.5297 18.3348 13.4098 18.4544C13.2901 18.5741 13.1417 18.634 12.9646 18.634H7.03505C6.85796 18.634 6.70956 18.5741 6.58984 18.4542C6.46998 18.3343 6.41005 18.1858 6.41005 18.0087C6.41005 17.8315 6.46998 17.6831 6.58984 17.5635C6.70956 17.4438 6.85796 17.3839 7.03505 17.3839H9.37484ZM6.10567 10.5982V7.38318H4.42296C4.3481 7.38318 4.28664 7.40721 4.23859 7.45527C4.19053 7.50333 4.1665 7.56479 4.1665 7.63966V8.21658C4.1665 8.79245 4.34866 9.30158 4.71296 9.74398C5.07727 10.1862 5.5415 10.471 6.10567 10.5982ZM10.0017 13.3292C10.7323 13.3292 11.3526 13.0737 11.8628 12.5625C12.3729 12.0514 12.628 11.4308 12.628 10.7007V5.97287C12.628 5.89801 12.6039 5.83655 12.5559 5.78849C12.5078 5.74043 12.4464 5.7164 12.3717 5.7164H7.62796C7.55324 5.7164 7.49185 5.74043 7.4438 5.78849C7.39574 5.83655 7.37171 5.89801 7.37171 5.97287V10.7007C7.37171 11.4308 7.62741 12.0514 8.1388 12.5625C8.65019 13.0737 9.27116 13.3292 10.0017 13.3292ZM13.894 10.5982C14.4582 10.471 14.9224 10.1862 15.2867 9.74398C15.651 9.30158 15.8332 8.79245 15.8332 8.21658V7.63966C15.8332 7.56479 15.8091 7.50333 15.7611 7.45527C15.713 7.40721 15.6516 7.38318 15.5767 7.38318H13.894V10.5982Z" fill="#2A2B3F"/>
</svg>
