<svg width="16" height="21" viewBox="0 0 16 21" fill="none" xmlns="http://www.w3.org/2000/svg">
<path d="M7.99976 13.48L5.40626 15.0437C5.3096 15.1002 5.21276 15.1239 5.11576 15.1149C5.01876 15.1059 4.93098 15.0732 4.85243 15.0169C4.77376 14.9605 4.71304 14.8868 4.67026 14.7958C4.6276 14.7048 4.62076 14.6042 4.64976 14.4938L5.33826 11.5496L3.04859 9.56796C2.96304 9.49364 2.90854 9.40755 2.88509 9.30968C2.86154 9.21181 2.86771 9.11672 2.9036 9.0244C2.93948 8.9322 2.99121 8.85682 3.05876 8.79828C3.12632 8.73973 3.21865 8.70146 3.33576 8.68347L6.35743 8.41952L7.5306 5.63922C7.57326 5.5358 7.63798 5.45931 7.72476 5.40977C7.81154 5.36022 7.90321 5.33545 7.99976 5.33545C8.09632 5.33545 8.18798 5.36022 8.27476 5.40977C8.36154 5.45931 8.42626 5.5358 8.46893 5.63922L9.6421 8.41952L12.6638 8.68347C12.7809 8.70146 12.8732 8.73973 12.9408 8.79828C13.0083 8.85682 13.06 8.9322 13.0959 9.0244C13.1318 9.11672 13.138 9.21181 13.1144 9.30968C13.091 9.40755 13.0365 9.49364 12.9509 9.56796L10.6613 11.5496L11.3498 14.4938C11.3788 14.6042 11.3719 14.7048 11.3293 14.7958C11.2865 14.8868 11.2258 14.9605 11.1471 15.0169C11.0685 15.0732 10.9808 15.1059 10.8838 15.1149C10.7868 15.1239 10.6899 15.1002 10.5933 15.0437L7.99976 13.48Z" fill="#2A2B3F"/>
</svg>
