<svg width="20" height="24" viewBox="0 0 20 24" fill="none" xmlns="http://www.w3.org/2000/svg">
<path d="M6.08995 20.9005C5.66898 20.9005 5.31266 20.7547 5.021 20.463C4.72933 20.1713 4.5835 19.815 4.5835 19.394V4.90586C4.5835 4.48486 4.72933 4.12851 5.021 3.83682C5.31266 3.54514 5.66898 3.39929 6.08995 3.39929H13.9104C14.3313 3.39929 14.6877 3.54514 14.9793 3.83682C15.271 4.12851 15.4168 4.48486 15.4168 4.90586V19.394C15.4168 19.815 15.271 20.1713 14.9793 20.463C14.6877 20.7547 14.3313 20.9005 13.9104 20.9005H6.08995ZM5.8335 16.958V19.394C5.8335 19.4581 5.86023 19.5169 5.9137 19.5702C5.96704 19.6237 6.02579 19.6505 6.08995 19.6505H13.9104C13.9745 19.6505 14.0333 19.6237 14.0866 19.5702C14.1401 19.5169 14.1668 19.4581 14.1668 19.394V16.958H5.8335ZM10.0002 19.0415C10.2042 19.0415 10.3781 18.9696 10.5218 18.8258C10.6654 18.6822 10.7372 18.5083 10.7372 18.3041C10.7372 18.1001 10.6654 17.9262 10.5218 17.7826C10.3781 17.6389 10.2042 17.567 10.0002 17.567C9.79613 17.567 9.62225 17.6389 9.4785 17.7826C9.33489 17.9262 9.26308 18.1001 9.26308 18.3041C9.26308 18.5083 9.33489 18.6822 9.4785 18.8258C9.62225 18.9696 9.79613 19.0415 10.0002 19.0415ZM5.8335 15.7079H14.1668V6.94121H5.8335V15.7079ZM5.8335 5.69112H14.1668V4.90586C14.1668 4.84169 14.1401 4.78293 14.0866 4.72959C14.0333 4.67612 13.9745 4.64938 13.9104 4.64938H6.08995C6.02579 4.64938 5.96704 4.67612 5.9137 4.72959C5.86023 4.78293 5.8335 4.84169 5.8335 4.90586V5.69112Z" fill="#2A2B3F"/>
</svg>
