<svg width="20" height="23" viewBox="0 0 20 23" fill="none" xmlns="http://www.w3.org/2000/svg">
<path d="M7.5 16.3419H12.5C12.6774 16.3419 12.8258 16.2821 12.9454 16.1623C13.0651 16.0427 13.125 15.8943 13.125 15.7169C13.125 15.5395 13.0651 15.391 12.9454 15.2714C12.8258 15.1517 12.6774 15.0918 12.5 15.0918H7.5C7.32264 15.0918 7.17417 15.1517 7.05458 15.2714C6.93486 15.391 6.875 15.5395 6.875 15.7169C6.875 15.8943 6.93486 16.0427 7.05458 16.1623C7.17417 16.2821 7.32264 16.3419 7.5 16.3419ZM7.5 13.0084H12.5C12.6774 13.0084 12.8258 12.9485 12.9454 12.8288C13.0651 12.7092 13.125 12.5607 13.125 12.3833C13.125 12.2059 13.0651 12.0575 12.9454 11.9379C12.8258 11.8181 12.6774 11.7583 12.5 11.7583H7.5C7.32264 11.7583 7.17417 11.8181 7.05458 11.9379C6.93486 12.0575 6.875 12.2059 6.875 12.3833C6.875 12.5607 6.93486 12.7092 7.05458 12.8288C7.17417 12.9485 7.32264 13.0084 7.5 13.0084ZM5.25646 19.4672C4.83549 19.4672 4.47917 19.3213 4.1875 19.0296C3.89583 18.7379 3.75 18.3816 3.75 17.9606V5.13926C3.75 4.71825 3.89583 4.36191 4.1875 4.07022C4.47917 3.77853 4.83549 3.63269 5.25646 3.63269H11.2517C11.4525 3.63269 11.6456 3.67172 11.831 3.74978C12.0163 3.8277 12.1774 3.93507 12.3142 4.07189L15.8108 7.5688C15.9476 7.70562 16.055 7.86667 16.1329 8.05196C16.211 8.23739 16.25 8.43053 16.25 8.63138V17.9606C16.25 18.3816 16.1042 18.7379 15.8125 19.0296C15.5208 19.3213 15.1645 19.4672 14.7435 19.4672H5.25646ZM11.25 7.87966V4.88278H5.25646C5.19229 4.88278 5.13354 4.90952 5.08021 4.96299C5.02674 5.01633 5 5.07509 5 5.13926V17.9606C5 18.0248 5.02674 18.0835 5.08021 18.1369C5.13354 18.1903 5.19229 18.2171 5.25646 18.2171H14.7435C14.8077 18.2171 14.8665 18.1903 14.9198 18.1369C14.9733 18.0835 15 18.0248 15 17.9606V8.63305H12.0033C11.7885 8.63305 11.6092 8.56117 11.4656 8.41741C11.3219 8.27379 11.25 8.09454 11.25 7.87966Z" fill="#2A2B3F"/>
</svg>
