<svg width="17" height="17" viewBox="0 0 17 17" fill="none" xmlns="http://www.w3.org/2000/svg">
<path d="M1.92871 11.8697C1.92871 11.5261 2.01738 11.2195 2.19471 10.9498C2.37204 10.6802 2.60888 10.4704 2.90521 10.3205C3.53877 10.0106 4.17582 9.77165 4.81638 9.60365C5.45704 9.43577 6.1611 9.35182 6.92854 9.35182C7.6961 9.35182 8.40016 9.43577 9.04071 9.60365C9.68138 9.77165 10.3185 10.0106 10.952 10.3205C11.2484 10.4704 11.4852 10.6802 11.6625 10.9498C11.8399 11.2195 11.9285 11.5261 11.9285 11.8697V12.339C11.9285 12.6073 11.83 12.8432 11.633 13.0467C11.436 13.2501 11.1969 13.3518 10.9157 13.3518H2.94138C2.66027 13.3518 2.42121 13.2533 2.22421 13.0563C2.02721 12.8592 1.92871 12.6201 1.92871 12.339V11.8697ZM14.5184 13.3518H13.0042C13.088 13.1988 13.1519 13.036 13.1959 12.8633C13.2399 12.6907 13.2619 12.5159 13.2619 12.339V11.7877C13.2619 11.3501 13.1548 10.933 12.9405 10.5365C12.7262 10.14 12.4222 9.79988 12.0285 9.51599C12.4755 9.58265 12.8999 9.68582 13.3017 9.82549C13.7034 9.96527 14.0867 10.1304 14.4517 10.321C14.7962 10.5048 15.0622 10.7214 15.2497 10.9708C15.4373 11.2202 15.531 11.4924 15.531 11.7877V12.339C15.531 12.6201 15.4325 12.8592 15.2355 13.0563C15.0385 13.2533 14.7995 13.3518 14.5184 13.3518ZM6.92854 8.27482C6.28688 8.27482 5.7376 8.04638 5.28071 7.58949C4.82382 7.13249 4.59538 6.58315 4.59538 5.94149C4.59538 5.29982 4.82382 4.75054 5.28071 4.29365C5.7376 3.83665 6.28688 3.60815 6.92854 3.60815C7.57021 3.60815 8.11954 3.83665 8.57654 4.29365C9.03343 4.75054 9.26188 5.29982 9.26188 5.94149C9.26188 6.58315 9.03343 7.13249 8.57654 7.58949C8.11954 8.04638 7.57021 8.27482 6.92854 8.27482ZM12.6849 5.94149C12.6849 6.58315 12.4564 7.13249 11.9995 7.58949C11.5427 8.04638 10.9934 8.27482 10.3517 8.27482C10.2765 8.27482 10.1808 8.26627 10.0645 8.24915C9.94821 8.23204 9.85249 8.21327 9.77738 8.19282C10.0403 7.87671 10.2423 7.52604 10.3835 7.14082C10.5247 6.7556 10.5952 6.3556 10.5952 5.94082C10.5952 5.52593 10.5232 5.12743 10.3792 4.74532C10.2352 4.36332 10.0346 4.01165 9.77738 3.69032C9.87304 3.6561 9.96877 3.63388 10.0645 3.62365C10.1602 3.61332 10.2559 3.60815 10.3517 3.60815C10.9934 3.60815 11.5427 3.83665 11.9995 4.29365C12.4564 4.75054 12.6849 5.29982 12.6849 5.94149ZM2.92854 12.3518H10.9285V11.8697C10.9285 11.7304 10.8937 11.6065 10.824 11.498C10.7545 11.3894 10.644 11.2945 10.4927 11.2133C9.94405 10.9304 9.3791 10.7161 8.79788 10.5703C8.21666 10.4247 7.59354 10.3518 6.92854 10.3518C6.26366 10.3518 5.6406 10.4247 5.05938 10.5703C4.47816 10.7161 3.91321 10.9304 3.36454 11.2133C3.21321 11.2945 3.10271 11.3894 3.03304 11.498C2.96338 11.6065 2.92854 11.7304 2.92854 11.8697V12.3518ZM6.92854 7.27482C7.29521 7.27482 7.6091 7.14427 7.87021 6.88315C8.13132 6.62204 8.26188 6.30815 8.26188 5.94149C8.26188 5.57482 8.13132 5.26093 7.87021 4.99982C7.6091 4.73871 7.29521 4.60815 6.92854 4.60815C6.56188 4.60815 6.24799 4.73871 5.98688 4.99982C5.72577 5.26093 5.59521 5.57482 5.59521 5.94149C5.59521 6.30815 5.72577 6.62204 5.98688 6.88315C6.24799 7.14427 6.56188 7.27482 6.92854 7.27482Z" fill="#2A2B3F"/>
</svg>
