<svg width="20" height="24" viewBox="0 0 20 24" fill="none" xmlns="http://www.w3.org/2000/svg">
<path d="M9.20058 13.9932L12.4585 11.9049C12.6711 11.7649 12.7775 11.5688 12.7775 11.3167C12.7775 11.0646 12.6711 10.8686 12.4585 10.7286L9.20058 8.64029C8.97086 8.48639 8.73419 8.47382 8.49058 8.60258C8.24697 8.73134 8.12516 8.93566 8.12516 9.21554V13.4179C8.12516 13.6978 8.24697 13.9021 8.49058 14.0309C8.73419 14.1596 8.97086 14.1471 9.20058 13.9932ZM3.58995 17.5672C3.16898 17.5672 2.81266 17.4213 2.521 17.1296C2.22933 16.838 2.0835 16.4816 2.0835 16.0606V6.57285C2.0835 6.15185 2.22933 5.7955 2.521 5.50382C2.81266 5.21213 3.16898 5.06628 3.58995 5.06628H16.4104C16.8313 5.06628 17.1877 5.21213 17.4793 5.50382C17.771 5.7955 17.9168 6.15185 17.9168 6.57285V16.0606C17.9168 16.4816 17.771 16.838 17.4793 17.1296C17.1877 17.4213 16.8313 17.5672 16.4104 17.5672H12.9168V18.4806C12.9168 18.6955 12.845 18.8747 12.7012 19.0183C12.5576 19.1621 12.3784 19.234 12.1635 19.234H7.83683C7.62197 19.234 7.44273 19.1621 7.29912 19.0183C7.15537 18.8747 7.0835 18.6955 7.0835 18.4806V17.5672H3.58995ZM3.58995 16.3171H16.4104C16.4745 16.3171 16.5333 16.2904 16.5866 16.2369C16.6401 16.1835 16.6668 16.1248 16.6668 16.0606V6.57285C16.6668 6.50868 16.6401 6.44992 16.5866 6.39659C16.5333 6.34311 16.4745 6.31637 16.4104 6.31637H3.58995C3.52579 6.31637 3.46704 6.34311 3.4137 6.39659C3.36023 6.44992 3.3335 6.50868 3.3335 6.57285V16.0606C3.3335 16.1248 3.36023 16.1835 3.4137 16.2369C3.46704 16.2904 3.52579 16.3171 3.58995 16.3171Z" fill="#2A2B3F"/>
</svg>
