<svg width="16" height="20" viewBox="0 0 16 20" fill="none" xmlns="http://www.w3.org/2000/svg">
<path d="M8 9.82185L6.9115 10.6627C6.84917 10.7097 6.78783 10.7114 6.7275 10.6678C6.66728 10.6243 6.64828 10.5679 6.6705 10.4985L7.08467 9.13731L5.982 8.29397C5.92644 8.24698 5.91089 8.1895 5.93533 8.12151C5.95967 8.05363 6.00644 8.01969 6.07567 8.01969H7.4385L7.8525 6.67895C7.87472 6.60963 7.92389 6.57498 8 6.57498C8.07611 6.57498 8.12528 6.60963 8.1475 6.67895L8.5615 8.01969H9.91417C9.98339 8.01969 10.0319 8.05363 10.0597 8.12151C10.0874 8.1895 10.0736 8.24698 10.018 8.29397L8.90517 9.13731L9.31917 10.4985C9.34139 10.5679 9.32239 10.6243 9.26217 10.6678C9.20194 10.7114 9.14061 10.7097 9.07817 10.6627L8 9.82185ZM8 15.6079L5.1205 16.5192C4.92394 16.5884 4.74361 16.5617 4.5795 16.4391C4.41539 16.3164 4.33333 16.1547 4.33333 15.954V12.0034C3.91111 11.5625 3.58333 11.0528 3.35 10.4742C3.11667 9.89577 3 9.27839 3 8.62208C3 7.22746 3.48461 6.04563 4.45383 5.0766C5.42306 4.10756 6.60511 3.62305 8 3.62305C9.39489 3.62305 10.5769 4.10756 11.5462 5.0766C12.5154 6.04563 13 7.22746 13 8.62208C13 9.27839 12.8833 9.89577 12.65 10.4742C12.4167 11.0528 12.0889 11.5625 11.6667 12.0034V15.954C11.6667 16.1547 11.5846 16.3164 11.4205 16.4391C11.2564 16.5617 11.0761 16.5884 10.8795 16.5192L8 15.6079ZM8 12.6213C9.11111 12.6213 10.0556 12.2325 10.8333 11.4549C11.6111 10.6772 12 9.73297 12 8.62208C12 7.51118 11.6111 6.56692 10.8333 5.78929C10.0556 5.01167 9.11111 4.62285 8 4.62285C6.88889 4.62285 5.94444 5.01167 5.16667 5.78929C4.38889 6.56692 4 7.51118 4 8.62208C4 9.73297 4.38889 10.6772 5.16667 11.4549C5.94444 12.2325 6.88889 12.6213 8 12.6213ZM5.33333 15.3104L8 14.5953L10.6667 15.3104V12.8341C10.2863 13.0819 9.87011 13.2751 9.418 13.4135C8.96578 13.5519 8.49311 13.6211 8 13.6211C7.50689 13.6211 7.03422 13.5519 6.582 13.4135C6.12989 13.2751 5.71367 13.0819 5.33333 12.8341V15.3104Z" fill="#2A2B3F"/>
</svg>
