<svg width="16" height="20" viewBox="0 0 16 20" fill="none" xmlns="http://www.w3.org/2000/svg">
<path d="M6.36651 12.4983L12.1255 6.74041C12.2246 6.64121 12.3406 6.59055 12.4735 6.58844C12.6064 6.58633 12.7246 6.63699 12.828 6.74041C12.9315 6.84384 12.9832 6.96259 12.9832 7.09668C12.9832 7.23087 12.9315 7.34968 12.828 7.45311L6.78834 13.5019C6.66779 13.6224 6.52718 13.6826 6.36651 13.6826C6.20584 13.6826 6.06523 13.6224 5.94468 13.5019L3.16134 10.7191C3.06223 10.6199 3.01334 10.5022 3.01467 10.3659C3.0159 10.2297 3.06823 10.1099 3.17167 10.0064C3.27512 9.90302 3.3939 9.85131 3.52801 9.85131C3.66223 9.85131 3.78106 9.90302 3.88451 10.0064L6.36651 12.4983Z" fill="#2A2B3F"/>
</svg>
