<svg width="16" height="20" viewBox="0 0 16 20" fill="none" xmlns="http://www.w3.org/2000/svg">
<path d="M7.196 12.3779L10.0998 10.5129C10.2425 10.4224 10.3138 10.2966 10.3138 10.1355C10.3138 9.97443 10.2425 9.84817 10.0998 9.75675L7.196 7.89177C7.04645 7.78924 6.893 7.78102 6.73567 7.86711C6.57845 7.95321 6.49984 8.08746 6.49984 8.26987V11.9998C6.49984 12.1822 6.57845 12.3165 6.73567 12.4026C6.893 12.4887 7.04645 12.4804 7.196 12.3779ZM8.001 16.4669C7.125 16.4669 6.30162 16.3008 5.53084 15.9684C4.76006 15.636 4.08962 15.1849 3.5195 14.6151C2.94939 14.0454 2.498 13.3753 2.16534 12.605C1.83278 11.8347 1.6665 11.0117 1.6665 10.136C1.6665 9.26018 1.83273 8.43695 2.16517 7.66632C2.49762 6.89569 2.94878 6.22538 3.51867 5.65537C4.08856 5.08537 4.75873 4.63407 5.52917 4.30147C6.29962 3.96898 7.12278 3.80273 7.99867 3.80273C8.87467 3.80273 9.69806 3.96892 10.4688 4.3013C11.2396 4.63368 11.9101 5.08476 12.4802 5.65454C13.0503 6.22432 13.5017 6.89436 13.8343 7.66465C14.1669 8.43495 14.3332 9.25795 14.3332 10.1337C14.3332 11.0095 14.1669 11.8327 13.8345 12.6034C13.5021 13.374 13.0509 14.0443 12.481 14.6143C11.9111 15.1843 11.2409 15.6356 10.4705 15.9682C9.70006 16.3007 8.87689 16.4669 8.001 16.4669Z" fill="#2A2B3F"/>
</svg>
