<svg width="112" height="182" viewBox="0 0 112 182" fill="none" xmlns="http://www.w3.org/2000/svg">
<g clip-path="url(#clip0_149_14485)">
<g clip-path="url(#clip1_149_14485)">
<path d="M36.0659 91.5685L3.68649 88.8357C1.86229 83.1424 0.950195 77.6769 0.950195 72.2113C0.950195 44.8836 22.3845 24.16 57.9563 24.16C92.16 24.16 111.998 43.2895 111.998 72.6668C111.998 101.361 93.7563 119.352 73.6899 135.976C65.7091 142.353 59.0965 147.135 50.8876 152.828H111.542V181.75H0.950195V158.521C15.3157 148.501 33.5576 133.243 48.6073 119.58C61.3767 107.965 77.1104 93.618 77.1104 74.2609C77.1104 60.3693 68.9015 52.3987 55.676 52.3987C39.9424 52.3987 34.0138 64.2407 34.0138 77.2214C34.0138 82.0037 34.6978 87.0139 36.0659 91.5685Z" fill="#F2EFFF"/>
</g>
</g>
<defs>
<clipPath id="clip0_149_14485">
<rect width="111.05" height="181.59" fill="white" transform="translate(0.950195 0.160034)"/>
</clipPath>
<clipPath id="clip1_149_14485">
<rect width="111.048" height="157.59" fill="white" transform="translate(0.951172 24.16)"/>
</clipPath>
</defs>
</svg>
