<svg width="115" height="182" viewBox="0 0 115 182" fill="none" xmlns="http://www.w3.org/2000/svg">
<g clip-path="url(#clip0_149_14496)">
<g clip-path="url(#clip1_149_14496)">
<g clip-path="url(#clip2_149_14496)">
<path d="M0.462402 134.07L31.5147 130.264C33.7648 144.591 40.7403 153.993 57.1665 153.993C74.7177 153.993 80.7932 143.248 80.7932 132.727C80.7932 123.101 76.0679 116.163 64.367 113.924C61.4418 113.252 57.3915 112.804 51.9911 112.804H37.8151V87.0618H50.6411C56.7165 87.0618 61.2168 86.614 64.142 85.7186C73.3676 83.2563 77.643 76.7646 77.643 68.0345C77.643 56.8421 68.8673 51.2459 57.1665 51.2459C43.4405 51.2459 35.79 57.7374 33.5398 71.1684L4.06266 68.0345C4.96272 43.8588 24.3141 24.16 58.0665 24.16C92.4939 24.16 110.046 40.9487 110.046 63.5575C110.046 82.3609 99.0192 91.9864 88.4436 97.5827C100.819 102.507 114.771 111.685 114.771 134.965C114.771 160.932 95.419 181.75 57.1665 181.75C20.9389 181.75 2.26253 163.394 0.462402 134.07Z" fill="#F2EFFF"/>
</g>
</g>
</g>
<defs>
<clipPath id="clip0_149_14496">
<rect width="114.54" height="181.59" fill="white" transform="translate(0.459961 0.160034)"/>
</clipPath>
<clipPath id="clip1_149_14496">
<rect width="114.54" height="181.59" fill="white" transform="translate(0.459961 0.160034)"/>
</clipPath>
<clipPath id="clip2_149_14496">
<rect width="114.537" height="157.59" fill="white" transform="translate(0.461426 24.16)"/>
</clipPath>
</defs>
</svg>
