<svg width="40" height="40" viewBox="0 0 40 40" fill="none" xmlns="http://www.w3.org/2000/svg">
<path d="M15.9615 27.9648C15.5566 27.9648 15.2124 27.8229 14.9288 27.5392C14.6451 27.2556 14.5033 26.9113 14.5033 26.5065C14.5033 26.1015 14.6451 25.7572 14.9288 25.4735C15.2124 25.1899 15.5566 25.0481 15.9615 25.0481C16.3665 25.0481 16.7108 25.1899 16.9944 25.4735C17.278 25.7572 17.4198 26.1015 17.4198 26.5065C17.4198 26.9113 17.278 27.2556 16.9944 27.5392C16.7108 27.8229 16.3665 27.9648 15.9615 27.9648ZM24.0385 27.9648C23.6335 27.9648 23.2892 27.8229 23.0056 27.5392C22.722 27.2556 22.5802 26.9113 22.5802 26.5065C22.5802 26.1015 22.722 25.7572 23.0056 25.4735C23.2892 25.1899 23.6335 25.0481 24.0385 25.0481C24.4434 25.0481 24.7876 25.1899 25.0712 25.4735C25.3549 25.7572 25.4967 26.1015 25.4967 26.5065C25.4967 26.9113 25.3549 27.2556 25.0712 27.5392C24.7876 27.8229 24.4434 27.9648 24.0385 27.9648ZM15.0127 14.7917L17.125 19.2148H22.806C22.8541 19.2148 22.8969 19.2028 22.9344 19.1788C22.9717 19.1547 23.0038 19.1213 23.0304 19.0785L25.266 15.016C25.2981 14.9573 25.3008 14.9052 25.274 14.8598C25.2473 14.8144 25.2019 14.7917 25.1377 14.7917H15.0127ZM14.4135 13.5417H25.984C26.3248 13.5417 26.5825 13.6867 26.7571 13.9769C26.9318 14.2669 26.9401 14.5631 26.7821 14.8654L24.1121 19.7019C23.9754 19.9423 23.7947 20.1295 23.5698 20.2635C23.3448 20.3977 23.0983 20.4648 22.8302 20.4648H16.75L15.7852 22.2275C15.7424 22.2917 15.7411 22.3611 15.7812 22.4358C15.8212 22.5107 15.8813 22.5481 15.9615 22.5481H24.8719C25.0491 22.5481 25.1976 22.6079 25.3173 22.7275C25.4369 22.8472 25.4967 22.9958 25.4967 23.1731C25.4967 23.3505 25.4369 23.499 25.3173 23.6185C25.1976 23.7383 25.0491 23.7981 24.8719 23.7981H15.9615C15.4059 23.7981 14.9885 23.5585 14.7092 23.0794C14.4297 22.6002 14.4199 22.1218 14.6796 21.6442L15.8685 19.5065L12.8367 13.125H11.875C11.6976 13.125 11.5492 13.0651 11.4296 12.9454C11.3099 12.8258 11.25 12.6774 11.25 12.5C11.25 12.3226 11.3099 12.1742 11.4296 12.0546C11.5492 11.9349 11.6976 11.875 11.875 11.875H13.149C13.2912 11.875 13.4237 11.9126 13.5465 11.9879C13.6694 12.0633 13.7628 12.1694 13.8269 12.306L14.4135 13.5417Z" fill="#2A2B3F"/>
</svg>
