<svg width="128" height="17" viewBox="0 0 128 17" fill="none" xmlns="http://www.w3.org/2000/svg">
<mask id="mask0_149_20559" style="mask-type:luminance" maskUnits="userSpaceOnUse" x="0" y="1" width="64" height="15">
<path d="M63.96 1.28992H0.959961V15.2899H63.96V1.28992Z" fill="white"/>
</mask>
<g mask="url(#mask0_149_20559)">
<path d="M35.96 11.0249L33.6907 12.3934C33.6061 12.4428 33.5214 12.4635 33.4365 12.4556C33.3516 12.4478 33.2748 12.4192 33.2061 12.3699C33.1372 12.3205 33.0841 12.256 33.0467 12.1764C33.0094 12.0967 33.0034 12.0087 33.0287 11.9121L33.6312 9.33539L31.6277 7.60114C31.5529 7.5361 31.5052 7.46075 31.4847 7.3751C31.4641 7.28944 31.4694 7.20622 31.5009 7.12543C31.5323 7.04474 31.5775 6.97877 31.6366 6.92754C31.6957 6.8763 31.7765 6.84281 31.879 6.82706L34.523 6.59606L35.5495 4.16283C35.5868 4.07231 35.6434 4.00537 35.7194 3.96201C35.7953 3.91865 35.8755 3.89697 35.96 3.89697C36.0445 3.89697 36.1247 3.91865 36.2006 3.96201C36.2766 4.00537 36.3332 4.07231 36.3705 4.16283L37.397 6.59606L40.041 6.82706C40.1435 6.84281 40.2243 6.8763 40.2834 6.92754C40.3425 6.97877 40.3877 7.04474 40.4191 7.12543C40.4505 7.20622 40.4559 7.28944 40.4353 7.3751C40.4148 7.46075 40.3671 7.5361 40.2923 7.60114L38.2888 9.33539L38.8912 11.9121C38.9166 12.0087 38.9106 12.0967 38.8733 12.1764C38.8359 12.256 38.7827 12.3205 38.7139 12.3699C38.6452 12.4192 38.5684 12.4478 38.4835 12.4556C38.3986 12.4635 38.3139 12.4428 38.2293 12.3934L35.96 11.0249Z" fill="#C4710D"/>
<path d="M49.96 11.0249L47.6907 12.3934C47.6061 12.4428 47.5214 12.4635 47.4365 12.4556C47.3516 12.4478 47.2748 12.4192 47.2061 12.3699C47.1372 12.3205 47.0841 12.256 47.0467 12.1764C47.0094 12.0967 47.0034 12.0087 47.0287 11.9121L47.6312 9.33539L45.6277 7.60114C45.5529 7.5361 45.5052 7.46075 45.4847 7.3751C45.4641 7.28944 45.4694 7.20622 45.5009 7.12543C45.5323 7.04474 45.5775 6.97877 45.6366 6.92754C45.6957 6.8763 45.7765 6.84281 45.879 6.82706L48.523 6.59606L49.5495 4.16283C49.5868 4.07231 49.6434 4.00537 49.7194 3.96201C49.7953 3.91865 49.8755 3.89697 49.96 3.89697C50.0445 3.89697 50.1247 3.91865 50.2006 3.96201C50.2766 4.00537 50.3332 4.07231 50.3705 4.16283L51.397 6.59606L54.041 6.82706C54.1435 6.84281 54.2243 6.8763 54.2834 6.92754C54.3425 6.97877 54.3877 7.04474 54.4191 7.12543C54.4505 7.20622 54.4559 7.28944 54.4353 7.3751C54.4148 7.46075 54.3671 7.5361 54.2923 7.60114L52.2888 9.33539L52.8912 11.9121C52.9166 12.0087 52.9106 12.0967 52.8733 12.1764C52.8359 12.256 52.7827 12.3205 52.7139 12.3699C52.6452 12.4192 52.5684 12.4478 52.4835 12.4556C52.3986 12.4635 52.3139 12.4428 52.2293 12.3934L49.96 11.0249Z" fill="#C4710D"/>
<path d="M63.96 11.0249L61.6907 12.3934C61.6061 12.4428 61.5214 12.4635 61.4365 12.4556C61.3516 12.4478 61.2748 12.4192 61.2061 12.3699C61.1372 12.3205 61.0841 12.256 61.0467 12.1764C61.0094 12.0967 61.0034 12.0087 61.0287 11.9121L61.6312 9.33539L59.6277 7.60114C59.5529 7.5361 59.5052 7.46075 59.4847 7.3751C59.4641 7.28944 59.4694 7.20622 59.5009 7.12543C59.5323 7.04474 59.5775 6.97877 59.6366 6.92754C59.6957 6.8763 59.7765 6.84281 59.879 6.82706L62.523 6.59606L63.5495 4.16283C63.5868 4.07231 63.6434 4.00537 63.7194 3.96201C63.7953 3.91865 63.8755 3.89697 63.96 3.89697C64.0445 3.89697 64.1247 3.91865 64.2006 3.96201C64.2766 4.00537 64.3332 4.07231 64.3705 4.16283L65.397 6.59606L68.041 6.82706C68.1435 6.84281 68.2243 6.8763 68.2834 6.92754C68.3425 6.97877 68.3877 7.04474 68.4191 7.12543C68.4505 7.20622 68.4559 7.28944 68.4353 7.3751C68.4148 7.46075 68.3671 7.5361 68.2923 7.60114L66.2888 9.33539L66.8912 11.9121C66.9166 12.0087 66.9106 12.0967 66.8733 12.1764C66.8359 12.256 66.7827 12.3205 66.7139 12.3699C66.6452 12.4192 66.5684 12.4478 66.4835 12.4556C66.3986 12.4635 66.3139 12.4428 66.2293 12.3934L63.96 11.0249Z" fill="#C4710D"/>
</g>
<path d="M36.96 12.0249L34.6907 13.3934C34.6061 13.4428 34.5214 13.4635 34.4365 13.4556C34.3516 13.4478 34.2748 13.4192 34.2061 13.3699C34.1372 13.3205 34.0841 13.256 34.0467 13.1764C34.0094 13.0967 34.0034 13.0087 34.0287 12.9121L34.6312 10.3354L32.6277 8.60114C32.5529 8.5361 32.5052 8.46075 32.4847 8.3751C32.4641 8.28944 32.4694 8.20622 32.5009 8.12543C32.5323 8.04474 32.5775 7.97877 32.6366 7.92754C32.6957 7.8763 32.7765 7.84281 32.879 7.82706L35.523 7.59606L36.5495 5.16283C36.5868 5.07231 36.6434 5.00537 36.7194 4.96201C36.7953 4.91865 36.8755 4.89697 36.96 4.89697C37.0445 4.89697 37.1247 4.91865 37.2006 4.96201C37.2766 5.00537 37.3332 5.07231 37.3705 5.16283L38.397 7.59606L41.041 7.82706C41.1435 7.84281 41.2243 7.8763 41.2834 7.92754C41.3425 7.97877 41.3877 8.04474 41.4191 8.12543C41.4505 8.20622 41.4559 8.28944 41.4353 8.3751C41.4148 8.46075 41.3671 8.5361 41.2923 8.60114L39.2888 10.3354L39.8912 12.9121C39.9166 13.0087 39.9106 13.0967 39.8733 13.1764C39.8359 13.256 39.7827 13.3205 39.7139 13.3699C39.6452 13.4192 39.5684 13.4478 39.4835 13.4556C39.3986 13.4635 39.3139 13.4428 39.2293 13.3934L36.96 12.0249Z" stroke="#C4710D" stroke-width="1.16667"/>
<path d="M50.96 12.0249L48.6907 13.3934C48.6061 13.4428 48.5214 13.4635 48.4365 13.4556C48.3516 13.4478 48.2748 13.4192 48.2061 13.3699C48.1372 13.3205 48.0841 13.256 48.0467 13.1764C48.0094 13.0967 48.0034 13.0087 48.0287 12.9121L48.6312 10.3354L46.6277 8.60114C46.5529 8.5361 46.5052 8.46075 46.4847 8.3751C46.4641 8.28944 46.4694 8.20622 46.5009 8.12543C46.5323 8.04474 46.5775 7.97877 46.6366 7.92754C46.6957 7.8763 46.7765 7.84281 46.879 7.82706L49.523 7.59606L50.5495 5.16283C50.5868 5.07231 50.6434 5.00537 50.7194 4.96201C50.7953 4.91865 50.8755 4.89697 50.96 4.89697C51.0445 4.89697 51.1247 4.91865 51.2006 4.96201C51.2766 5.00537 51.3332 5.07231 51.3705 5.16283L52.397 7.59606L55.041 7.82706C55.1435 7.84281 55.2243 7.8763 55.2834 7.92754C55.3425 7.97877 55.3877 8.04474 55.4191 8.12543C55.4505 8.20622 55.4559 8.28944 55.4353 8.3751C55.4148 8.46075 55.3671 8.5361 55.2923 8.60114L53.2888 10.3354L53.8912 12.9121C53.9166 13.0087 53.9106 13.0967 53.8733 13.1764C53.8359 13.256 53.7827 13.3205 53.7139 13.3699C53.6452 13.4192 53.5684 13.4478 53.4835 13.4556C53.3986 13.4635 53.3139 13.4428 53.2293 13.3934L50.96 12.0249Z" stroke="#C4710D" stroke-width="1.16667"/>
<path d="M64.96 12.0249L62.6907 13.3934C62.6061 13.4428 62.5214 13.4635 62.4365 13.4556C62.3516 13.4478 62.2748 13.4192 62.2061 13.3699C62.1372 13.3205 62.0841 13.256 62.0467 13.1764C62.0094 13.0967 62.0034 13.0087 62.0287 12.9121L62.6312 10.3354L60.6277 8.60114C60.5529 8.5361 60.5052 8.46075 60.4847 8.3751C60.4641 8.28944 60.4694 8.20622 60.5009 8.12543C60.5323 8.04474 60.5775 7.97877 60.6366 7.92754C60.6957 7.8763 60.7765 7.84281 60.879 7.82706L63.523 7.59606L64.5495 5.16283C64.5868 5.07231 64.6434 5.00537 64.7194 4.96201C64.7953 4.91865 64.8755 4.89697 64.96 4.89697C65.0445 4.89697 65.1247 4.91865 65.2006 4.96201C65.2766 5.00537 65.3332 5.07231 65.3705 5.16283L66.397 7.59606L69.041 7.82706C69.1435 7.84281 69.2243 7.8763 69.2834 7.92754C69.3425 7.97877 69.3877 8.04474 69.4191 8.12543C69.4505 8.20622 69.4559 8.28944 69.4353 8.3751C69.4148 8.46075 69.3671 8.5361 69.2923 8.60114L67.2888 10.3354L67.8912 12.9121C67.9166 13.0087 67.9106 13.0967 67.8733 13.1764C67.8359 13.256 67.7827 13.3205 67.7139 13.3699C67.6452 13.4192 67.5684 13.4478 67.4835 13.4556C67.3986 13.4635 67.3139 13.4428 67.2293 13.3934L64.96 12.0249Z" stroke="#C4710D" stroke-width="1.16667"/>
<path d="M78.96 12.0249L76.6907 13.3934C76.6061 13.4428 76.5214 13.4635 76.4365 13.4556C76.3516 13.4478 76.2748 13.4192 76.2061 13.3699C76.1372 13.3205 76.0841 13.256 76.0467 13.1764C76.0094 13.0967 76.0034 13.0087 76.0287 12.9121L76.6312 10.3354L74.6277 8.60114C74.5529 8.5361 74.5052 8.46075 74.4847 8.3751C74.4641 8.28944 74.4694 8.20622 74.5009 8.12543C74.5323 8.04474 74.5775 7.97877 74.6366 7.92754C74.6957 7.8763 74.7765 7.84281 74.879 7.82706L77.523 7.59606L78.5495 5.16283C78.5868 5.07231 78.6434 5.00537 78.7194 4.96201C78.7953 4.91865 78.8755 4.89697 78.96 4.89697C79.0445 4.89697 79.1247 4.91865 79.2006 4.96201C79.2766 5.00537 79.3332 5.07231 79.3705 5.16283L80.397 7.59606L83.041 7.82706C83.1435 7.84281 83.2243 7.8763 83.2834 7.92754C83.3425 7.97877 83.3877 8.04474 83.4191 8.12543C83.4505 8.20622 83.4559 8.28944 83.4353 8.3751C83.4148 8.46075 83.3671 8.5361 83.2923 8.60114L81.2888 10.3354L81.8912 12.9121C81.9166 13.0087 81.9106 13.0967 81.8733 13.1764C81.8359 13.256 81.7827 13.3205 81.7139 13.3699C81.6452 13.4192 81.5684 13.4478 81.4835 13.4556C81.3986 13.4635 81.3139 13.4428 81.2293 13.3934L78.96 12.0249Z" stroke="#C4710D" stroke-width="1.16667"/>
<path d="M92.96 12.0249L90.6907 13.3934C90.6061 13.4428 90.5214 13.4635 90.4365 13.4556C90.3516 13.4478 90.2748 13.4192 90.2061 13.3699C90.1372 13.3205 90.0841 13.256 90.0467 13.1764C90.0094 13.0967 90.0034 13.0087 90.0287 12.9121L90.6312 10.3354L88.6277 8.60114C88.5529 8.5361 88.5052 8.46075 88.4847 8.3751C88.4641 8.28944 88.4694 8.20622 88.5009 8.12543C88.5323 8.04474 88.5775 7.97877 88.6366 7.92754C88.6957 7.8763 88.7765 7.84281 88.879 7.82706L91.523 7.59606L92.5495 5.16283C92.5868 5.07231 92.6434 5.00537 92.7194 4.96201C92.7953 4.91865 92.8755 4.89697 92.96 4.89697C93.0445 4.89697 93.1247 4.91865 93.2006 4.96201C93.2766 5.00537 93.3332 5.07231 93.3705 5.16283L94.397 7.59606L97.041 7.82706C97.1435 7.84281 97.2243 7.8763 97.2834 7.92754C97.3425 7.97877 97.3877 8.04474 97.4191 8.12543C97.4505 8.20622 97.4559 8.28944 97.4353 8.3751C97.4148 8.46075 97.3671 8.5361 97.2923 8.60114L95.2888 10.3354L95.8912 12.9121C95.9166 13.0087 95.9106 13.0967 95.8733 13.1764C95.8359 13.256 95.7827 13.3205 95.7139 13.3699C95.6452 13.4192 95.5684 13.4478 95.4835 13.4556C95.3986 13.4635 95.3139 13.4428 95.2293 13.3934L92.96 12.0249Z" stroke="#C4710D" stroke-width="1.16667"/>
</svg>
